SplineFontDB: 3.2
FontName: NimbusSans-Italic
FullName: Nimbus Sans Italic
FamilyName: Nimbus Sans
Weight: Book
Copyright: (URW)++,Copyright 2014 by (URW)++ Design & Development
Version: 1.10
ItalicAngle: -12
UnderlinePosition: -360
UnderlineWidth: 102
Ascent: 1638
Descent: 410
InvalidEm: 0
sfntRevision: 0x00011999
LayerCount: 2
Layer: 0 1 "Hinten" 1
Layer: 1 1 "Vorne" 0
XUID: [1021 367 390255522 2862861]
StyleMap: 0x0001
FSType: 4
OS2Version: 4
OS2_WeightWidthSlopeOnly: 0
OS2_UseTypoMetrics: 1
CreationTime: 1590483796
ModificationTime: 1762681128
PfmFamily: 81
TTFWeight: 400
TTFWidth: 5
LineGap: 410
VLineGap: 0
Panose: 0 0 0 0 0 0 0 0 0 0
OS2TypoAscent: 1602
OS2TypoAOffset: 0
OS2TypoDescent: -512
OS2TypoDOffset: 0
OS2TypoLinegap: 410
OS2WinAscent: 1952
OS2WinAOffset: 0
OS2WinDescent: 451
OS2WinDOffset: 0
HheadAscent: 1843
HheadAOffset: 0
HheadDescent: -512
HheadDOffset: 0
OS2SubXSize: 1331
OS2SubYSize: 1331
OS2SubXOff: 0
OS2SubYOff: 307
OS2SupXSize: 1331
OS2SupYSize: 1331
OS2SupXOff: 0
OS2SupYOff: 983
OS2StrikeYSize: 147
OS2StrikeYPos: 639
OS2CapHeight: 1493
OS2XHeight: 1073
OS2FamilyClass: 2053
OS2Vendor: 'URW '
OS2CodePages: 0000009f.00000000
OS2UnicodeRanges: a00002af.100178ff.00000000.00000000
Lookup: 258 8 0 "'kern' Horizontal Kerning lookup 0" { "'kern' Horizontal Kerning lookup 0 subtable" [307,30,0] } ['kern' ('DFLT' <'dflt' > 'grek' <'dflt' > 'latn' <'dflt' > ) ]
MarkAttachClasses: 1
DEI: 91125
TtTable: prep
PUSHW_1
 511
SCANCTRL
PUSHB_1
 1
SCANTYPE
SVTCA[y-axis]
MPPEM
PUSHB_1
 8
LT
IF
PUSHB_2
 1
 1
INSTCTRL
EIF
PUSHB_2
 70
 6
CALL
IF
POP
PUSHB_1
 16
EIF
MPPEM
PUSHB_1
 20
GT
IF
POP
PUSHB_1
 128
EIF
SCVTCI
PUSHB_1
 6
CALL
NOT
IF
SVTCA[y-axis]
PUSHB_1
 5
DUP
RCVT
PUSHB_1
 3
CALL
WCVTP
SVTCA[x-axis]
PUSHB_1
 6
DUP
RCVT
PUSHB_1
 3
CALL
WCVTP
EIF
PUSHB_1
 20
CALL
EndTTInstrs
TtTable: fpgm
PUSHB_1
 0
FDEF
PUSHB_1
 0
SZP0
MPPEM
PUSHB_1
 42
LT
IF
PUSHB_1
 74
SROUND
EIF
PUSHB_1
 0
SWAP
MIAP[rnd]
RTG
PUSHB_1
 6
CALL
IF
RTDG
EIF
MPPEM
PUSHB_1
 42
LT
IF
RDTG
EIF
DUP

StartChar: exclam
Encoding: 33 33 1
Width: 569
GlyphClass: 2
Flags: W
HStem: 0 211<299 426> 1473 20G<566.754 743>
VStem: 254 172<0 172> 299 172<39 211> 373 81<344 389.31> 571 172<1321 1493>
LayerCount: 2
Fore
SplineSet
743 1493 m 1,0,-1
 591 777 l 1,1,-1
 454 344 l 1,2,-1
 373 344 l 1,3,-1
 419 777 l 1,4,-1
 571 1493 l 1,5,-1
 743 1493 l 1,0,-1
471 211 m 1,6,-1
 426 0 l 1,7,-1
 254 0 l 1,8,-1
 299 211 l 1,9,-1
 471 211 l 1,6,-1
EndSplineSet
EndChar

StartChar: quotedbl
Encoding: 34 34 2
Width: 727
GlyphClass: 2
Flags: W
HStem: 950 502<413 444 739 769>
VStem: 413 193<1259 1452> 739 192<1260 1452>
LayerCount: 2
Fore
SplineSet
413 1452 m 1,0,-1
 606 1452 l 1,1,-1
 558 1225 l 1,2,-1
 444 950 l 1,3,-1
 362 950 l 1,4,-1
 365 1225 l 1,5,-1
 413 1452 l 1,0,-1
739 1452 m 1,6,-1
 931 1452 l 1,7,-1
 883 1225 l 1,8,-1
 769 950 l 1,9,-1
 688 950 l 1,10,-1
 691 1225 l 1,11,-1
 739 1452 l 1,6,-1
EndSplineSet
EndChar

StartChar: numbersign
Encoding: 35 35 3
Width: 1139
GlyphClass: 2
Flags: W
HStem: 391 131<139 318 526 729 937 1128> 899 131<322 519 726 930 1138 1302>
LayerCount: 2
Fore
SplineSet
1295 1427 m 1,0,-1
 1138 1030 l 1,1,-1
 1330 1030 l 1,2,-1
 1302 899 l 1,3,-1
 1087 899 l 1,4,-1
 937 522 l 1,5,-1
 1155 522 l 1,6,-1
 1128 391 l 1,7,-1
 886 391 l 1,8,-1
 716 -41 l 1,9,-1
 559 -41 l 1,10,-1
 729 391 l 1,11,-1
 474 391 l 1,12,-1
 304 -41 l 1,13,-1
 148 -41 l 1,14,-1
 318 391 l 1,15,-1
 111 391 l 1,16,-1
 139 522 l 1,17,-1
 370 522 l 1,18,-1
 519 899 l 1,19,-1
 294 899 l 1,20,-1
 322 1030 l 1,21,-1
 570 1030 l 1,22,-1
 728 1427 l 1,23,-1
 884 1427 l 1,24,-1
 726 1030 l 1,25,-1
 982 1030 l 1,26,-1
 1139 1427 l 1,27,-1
 1295 1427 l 1,0,-1
930 899 m 1,28,-1
 675 899 l 1,29,-1
 526 522 l 1,30,-1
 781 522 l 1,31,-1
 930 899 l 1,28,-1
EndSplineSet
EndChar

StartChar: dollar
Encoding: 36 36 4
Width: 1139
GlyphClass: 2
Flags: W
HStem: -47 141<405 489 640 811.096> 1321 145<628.309 779 931 1029.03>
VStem: 141 170<178.35 423.195> 311 170<906.783 1172.59> 444 121<-258 -137> 977 180<278.883 546.404> 1085 170<1063 1263.55>
LayerCount: 2
Fore
SplineSet
319 426 m 1,0,-1
 311 307 l 1,1,2
 311 197 311 197 396 143 c 0,3,4
 437 117 437 117 519 94 c 1,5,-1
 637 651 l 1,6,7
 456 713 456 713 402 758 c 0,8,9
 311 836 311 836 311 960 c 0,10,11
 311 1005 311 1005 319 1051 c 0,12,13
 352 1235 352 1235 480 1343 c 128,-1,14
 608 1451 608 1451 810 1466 c 1,15,-1
 834 1577 l 1,16,-1
 955 1577 l 1,17,-1
 931 1466 l 1,18,19
 1061 1459 1061 1459 1145 1397 c 0,20,21
 1255 1314 1255 1314 1255 1158 c 0,22,23
 1255 1116 1255 1116 1243 1063 c 1,24,-1
 1081 1063 l 1,25,-1
 1085 1137 l 2,26,27
 1085 1161 1085 1161 1079 1186 c 0,28,29
 1047 1316 1047 1316 901 1323 c 1,30,-1
 792 813 l 1,31,32
 985 753 985 753 1041 716 c 0,33,34
 1157 637 1157 637 1157 501 c 128,-1,35
 1157 365 1157 365 1093.5 236 c 128,-1,36
 1030 107 1030 107 922 42 c 0,37,38
 784 -41 784 -41 610 -47 c 1,39,-1
 565 -258 l 1,40,-1
 444 -258 l 1,41,-1
 489 -47 l 1,42,43
 386 -32 386 -32 315 0 c 0,44,45
 141 77 141 77 141 275 c 0,46,47
 141 336 141 336 157 426 c 1,48,-1
 319 426 l 1,0,-1
779 1321 m 1,49,50
 579 1304 579 1304 506 1137 c 0,51,52
 481 1080 481 1080 481 1046 c 0,53,54
 481 944 481 944 529.5 901.5 c 128,-1,55
 578 859 578 859 675 829 c 1,56,-1
 779 1321 l 1,49,50
640 94 m 1,57,58
 804 106 804 106 890.5 195 c 128,-1,59
 977 284 977 284 977 433 c 0,60,61
 977 514 977 514 921 556.5 c 128,-1,62
 865 599 865 599 754 633 c 1,63,-1
 640 94 l 1,57,58
EndSplineSet
EndChar

StartChar: percent
Encoding: 37 37 5
Width: 1821
GlyphClass: 2
Flags: W
HStem: -33 135<1313.98 1570.58> 520 134.5<1380.56 1638.35> 709 135<469.981 726.718> 1262 134.5<536.735 795.768>
VStem: 274 143<894.185 1144.01> 846 143<961.111 1212.65> 1118 143<152.185 402.007> 1690 142.5<219.811 470.555>
LayerCount: 2
Fore
SplineSet
1554 1452 m 1,0,-1
 1689 1452 l 1,1,-1
 563 -41 l 1,2,-1
 428 -41 l 1,3,-1
 1554 1452 l 1,0,-1
947 1272 m 0,4,5
 989 1208 989 1208 989 1127 c 128,-1,6
 989 1046 989 1046 948.5 963 c 128,-1,7
 908 880 908 880 836 818 c 0,8,9
 709 709 709 709 570.5 709 c 128,-1,10
 432 709 432 709 353 786 c 128,-1,11
 274 863 274 863 274 980 c 0,12,13
 274 1061 274 1061 313.5 1142 c 128,-1,14
 353 1223 353 1223 421 1282 c 0,15,16
 553 1397 553 1397 709.5 1396.5 c 128,-1,17
 866 1396 866 1396 947 1272 c 0,4,5
799 1215.5 m 128,-1,19
 752 1262 752 1262 690 1262 c 0,20,21
 548 1262 548 1262 467 1152 c 0,22,23
 417 1084 417 1084 417 1013 c 0,24,25
 417 927 417 927 470.5 885.5 c 128,-1,26
 524 844 524 844 584 844 c 0,27,28
 685 844 685 844 765.5 920.5 c 128,-1,29
 846 997 846 997 846 1083 c 128,-1,18
 846 1169 846 1169 799 1215.5 c 128,-1,19
1790 530 m 0,30,31
 1832 466 1832 466 1832.5 385 c 128,-1,32
 1833 304 1833 304 1792.5 221 c 128,-1,33
 1752 138 1752 138 1679 76 c 0,34,35
 1553 -33 1553 -33 1414.5 -33 c 128,-1,36
 1276 -33 1276 -33 1197 44 c 128,-1,37
 1118 121 1118 121 1118 238 c 0,38,39
 1118 319 1118 319 1157.5 400 c 128,-1,40
 1197 481 1197 481 1265 540 c 0,41,42
 1397 655 1397 655 1552.5 654.5 c 128,-1,43
 1708 654 1708 654 1790 530 c 0,30,31
1643 473.5 m 128,-1,45
 1596 520 1596 520 1534 520 c 0,46,47
 1392 520 1392 520 1311 410 c 0,48,49
 1261 342 1261 342 1261 271 c 0,50,51
 1261 185 1261 185 1314.5 143.5 c 128,-1,52
 1368 102 1368 102 1429 102 c 0,53,54
 1529 102 1529 102 1609.5 178.5 c 128,-1,55
 1690 255 1690 255 1690 341 c 128,-1,44
 1690 427 1690 427 1643 473.5 c 128,-1,45
EndSplineSet
EndChar

StartChar: ampersand
Encoding: 38 38 6
Width: 1366
GlyphClass: 2
Flags: W
HStem: -47 157.5<426.907 737.883> 1309 143<758.423 998.81>
VStem: 170 180<184.546 463.792> 506 170<966.114 1221.28> 1034 170<1045.55 1275.44> 1157 162<561.871 684>
LayerCount: 2
Fore
SplineSet
1157 684 m 1,0,-1
 1319 684 l 1,1,2
 1276 485 1276 485 1114 309 c 1,3,-1
 1298 0 l 1,4,-1
 1081 0 l 1,5,-1
 987 160 l 1,6,7
 847 43 847 43 744.5 -2 c 128,-1,8
 642 -47 642 -47 535 -47 c 0,9,10
 314 -47 314 -47 225 76 c 0,11,12
 170 153 170 153 170 270.5 c 128,-1,13
 170 388 170 388 225 484.5 c 128,-1,14
 280 581 280 581 358.5 647.5 c 128,-1,15
 437 714 437 714 590 799 c 1,16,17
 576 834 576 834 541 916.5 c 128,-1,18
 506 999 506 999 506 1057 c 0,19,20
 506 1240 506 1240 666 1362 c 0,21,22
 783 1452 783 1452 931 1452 c 0,23,24
 1094 1452 1094 1452 1164 1346 c 0,25,26
 1204 1286 1204 1286 1204 1226 c 0,27,28
 1204 1048 1204 1048 1085 932 c 0,29,30
 1000 850 1000 850 834 774 c 1,31,-1
 1034 440 l 1,32,33
 1124 546 1124 546 1157 684 c 1,0,-1
772 889 m 1,34,35
 911 957 911 957 972.5 1024.5 c 128,-1,36
 1034 1092 1034 1092 1034 1165 c 128,-1,37
 1034 1238 1034 1238 996.5 1273.5 c 128,-1,38
 959 1309 959 1309 894 1309 c 0,39,40
 791 1309 791 1309 733.5 1240 c 128,-1,41
 676 1171 676 1171 676 1092 c 0,42,43
 676 1049 676 1049 693 1013.5 c 128,-1,44
 710 978 710 978 772 889 c 1,34,35
674 688 m 1,45,46
 500 595 500 595 425 510.5 c 128,-1,47
 350 426 350 426 350 325 c 0,48,49
 350 212 350 212 426 154 c 0,50,51
 484 110 484 110 567 110.5 c 128,-1,52
 650 111 650 111 728 149.5 c 128,-1,53
 806 188 806 188 918 281 c 1,54,-1
 674 688 l 1,45,46
EndSplineSet
EndChar

StartChar: quotesingle
Encoding: 39 39 7
Width: 391
GlyphClass: 2
Flags: W
HStem: 950 502<405 436>
VStem: 405 193<1259 1452>
LayerCount: 2
Fore
SplineSet
405 1452 m 1,0,-1
 598 1452 l 1,1,-1
 550 1225 l 1,2,-1
 436 950 l 1,3,-1
 354 950 l 1,4,-1
 357 1225 l 1,5,-1
 405 1452 l 1,0,-1
EndSplineSet
EndChar

StartChar: parenleft
Encoding: 40 40 8
Width: 682
GlyphClass: 2
Flags: W
HStem: 1473 20G<652 913>
VStem: 231 160<-132.249 554.235>
LayerCount: 2
Fore
SplineSet
800 1493 m 1,0,-1
 913 1493 l 1,1,2
 391 853 391 853 391 163 c 0,3,4
 391 -144 391 -144 503 -434 c 1,5,-1
 391 -434 l 1,6,7
 315 -301 315 -301 273 -123 c 128,-1,8
 231 55 231 55 231 220.5 c 128,-1,9
 231 386 231 386 262 531 c 0,10,11
 313 773 313 773 456 1028 c 128,-1,12
 599 1283 599 1283 800 1493 c 1,0,-1
EndSplineSet
EndChar

StartChar: parenright
Encoding: 41 41 9
Width: 682
GlyphClass: 2
Flags: W
HStem: 1473 20G<396 544.5>
VStem: 508 158<507.669 1194.28>
LayerCount: 2
Fore
SplineSet
508 883 m 0,0,1
 508 1204 508 1204 396 1493 c 1,2,-1
 508 1493 l 1,3,4
 581 1365 581 1365 623.5 1187 c 128,-1,5
 666 1009 666 1009 666 834 c 0,6,7
 666 434 666 434 443 33 c 0,8,9
 298 -226 298 -226 99 -434 c 1,10,-1
 -14 -434 l 1,11,12
 167 -212 167 -212 283 14 c 0,13,14
 508 456 508 456 508 883 c 0,0,1
EndSplineSet
EndChar

StartChar: asterisk
Encoding: 42 42 10
Width: 797
GlyphClass: 2
Flags: W
HStem: 1214 127<904.646 948.032> 1473 20G<649.522 780>
VStem: 653 127<1437.11 1493>
LayerCount: 2
Fore
SplineSet
653 1493 m 1,0,-1
 780 1493 l 1,1,-1
 721 1263 l 1,2,-1
 946 1341 l 1,3,-1
 964 1214 l 1,4,-1
 732 1158 l 1,5,-1
 842 972 l 1,6,-1
 722 897 l 1,7,-1
 632 1094 l 1,8,-1
 466 900 l 1,9,-1
 370 980 l 1,10,-1
 560 1161 l 1,11,-1
 346 1224 l 1,12,-1
 408 1345 l 1,13,-1
 613 1263 l 1,14,-1
 653 1493 l 1,0,-1
EndSplineSet
EndChar

StartChar: plus
Encoding: 43 43 11
Width: 1196
GlyphClass: 2
Flags: W
HStem: 403 147<218 612 786 1180>
VStem: 521 144<-23 121> 732 144<825 969>
LayerCount: 2
Fore
SplineSet
1210 550 m 1,0,-1
 1180 403 l 1,1,-1
 756 403 l 1,2,-1
 665 -23 l 1,3,-1
 521 -23 l 1,4,-1
 612 403 l 1,5,-1
 188 403 l 1,6,-1
 218 550 l 1,7,-1
 642 550 l 1,8,-1
 732 969 l 1,9,-1
 876 969 l 1,10,-1
 786 550 l 1,11,-1
 1210 550 l 1,0,-1
EndSplineSet
EndChar

StartChar: comma
Encoding: 44 44 12
Width: 569
GlyphClass: 2
Flags: W
HStem: -302 78<130 227.237>
VStem: 224 215<-4 211>
LayerCount: 2
Fore
SplineSet
224 211 m 1,0,-1
 439 211 l 1,1,-1
 386 -32 l 2,2,3
 329 -300 329 -300 113 -302 c 1,4,-1
 130 -224 l 1,5,6
 174 -222 174 -222 197.5 -211 c 128,-1,7
 221 -200 221 -200 241.5 -173 c 128,-1,8
 262 -146 262 -146 272.5 -114 c 128,-1,9
 283 -82 283 -82 300 0 c 1,10,-1
 178 0 l 1,11,-1
 224 211 l 1,0,-1
EndSplineSet
EndChar

StartChar: hyphen
Encoding: 45 45 13
Width: 682
GlyphClass: 2
Flags: W
HStem: 492 147<230 688>
VStem: 199 520
LayerCount: 2
Fore
SplineSet
719 639 m 1,0,-1
 688 492 l 1,1,-1
 199 492 l 1,2,-1
 230 639 l 1,3,-1
 719 639 l 1,0,-1
EndSplineSet
EndChar

StartChar: period
Encoding: 46 46 14
Width: 569
GlyphClass: 2
Flags: W
HStem: 0 211<223 391>
VStem: 178 213<0 213> 223 213<-2 211>
LayerCount: 2
Fore
SplineSet
436 211 m 1,0,-1
 391 0 l 1,1,-1
 178 0 l 1,2,-1
 223 211 l 1,3,-1
 436 211 l 1,0,-1
EndSplineSet
EndChar

StartChar: slash
Encoding: 47 47 15
Width: 569
GlyphClass: 2
Flags: W
HStem: 1473 20G<764.57 888>
LayerCount: 2
Fore
SplineSet
775 1493 m 1,0,-1
 888 1493 l 1,1,-1
 88 -41 l 1,2,-1
 -25 -41 l 1,3,-1
 775 1493 l 1,0,-1
EndSplineSet
EndChar

StartChar: zero
Encoding: 48 48 16
Width: 1139
GlyphClass: 2
Flags: W
HStem: -47 158<458.352 736.186> 1323 158<694.062 969.763>
VStem: 202 180<192.989 736.829> 1049 180<704.482 1234.39>
LayerCount: 2
Fore
SplineSet
861 1481 m 0,0,1
 955 1481 955 1481 1032 1445 c 0,2,3
 1229 1355 1229 1355 1229 1078.5 c 128,-1,4
 1229 802 1229 802 1131 500 c 0,5,6
 952 -47 952 -47 564 -47 c 0,7,8
 405 -47 405 -47 303.5 53 c 128,-1,9
 202 153 202 153 202 354 c 0,10,11
 202 631 202 631 301 934 c 0,12,13
 479 1481 479 1481 861 1481 c 0,0,1
837 1323 m 0,14,15
 768 1323 768 1323 712 1291 c 0,16,17
 574 1213 574 1213 495 978 c 0,18,19
 382 642 382 642 382 375 c 0,20,21
 382 307 382 307 402 246 c 0,22,23
 447 111 447 111 587 111 c 0,24,25
 817 111 817 111 936 458 c 0,26,27
 987 606 987 606 1018 770.5 c 128,-1,28
 1049 935 1049 935 1049 1031 c 0,29,30
 1049 1323 1049 1323 837 1323 c 0,14,15
EndSplineSet
EndChar

StartChar: one
Encoding: 49 49 17
Width: 1139
GlyphClass: 2
Flags: W
HStem: 1063 129<459 681.212> 1461 20G<865.5 1026>
VStem: 531 180<1 181> 906 120<1413.64 1481>
LayerCount: 2
Fore
SplineSet
757 1063 m 1,0,-1
 432 1063 l 1,1,-1
 459 1192 l 1,2,3
 680 1221 680 1221 752.5 1268 c 128,-1,4
 825 1315 825 1315 906 1481 c 1,5,-1
 1026 1481 l 1,6,-1
 711 1 l 1,7,-1
 531 1 l 1,8,-1
 757 1063 l 1,0,-1
EndSplineSet
EndChar

StartChar: two
Encoding: 50 50 18
Width: 1139
GlyphClass: 2
Flags: W
HStem: 1 178<301 1035> 1323 158<684.807 1010.47>
VStem: 305 181<968 1099.59> 1095 180<946.19 1237.31>
LayerCount: 2
Fore
SplineSet
1074 179 m 1,0,-1
 1035 1 l 1,1,-1
 70 1 l 1,2,3
 117 158 117 158 146 225 c 128,-1,4
 175 292 175 292 220 349 c 0,5,6
 343 503 343 503 611 640 c 2,7,-1
 824 749 l 2,8,9
 954 815 954 815 1024.5 906.5 c 128,-1,10
 1095 998 1095 998 1095 1093 c 128,-1,11
 1095 1188 1095 1188 1037 1255.5 c 0,12,13
 978 1323 978 1323 874 1323 c 0,14,15
 672 1323 672 1323 572 1177 c 0,16,17
 520 1101 520 1101 486 968 c 1,18,-1
 305 968 l 1,19,20
 353 1177 353 1177 443 1290 c 0,21,22
 594 1481 594 1481 884 1481 c 0,23,24
 1138 1481 1138 1481 1232 1302 c 0,25,26
 1275 1221 1275 1221 1275 1125 c 0,27,28
 1275 813 1275 813 867 601 c 2,29,-1
 637 482 l 2,30,31
 349 332 349 332 301 179 c 1,32,-1
 1074 179 l 1,0,-1
EndSplineSet
EndChar

StartChar: three
Encoding: 51 51 19
Width: 1139
GlyphClass: 2
Flags: W
HStem: -47 158<408.564 766.074> 680 154<630 883.987> 1323 158<659.036 987.629>
VStem: 147 180<187.231 430> 310 180<1004 1138.06> 959 180<306.344 612.628> 1052 180<967.635 1262.44>
LayerCount: 2
Fore
SplineSet
597 680 m 1,0,-1
 630 834 l 1,1,-1
 667 834 l 2,2,3
 896 834 896 834 982 933 c 0,4,5
 1052 1013 1052 1013 1052 1142 c 0,6,7
 1052 1227 1052 1227 994 1275 c 128,-1,8
 936 1323 936 1323 854 1323 c 0,9,10
 662 1323 662 1323 573 1206 c 0,11,12
 520 1137 520 1137 490 1004 c 1,13,-1
 310 1004 l 1,14,15
 365 1211 365 1211 446 1304 c 0,16,17
 600 1481 600 1481 861 1481 c 0,18,19
 1078 1480 1078 1480 1175 1352 c 0,20,21
 1232 1276 1232 1276 1232 1158 c 0,22,23
 1232 911 1232 911 980 766 c 1,24,25
 1041 736 1041 736 1070 707 c 0,26,27
 1139 639 1139 639 1139 529.5 c 128,-1,28
 1139 420 1139 420 1098 315 c 128,-1,29
 1057 210 1057 210 987 133 c 0,30,31
 824 -47 824 -47 540 -47 c 0,32,33
 311 -47 311 -47 212 80 c 0,34,35
 147 163 147 163 147 300 c 0,36,37
 147 348 147 348 158 430 c 1,38,-1
 338 430 l 1,39,40
 327 360 327 360 327 334 c 0,41,42
 327 216 327 216 396.5 163.5 c 128,-1,43
 466 111 466 111 568 111 c 0,44,45
 772 111 772 111 879 250 c 0,46,47
 959 353 959 353 959 495 c 0,48,49
 959 592 959 592 883 638 c 128,-1,50
 807 684 807 684 689 684 c 0,51,52
 637 684 637 684 597 680 c 1,0,-1
EndSplineSet
EndChar

StartChar: four
Encoding: 52 52 20
Width: 1139
GlyphClass: 2
Flags: W
HStem: 358 160<327 744 958 1141> 1461 20G<1010.65 1162>
VStem: 668 180<0 180>
LayerCount: 2
Fore
SplineSet
744 358 m 1,0,-1
 131 358 l 1,1,-1
 172 547 l 1,2,-1
 1029 1481 l 1,3,-1
 1162 1481 l 1,4,-1
 958 518 l 1,5,-1
 1175 518 l 1,6,-1
 1141 358 l 1,7,-1
 924 358 l 1,8,-1
 848 0 l 1,9,-1
 668 0 l 1,10,-1
 744 358 l 1,0,-1
778 518 m 1,11,-1
 916 1167 l 1,12,-1
 327 518 l 1,13,-1
 778 518 l 1,11,-1
EndSplineSet
EndChar

StartChar: five
Encoding: 53 53 21
Width: 1139
GlyphClass: 2
Flags: W
HStem: -47 158<414.463 768.099> 799 158<578.015 889.783> 1274 178<637 1251>
VStem: 143 180<202.912 356> 981 180<359.876 709.992>
LayerCount: 2
Fore
SplineSet
1288 1452 m 1,0,-1
 1251 1274 l 1,1,-1
 637 1274 l 1,2,-1
 493 869 l 1,3,4
 639 957 639 957 780 957 c 0,5,6
 876 957 876 957 965 921.5 c 128,-1,7
 1054 886 1054 886 1107.5 801.5 c 128,-1,8
 1161 717 1161 717 1161 604 c 0,9,10
 1161 374 1161 374 1020 189 c 0,11,12
 839 -47 839 -47 554 -47 c 0,13,14
 361 -47 361 -47 243 53 c 0,15,16
 143 139 143 139 143 311 c 2,17,-1
 143 356 l 1,18,-1
 323 356 l 1,19,20
 334 111 334 111 580 111 c 0,21,22
 653 111 653 111 713 132 c 0,23,24
 855 180 855 180 927 323 c 0,25,26
 981 429 981 429 981 563 c 128,-1,27
 981 697 981 697 885 758 c 0,28,29
 819 799 819 799 726 799 c 128,-1,30
 633 799 633 799 573 772 c 128,-1,31
 513 745 513 745 417 662 c 1,32,-1
 254 662 l 1,33,-1
 530 1452 l 1,34,-1
 1288 1452 l 1,0,-1
EndSplineSet
EndChar

StartChar: six
Encoding: 54 54 22
Width: 1139
GlyphClass: 2
Flags: W
HStem: -47 158<469.847 774.865> 765 158<605.444 894.342> 1096 21G<1072 1255> 1323 158<712.184 1005.79>
VStem: 192 180<206.335 552.257> 981 180<348.544 680.104>
LayerCount: 2
Fore
SplineSet
1254 1096 m 1,0,-1
 1074 1096 l 1,1,2
 1070 1161 1070 1161 1056 1208.5 c 128,-1,3
 1042 1256 1042 1256 990.5 1289.5 c 128,-1,4
 939 1323 939 1323 869 1323 c 0,5,6
 676 1323 676 1323 545 1088 c 0,7,8
 465 945 465 945 430 745 c 1,9,10
 600 923 600 923 791.5 923 c 128,-1,11
 983 923 983 923 1082 804 c 0,12,13
 1161 710 1161 710 1161 567 c 0,14,15
 1161 473 1161 473 1124 368.5 c 128,-1,16
 1087 264 1087 264 1023 180 c 0,17,18
 851 -47 851 -47 586 -47 c 0,19,20
 395 -47 395 -47 293.5 63 c 128,-1,21
 192 173 192 173 192 347 c 0,22,23
 192 582 192 582 286 885 c 128,-1,24
 380 1188 380 1188 542.5 1334.5 c 128,-1,25
 705 1481 705 1481 897 1481 c 0,26,27
 964 1481 964 1481 1028 1462 c 0,28,29
 1256 1395 1256 1395 1256 1153 c 0,30,31
 1256 1132 1256 1132 1254 1096 c 1,0,-1
871 736 m 128,-1,33
 816 765 816 765 746 765 c 128,-1,34
 676 765 676 765 609 735 c 0,35,36
 497 686 497 686 434.5 587 c 128,-1,37
 372 488 372 488 372 360 c 0,38,39
 372 230 372 230 459 163 c 0,40,41
 525 111 525 111 605.5 111 c 128,-1,42
 686 111 686 111 753 143 c 0,43,44
 871 199 871 199 926 313 c 128,-1,45
 981 427 981 427 981 515.5 c 128,-1,46
 981 604 981 604 953.5 655.5 c 128,-1,32
 926 707 926 707 871 736 c 128,-1,33
EndSplineSet
EndChar

StartChar: seven
Encoding: 55 55 23
Width: 1139
GlyphClass: 2
Flags: W
HStem: 1274 178<402 1147>
LayerCount: 2
Fore
SplineSet
1375 1452 m 1,0,-1
 1340 1286 l 1,1,2
 1071 1011 1071 1011 869 715 c 0,3,4
 600 322 600 322 482 0 c 1,5,-1
 281 0 l 1,6,7
 380 218 380 218 442 332 c 0,8,9
 652 719 652 719 1147 1274 c 1,10,-1
 363 1274 l 1,11,-1
 402 1452 l 1,12,-1
 1375 1452 l 1,0,-1
EndSplineSet
EndChar

StartChar: eight
Encoding: 56 56 24
Width: 1139
GlyphClass: 2
Flags: W
HStem: -47 158<426.259 772.181> 699 152<590.062 873.519> 1323 158<666.683 997.534>
VStem: 153 180<198.342 505.467> 350 180<907.775 1184.86> 969 180<301.751 611.4> 1062 180<991.986 1261.59>
LayerCount: 2
Fore
SplineSet
153 301 m 0,0,1
 153 629 153 629 482 779 c 1,2,3
 409 829 409 829 379.5 878 c 128,-1,4
 350 927 350 927 350 999 c 0,5,6
 350 1187 350 1187 480 1323 c 0,7,8
 631 1481 631 1481 873 1481 c 0,9,10
 1111 1481 1111 1481 1202 1322 c 0,11,12
 1242 1252 1242 1252 1242 1169.5 c 128,-1,13
 1242 1087 1242 1087 1206.5 1005.5 c 128,-1,14
 1171 924 1171 924 1116 874 c 128,-1,15
 1061 824 1061 824 977 779 c 1,16,17
 1149 688 1149 688 1149 499.5 c 128,-1,18
 1149 311 1149 311 1009 152 c 0,19,20
 835 -47 835 -47 575 -47 c 0,21,22
 417 -47 417 -47 304 22 c 0,23,24
 153 114 153 114 153 301 c 0,0,1
1003.5 1275 m 128,-1,26
 945 1323 945 1323 864 1323 c 128,-1,27
 783 1323 783 1323 733 1308 c 0,28,29
 642 1281 642 1281 586 1203 c 128,-1,30
 530 1125 530 1125 530 1023 c 0,31,32
 530 934 530 934 594 892.5 c 128,-1,33
 658 851 658 851 733 851 c 128,-1,34
 808 851 808 851 858 866 c 0,35,36
 959 896 959 896 1017 991 c 0,37,38
 1062 1064 1062 1064 1062 1145.5 c 128,-1,25
 1062 1227 1062 1227 1003.5 1275 c 128,-1,26
708 699 m 128,-1,40
 646 699 646 699 584 678 c 0,41,42
 451 633 451 633 386 522 c 0,43,44
 333 432 333 432 333 331 c 0,45,46
 332 220 332 220 420 159 c 0,47,48
 488 111 488 111 574 111 c 0,49,50
 788 111 788 111 899 262 c 0,51,52
 969 358 969 358 969 462.5 c 128,-1,53
 969 567 969 567 926.5 611.5 c 128,-1,54
 884 656 884 656 827 677.5 c 128,-1,39
 770 699 770 699 708 699 c 128,-1,40
EndSplineSet
EndChar

StartChar: nine
Encoding: 57 57 25
Width: 1139
GlyphClass: 2
Flags: W
HStem: -47 158<420.862 709.122> 519 158<525.087 827.006> 1323 158<642.719 951.581>
VStem: 171 180<183.841 338> 263 180<756.97 1101.35> 1051 180<889.719 1223.44>
LayerCount: 2
Fore
SplineSet
808 1323 m 0,0,1
 734 1323 734 1323 668 1292 c 0,2,3
 553 1237 553 1237 498 1125 c 128,-1,4
 443 1013 443 1013 443 924.5 c 128,-1,5
 443 836 443 836 468.5 786 c 128,-1,6
 494 736 494 736 550 706.5 c 128,-1,7
 606 677 606 677 683.5 677 c 128,-1,8
 761 677 761 677 842.5 720 c 128,-1,9
 924 763 924 763 976 837 c 0,10,11
 1051 942 1051 942 1051 1080 c 0,12,13
 1051 1162 1051 1162 1008 1223 c 0,14,15
 937 1323 937 1323 808 1323 c 0,0,1
173 338 m 1,16,-1
 351 338 l 1,17,-1
 351 319 l 2,18,19
 352 200 352 200 436 144 c 0,20,21
 486 112 486 112 553 111 c 0,22,23
 746 111 746 111 874 344 c 0,24,25
 941 466 941 466 989 683 c 1,26,27
 909 614 909 614 875 591 c 0,28,29
 769 519 769 519 624 519 c 0,30,31
 545 519 545 519 458 551.5 c 128,-1,32
 371 584 371 584 317 667.5 c 128,-1,33
 263 751 263 751 263 872 c 0,34,35
 263 1091 263 1091 388 1258 c 0,36,37
 474 1372 474 1372 590.5 1426.5 c 128,-1,38
 707 1481 707 1481 832 1481 c 0,39,40
 1028 1481 1028 1481 1133 1365 c 0,41,42
 1231 1258 1231 1258 1231 1099 c 0,43,44
 1231 888 1231 888 1144 557 c 0,45,46
 1103 401 1103 401 1056 316 c 0,47,48
 955 129 955 129 811.5 41 c 128,-1,49
 668 -47 668 -47 528 -47 c 0,50,51
 462 -47 462 -47 399 -28 c 0,52,53
 171 40 171 40 171 281 c 0,54,55
 171 300 171 300 173 338 c 1,16,-1
EndSplineSet
EndChar

StartChar: colon
Encoding: 58 58 26
Width: 569
GlyphClass: 2
Flags: W
HStem: 0 211<270 438> 862 211<454 622>
VStem: 225 213<0 213> 270 213<-2 211> 409 213<862 1075> 454 213<860 1073>
LayerCount: 2
Fore
SplineSet
483 211 m 1,0,-1
 438 0 l 1,1,-1
 225 0 l 1,2,-1
 270 211 l 1,3,-1
 483 211 l 1,0,-1
667 1073 m 1,4,-1
 622 862 l 1,5,-1
 409 862 l 1,6,-1
 454 1073 l 1,7,-1
 667 1073 l 1,4,-1
EndSplineSet
EndChar

StartChar: semicolon
Encoding: 59 59 27
Width: 569
GlyphClass: 2
Flags: W
HStem: -302 78<177 274.237> 862 211<453 621>
VStem: 271 215<-4 211> 408 213<862 1075> 453 213<860 1073>
LayerCount: 2
Fore
SplineSet
666 1073 m 1,0,-1
 621 862 l 1,1,-1
 408 862 l 1,2,-1
 453 1073 l 1,3,-1
 666 1073 l 1,0,-1
271 211 m 1,4,-1
 486 211 l 1,5,-1
 433 -32 l 2,6,7
 376 -300 376 -300 160 -302 c 1,8,-1
 177 -224 l 1,9,10
 221 -222 221 -222 244.5 -211 c 128,-1,11
 268 -200 268 -200 288.5 -173 c 128,-1,12
 309 -146 309 -146 319.5 -114 c 128,-1,13
 330 -82 330 -82 347 0 c 1,14,-1
 225 0 l 1,15,-1
 271 211 l 1,4,-1
EndSplineSet
EndChar

StartChar: less
Encoding: 60 60 28
Width: 1196
GlyphClass: 2
Flags: W
LayerCount: 2
Fore
SplineSet
178 406 m 1,0,-1
 208 547 l 1,1,-1
 1300 971 l 1,2,-1
 1266 808 l 1,3,-1
 401 474 l 1,4,-1
 1125 139 l 1,5,-1
 1090 -18 l 1,6,-1
 178 406 l 1,0,-1
EndSplineSet
EndChar

StartChar: equal
Encoding: 61 61 29
Width: 1196
GlyphClass: 2
Flags: W
HStem: 227 147<183 1142> 580 147<257 1217>
LayerCount: 2
Fore
SplineSet
1248 727 m 1,0,-1
 1217 580 l 1,1,-1
 227 580 l 1,2,-1
 257 727 l 1,3,-1
 1248 727 l 1,0,-1
1173 374 m 1,4,-1
 1142 227 l 1,5,-1
 152 227 l 1,6,-1
 183 374 l 1,7,-1
 1173 374 l 1,4,-1
EndSplineSet
EndChar

StartChar: greater
Encoding: 62 62 30
Width: 1196
GlyphClass: 2
Flags: W
LayerCount: 2
Fore
SplineSet
1220 546 m 1,0,-1
 1190 406 l 1,1,-1
 98 -18 l 1,2,-1
 133 144 l 1,3,-1
 997 479 l 1,4,-1
 274 814 l 1,5,-1
 308 971 l 1,6,-1
 1220 546 l 1,0,-1
EndSplineSet
EndChar

StartChar: question
Encoding: 63 63 31
Width: 1139
GlyphClass: 2
Flags: W
HStem: 0 211<535 674> 1360 158<704.511 1025.99>
VStem: 377 174<1038 1176.28> 490 184<0 184> 535 184<27 211> 1093 197<1029.16 1297.07>
LayerCount: 2
Fore
SplineSet
761 408 m 1,0,-1
 576 408 l 1,1,-1
 600 520 l 2,2,3
 620 612 620 612 665 666 c 128,-1,4
 710 720 710 720 859.5 839.5 c 128,-1,5
 1009 959 1009 959 1051 1033.5 c 128,-1,6
 1093 1108 1093 1108 1093 1184 c 0,7,8
 1093 1275 1093 1275 1013 1325 c 0,9,10
 957 1360 957 1360 875 1360 c 0,11,12
 739 1360 739 1360 662 1283.5 c 128,-1,13
 585 1207 585 1207 551 1038 c 1,14,-1
 377 1038 l 1,15,16
 474 1518 474 1518 920 1518 c 0,17,18
 1121 1518 1121 1518 1216 1405 c 0,19,20
 1290 1319 1290 1319 1290 1215.5 c 128,-1,21
 1290 1112 1290 1112 1243 1024 c 0,22,23
 1175 896 1175 896 993 758 c 0,24,25
 876 668 876 668 836 620.5 c 128,-1,26
 796 573 796 573 781 504 c 2,27,-1
 761 408 l 1,0,-1
719 211 m 1,28,-1
 674 0 l 1,29,-1
 490 0 l 1,30,-1
 535 211 l 1,31,-1
 719 211 l 1,28,-1
EndSplineSet
EndChar

StartChar: at
Encoding: 64 64 32
Width: 2079
GlyphClass: 2
Flags: W
HStem: -291 158<692.662 1279.37> 117 143<914 1065.56 1400.93 1622.47> 932 141<1103.37 1370.9> 1360 158<1083.16 1607.97>
VStem: 164 180<184.133 652.444> 634.5 188.5<312.782 608.612> 1952 170<633.565 1048.91>
LayerCount: 2
Fore
SplineSet
1397 798 m 0,0,1
 1397 932 1397 932 1259 932 c 0,2,3
 1211 932 1211 932 1169 918 c 0,4,5
 1022 866 1022 866 922.5 710 c 128,-1,6
 823 554 823 554 823 430 c 0,7,8
 823 368 823 368 860.5 311 c 128,-1,9
 898 254 898 254 979 254 c 0,10,11
 1120 254 1120 254 1245 431 c 0,12,13
 1312 525 1312 525 1354.5 628.5 c 128,-1,14
 1397 732 1397 732 1397 798 c 0,0,1
1281 1073 m 0,15,16
 1467 1073 1467 1073 1505 891 c 1,17,-1
 1579 1026 l 1,18,-1
 1747 1026 l 1,19,-1
 1442 453 l 2,20,21
 1393 360 1393 360 1393 343.5 c 128,-1,22
 1393 327 1393 327 1395 319 c 0,23,24
 1411 260 1411 260 1478.5 260 c 128,-1,25
 1546 260 1546 260 1624 303 c 0,26,27
 1795 398 1795 398 1889 591 c 0,28,29
 1952 721 1952 721 1952 849 c 0,30,31
 1952 911 1952 911 1936 972 c 0,32,33
 1883 1170 1883 1170 1702 1272 c 0,34,35
 1547 1360 1547 1360 1376.5 1360 c 128,-1,36
 1206 1360 1206 1360 1056 1307 c 0,37,38
 820 1224 820 1224 636.5 1040 c 128,-1,39
 453 856 453 856 383 640 c 0,40,41
 344 521 344 521 344 431.5 c 128,-1,42
 344 342 344 342 354 291 c 0,43,44
 398 76 398 76 596 -42 c 0,45,46
 751 -133 751 -133 947.5 -133 c 128,-1,47
 1144 -133 1144 -133 1391 -68 c 1,48,-1
 1417 -205 l 1,49,50
 1178 -291 1178 -291 916 -291 c 0,51,52
 748 -291 748 -291 587.5 -226.5 c 128,-1,53
 427 -162 427 -162 314 -35 c 0,54,55
 164 132 164 132 164 359.5 c 128,-1,56
 164 587 164 587 266 799 c 0,57,58
 445 1171 445 1171 792 1361 c 0,59,60
 1080 1518 1080 1518 1395 1518 c 0,61,62
 1642 1518 1642 1518 1833 1400 c 0,63,64
 1973 1313 1973 1313 2047.5 1182 c 128,-1,65
 2122 1051 2122 1051 2122 895.5 c 128,-1,66
 2122 740 2122 740 2065 581 c 128,-1,67
 2008 422 2008 422 1897 322 c 0,68,69
 1669 117 1669 117 1426 117 c 0,70,71
 1324 117 1324 117 1276 150 c 0,72,73
 1255 164 1255 164 1239 193 c 128,-1,74
 1223 222 1223 222 1223 246 c 2,75,-1
 1223 274 l 1,76,77
 1202 258 1202 258 1157 221 c 0,78,79
 1043 127 1043 127 914 127 c 1,80,81
 914 -6 914 -6 710 205 c 0,82,83
 634 283 634 283 634.5 401.5 c 128,-1,84
 635 520 635 520 688 633.5 c 128,-1,85
 741 747 741 747 826.5 840.5 c 128,-1,86
 912 934 912 934 1032 1003.5 c 128,-1,87
 1152 1073 1152 1073 1281 1073 c 0,15,16
EndSplineSet
EndChar

StartChar: A
Encoding: 65 65 33
Width: 1366
GlyphClass: 2
Flags: W
HStem: 449 160<580 1053> 1473 20G<873.614 1133.77>
VStem: 1129 209<0 209>
LayerCount: 2
Fore
SplineSet
1073 449 m 1,0,-1
 490 449 l 1,1,-1
 238 0 l 1,2,-1
 35 0 l 1,3,-1
 885 1493 l 1,4,-1
 1131 1493 l 1,5,-1
 1338 0 l 1,6,-1
 1129 0 l 1,7,-1
 1073 449 l 1,0,-1
1053 609 m 1,8,-1
 971 1290 l 1,9,-1
 580 609 l 1,10,-1
 1053 609 l 1,8,-1
EndSplineSet
EndChar

StartChar: B
Encoding: 66 66 34
Width: 1366
GlyphClass: 2
Flags: W
HStem: 0 168<390 1024> 682 168<535 1118.62> 1325 168<636 1199.89>
VStem: 1179 197<323.16 624.169> 1259 197<999.571 1268.4>
LayerCount: 2
Fore
SplineSet
162 0 m 1,0,-1
 479 1493 l 1,1,-1
 1086 1493 l 2,2,3
 1191 1493 1191 1493 1260.5 1468.5 c 128,-1,4
 1330 1444 1330 1444 1382 1389 c 0,5,6
 1456 1310 1456 1310 1456 1197 c 0,7,8
 1456 1034 1456 1034 1357 918 c 0,9,10
 1287 836 1287 836 1178 786 c 1,11,12
 1266 748 1266 748 1321 691.5 c 128,-1,13
 1376 635 1376 635 1376 528 c 0,14,15
 1376 327 1376 327 1243 177 c 0,16,17
 1085 0 1085 0 838 0 c 2,18,-1
 162 0 l 1,0,-1
535 850 m 1,19,-1
 903 850 l 2,20,21
 1095 850 1095 850 1177 939.5 c 128,-1,22
 1259 1029 1259 1029 1259 1134.5 c 128,-1,23
 1259 1240 1259 1240 1198 1282.5 c 128,-1,24
 1137 1325 1137 1325 1006 1325 c 2,25,-1
 636 1325 l 1,26,-1
 535 850 l 1,19,-1
390 168 m 1,27,-1
 854 168 l 2,28,29
 1019 168 1019 168 1109 285 c 0,30,31
 1179 377 1179 377 1179 482 c 128,-1,32
 1179 587 1179 587 1124 634.5 c 128,-1,33
 1069 682 1069 682 963 682 c 2,34,-1
 500 682 l 1,35,-1
 390 168 l 1,27,-1
EndSplineSet
EndChar

StartChar: C
Encoding: 67 67 35
Width: 1479
GlyphClass: 2
Flags: W
HStem: -47 166<612.216 992.806> 1352 166<847.059 1245.27>
VStem: 229 197<311.016 804.153> 1380 197<1030 1206.43>
LayerCount: 2
Fore
SplineSet
1577 1030 m 1,0,-1
 1380 1030 l 1,1,2
 1370 1172 1370 1172 1307 1254 c 0,3,4
 1232 1352 1232 1352 1055 1352 c 0,5,6
 776 1352 776 1352 593 1079 c 0,7,8
 514 962 514 962 470 817.5 c 128,-1,9
 426 673 426 673 426 533 c 0,10,11
 426 265 426 265 608 164 c 0,12,13
 689 119 689 119 795 119 c 128,-1,14
 901 119 901 119 1010 172 c 128,-1,15
 1119 225 1119 225 1184 317 c 0,16,17
 1234 385 1234 385 1304 545 c 1,18,-1
 1505 545 l 1,19,20
 1405 306 1405 306 1290 179 c 0,21,22
 1085 -47 1085 -47 752 -47 c 0,23,24
 420 -47 420 -47 290 215 c 0,25,26
 229 339 229 339 229 473.5 c 128,-1,27
 229 608 229 608 254 723 c 0,28,29
 335 1103 335 1103 591 1334 c 0,30,31
 797 1518 797 1518 1089 1518 c 0,32,33
 1358 1518 1358 1518 1490 1331 c 0,34,35
 1566 1223 1566 1223 1577 1030 c 1,0,-1
EndSplineSet
EndChar

StartChar: D
Encoding: 68 68 36
Width: 1479
GlyphClass: 2
Flags: W
HStem: 0 168<410 979.902> 1325 168<656 1203.04>
VStem: 1357 197<681.338 1172.31>
LayerCount: 2
Fore
SplineSet
182 0 m 1,0,-1
 499 1493 l 1,1,-1
 1077 1493 l 2,2,3
 1410 1493 1410 1493 1519 1197 c 0,4,5
 1554 1102 1554 1102 1554 999 c 0,6,7
 1554 792 1554 792 1473 564 c 0,8,9
 1365 259 1365 259 1133 108 c 0,10,11
 967 0 967 0 760 0 c 2,12,-1
 182 0 l 1,0,-1
410 168 m 1,13,-1
 762 168 l 2,14,15
 1048 168 1048 168 1209 419 c 0,16,17
 1272 516 1272 516 1314.5 679 c 128,-1,18
 1357 842 1357 842 1357 966 c 0,19,20
 1357 1215 1357 1215 1183 1290 c 0,21,22
 1103 1325 1103 1325 1007 1325 c 2,23,-1
 656 1325 l 1,24,-1
 410 168 l 1,13,-1
EndSplineSet
EndChar

StartChar: E
Encoding: 69 69 37
Width: 1366
GlyphClass: 2
Flags: W
HStem: 0 168<412 1255> 680 168<557 1331> 1325 168<658 1503>
LayerCount: 2
Fore
SplineSet
521 680 m 1,0,-1
 412 168 l 1,1,-1
 1290 168 l 1,2,-1
 1255 0 l 1,3,-1
 184 0 l 1,4,-1
 501 1493 l 1,5,-1
 1538 1493 l 1,6,-1
 1503 1325 l 1,7,-1
 658 1325 l 1,8,-1
 557 848 l 1,9,-1
 1368 848 l 1,10,-1
 1331 680 l 1,11,-1
 521 680 l 1,0,-1
EndSplineSet
EndChar

StartChar: F
Encoding: 70 70 38
Width: 1251
GlyphClass: 2
Flags: W
HStem: 680 168<557 1233> 1325 168<658 1468>
VStem: 184 193<0 193>
LayerCount: 2
Fore
SplineSet
521 680 m 1,0,-1
 377 0 l 1,1,-1
 184 0 l 1,2,-1
 501 1493 l 1,3,-1
 1503 1493 l 1,4,-1
 1468 1325 l 1,5,-1
 658 1325 l 1,6,-1
 557 848 l 1,7,-1
 1267 848 l 1,8,-1
 1233 680 l 1,9,-1
 521 680 l 1,0,-1
EndSplineSet
EndChar

StartChar: G
Encoding: 71 71 39
Width: 1593
GlyphClass: 2
Flags: W
HStem: -47 166<628.736 1035.99> 620 168<1001 1419> 1352 166<861.433 1306.45>
VStem: 223 197<325.885 824.712> 1333 121<-8 59.5234> 1470 187<1040 1201.76>
LayerCount: 2
Fore
SplineSet
1623 788 m 1,0,-1
 1454 -8 l 1,1,-1
 1333 -8 l 1,2,-1
 1325 176 l 1,3,4
 1222 90 1222 90 1159 53 c 0,5,6
 985 -47 985 -47 769.5 -47 c 128,-1,7
 554 -47 554 -47 407 73 c 0,8,9
 312 150 312 150 267.5 277 c 128,-1,10
 223 404 223 404 223 535 c 0,11,12
 223 766 223 766 332 986 c 0,13,14
 486 1297 486 1297 749 1431 c 0,15,16
 922 1518 922 1518 1147.5 1518 c 128,-1,17
 1373 1518 1373 1518 1515 1400.5 c 128,-1,18
 1657 1283 1657 1283 1657 1075 c 2,19,-1
 1657 1040 l 1,20,-1
 1470 1040 l 1,21,22
 1467 1169 1467 1169 1394 1244 c 0,23,24
 1290 1352 1290 1352 1099 1352 c 0,25,26
 792 1352 792 1352 601 1102 c 0,27,28
 501 971 501 971 460.5 823 c 128,-1,29
 420 675 420 675 420 567 c 0,30,31
 420 240 420 240 649 154 c 0,32,33
 740 119 740 119 843 119 c 0,34,35
 1050 119 1050 119 1207 247 c 128,-1,36
 1364 375 1364 375 1407 567 c 2,37,-1
 1419 620 l 1,38,-1
 964 620 l 1,39,-1
 1001 788 l 1,40,-1
 1623 788 l 1,0,-1
EndSplineSet
EndChar

StartChar: H
Encoding: 72 72 40
Width: 1479
GlyphClass: 2
Flags: W
HStem: 680 168<543 1271> 1473 20G<482.754 680 1439.75 1636>
VStem: 170 193<0 193> 487 193<1300 1493> 1127 192<0 192> 1444 192<1301 1493>
LayerCount: 2
Fore
SplineSet
1271 680 m 1,0,-1
 507 680 l 1,1,-1
 363 0 l 1,2,-1
 170 0 l 1,3,-1
 487 1493 l 1,4,-1
 680 1493 l 1,5,-1
 543 848 l 1,6,-1
 1307 848 l 1,7,-1
 1444 1493 l 1,8,-1
 1636 1493 l 1,9,-1
 1319 0 l 1,10,-1
 1127 0 l 1,11,-1
 1271 680 l 1,0,-1
EndSplineSet
EndChar

StartChar: I
Encoding: 73 73 41
Width: 569
GlyphClass: 2
Flags: W
HStem: 1473 20G<517.754 715>
VStem: 205 193<0 193> 522 193<1300 1493>
LayerCount: 2
Fore
SplineSet
715 1493 m 1,0,-1
 398 0 l 1,1,-1
 205 0 l 1,2,-1
 522 1493 l 1,3,-1
 715 1493 l 1,0,-1
EndSplineSet
EndChar

StartChar: J
Encoding: 74 74 42
Width: 1024
GlyphClass: 2
Flags: W
HStem: -47 166<340.193 627.052> 1473 20G<992.756 1190>
VStem: 96 197<166.589 394.95> 997 193<1300 1493>
LayerCount: 2
Fore
SplineSet
997 1493 m 1,0,-1
 1190 1493 l 1,1,-1
 952 372 l 2,2,3
 910 176 910 176 775.5 64.5 c 128,-1,4
 641 -47 641 -47 435 -47 c 0,5,6
 353 -47 353 -47 286 -25 c 128,-1,7
 219 -3 219 -3 157.5 71 c 128,-1,8
 96 145 96 145 96 249 c 0,9,10
 96 294 96 294 108 348 c 2,11,-1
 136 479 l 1,12,-1
 329 479 l 1,13,-1
 300 344 l 2,14,15
 293 310 293 310 293 262 c 128,-1,16
 293 214 293 214 337 166.5 c 0,17,18
 380 119 380 119 490 119 c 0,19,20
 705 119 705 119 774 442 c 2,21,-1
 997 1493 l 1,0,-1
EndSplineSet
EndChar

StartChar: K
Encoding: 75 75 43
Width: 1366
GlyphClass: 2
Flags: W
HStem: 1473 20G<474.754 672 1395.18 1665>
VStem: 162 193<0 193> 479 193<1300 1493>
LayerCount: 2
Fore
SplineSet
463 510 m 1,0,-1
 355 0 l 1,1,-1
 162 0 l 1,2,-1
 479 1493 l 1,3,-1
 672 1493 l 1,4,-1
 509 729 l 1,5,-1
 1419 1493 l 1,6,-1
 1665 1493 l 1,7,-1
 926 883 l 1,8,-1
 1348 0 l 1,9,-1
 1123 0 l 1,10,-1
 778 770 l 1,11,-1
 463 510 l 1,0,-1
EndSplineSet
EndChar

StartChar: L
Encoding: 76 76 44
Width: 1139
GlyphClass: 2
Flags: W
HStem: 0 168<392 1094> 1473 20G<476.754 674>
VStem: 481 193<1300 1493>
LayerCount: 2
Fore
SplineSet
674 1493 m 1,0,-1
 392 168 l 1,1,-1
 1129 168 l 1,2,-1
 1094 0 l 1,3,-1
 164 0 l 1,4,-1
 481 1493 l 1,5,-1
 674 1493 l 1,0,-1
EndSplineSet
EndChar

StartChar: M
Encoding: 77 77 45
Width: 1706
GlyphClass: 2
Flags: W
HStem: 1473 20G<466.754 738.541 1596.95 1876>
VStem: 154 182<0 182> 1377 182<0 182>
LayerCount: 2
Fore
SplineSet
957 0 m 1,0,-1
 758 0 l 1,1,-1
 600 1239 l 1,2,-1
 336 0 l 1,3,-1
 154 0 l 1,4,-1
 471 1493 l 1,5,-1
 736 1493 l 1,6,-1
 899 210 l 1,7,-1
 1608 1493 l 1,8,-1
 1876 1493 l 1,9,-1
 1559 0 l 1,10,-1
 1377 0 l 1,11,-1
 1640 1239 l 1,12,-1
 957 0 l 1,0,-1
EndSplineSet
EndChar

StartChar: N
Encoding: 78 78 46
Width: 1479
GlyphClass: 2
Flags: W
HStem: 1473 20G<468.754 693.382 1453.75 1641>
VStem: 156 182<0 182> 1458 183<1310 1493>
LayerCount: 2
Fore
SplineSet
1641 1493 m 1,0,-1
 1323 0 l 1,1,-1
 1107 0 l 1,2,-1
 596 1211 l 1,3,-1
 338 0 l 1,4,-1
 156 0 l 1,5,-1
 473 1493 l 1,6,-1
 685 1493 l 1,7,-1
 1198 269 l 1,8,-1
 1458 1493 l 1,9,-1
 1641 1493 l 1,0,-1
EndSplineSet
EndChar

StartChar: O
Encoding: 79 79 47
Width: 1593
GlyphClass: 2
Flags: W
HStem: -47 166<625.426 1047.25> 1352 166<858.89 1282.68>
VStem: 213 197<334.242 829.101> 1499 197<646.906 1137.42>
LayerCount: 2
Fore
SplineSet
1099 1518 m 0,0,1
 1230 1518 1230 1518 1344 1481 c 0,2,3
 1537 1418 1537 1418 1622 1259 c 0,4,5
 1696 1122 1696 1122 1696 951 c 0,6,7
 1696 659 1696 659 1544 395 c 0,8,9
 1289 -47 1289 -47 801 -47 c 0,10,11
 621 -47 621 -47 478.5 27 c 128,-1,12
 336 101 336 101 274.5 237.5 c 128,-1,13
 213 374 213 374 213 526.5 c 128,-1,14
 213 679 213 679 252 815 c 0,15,16
 350 1160 350 1160 619 1360 c 0,17,18
 830 1518 830 1518 1099 1518 c 0,0,1
1415 1204 m 0,19,20
 1357 1280 1357 1280 1263 1316 c 128,-1,21
 1169 1352 1169 1352 1071.5 1352 c 128,-1,22
 974 1352 974 1352 879 1317 c 0,23,24
 655 1235 655 1235 532.5 1014.5 c 128,-1,25
 410 794 410 794 410 556 c 0,26,27
 410 298 410 298 580 189 c 0,28,29
 691 119 691 119 812 119 c 128,-1,30
 933 119 933 119 1030 154 c 0,31,32
 1253 233 1253 233 1376 455 c 128,-1,33
 1499 677 1499 677 1499 915 c 0,34,35
 1499 1096 1499 1096 1415 1204 c 0,19,20
EndSplineSet
EndChar

StartChar: P
Encoding: 80 80 48
Width: 1366
GlyphClass: 2
Flags: W
HStem: 633 168<549 1136.84> 1325 168<660 1230.43>
VStem: 186 193<0 193> 1304 197<966.31 1256.68>
LayerCount: 2
Fore
SplineSet
513 633 m 1,0,-1
 379 0 l 1,1,-1
 186 0 l 1,2,-1
 503 1493 l 1,3,-1
 1122 1493 l 2,4,5
 1501 1493 1501 1493 1501 1162 c 0,6,7
 1501 1016 1501 1016 1428 890 c 0,8,9
 1279 633 1279 633 981 633 c 2,10,-1
 513 633 l 1,0,-1
549 801 m 1,11,-1
 946 801 l 2,12,13
 1135 801 1135 801 1232 926 c 0,14,15
 1304 1016 1304 1016 1304 1120 c 0,16,17
 1304 1324 1304 1324 1058 1325 c 2,18,-1
 660 1325 l 1,19,-1
 549 801 l 1,11,-1
EndSplineSet
EndChar

StartChar: Q
Encoding: 81 81 49
Width: 1593
GlyphClass: 2
Flags: W
HStem: -47 166<629.555 1046.72> 1352 166<852.317 1281.9>
VStem: 213 197<333.786 832.405> 1499 197<638.481 1136.51>
LayerCount: 2
Fore
SplineSet
1501 -2 m 1,0,-1
 1378 -121 l 1,1,-1
 1200 57 l 1,2,3
 1108 8 1108 8 1026.5 -19.5 c 128,-1,4
 945 -47 945 -47 809 -47 c 0,5,6
 426 -47 426 -47 288 215 c 0,7,8
 213 358 213 358 213 541 c 0,9,10
 213 821 213 821 364 1075 c 128,-1,11
 515 1329 515 1329 752 1442 c 0,12,13
 910 1518 910 1518 1099 1518 c 128,-1,14
 1288 1518 1288 1518 1430 1445 c 128,-1,15
 1572 1372 1572 1372 1634 1231.5 c 128,-1,16
 1696 1091 1696 1091 1696 934 c 0,17,18
 1696 713 1696 713 1603.5 510.5 c 128,-1,19
 1511 308 1511 308 1341 156 c 1,20,-1
 1501 -2 l 1,0,-1
1073 420 m 1,21,-1
 1225 270 l 1,22,23
 1347 388 1347 388 1423 553.5 c 128,-1,24
 1499 719 1499 719 1499 914 c 0,25,26
 1499 1173 1499 1173 1329 1282 c 0,27,28
 1219 1352 1219 1352 1062.5 1352 c 128,-1,29
 906 1352 906 1352 757 1258 c 0,30,31
 576 1145 576 1145 479 903 c 0,32,33
 410 733 410 733 410 556 c 0,34,35
 410 297 410 297 580 189 c 0,36,37
 690 119 690 119 839 119 c 0,38,39
 889 119 889 119 940.5 128.5 c 128,-1,40
 992 138 992 138 1081 178 c 1,41,-1
 954 305 l 1,42,-1
 1073 420 l 1,21,-1
EndSplineSet
EndChar

StartChar: R
Encoding: 82 82 50
Width: 1479
GlyphClass: 2
Flags: W
HStem: 643 168<555 1165.69> 1325 168<664 1316.96>
VStem: 190 193<0 193> 1151 207<24.9694 349.553> 1216 197<246.986 595.038> 1379 197<971.625 1263.64>
LayerCount: 2
Fore
SplineSet
1387.5 649.5 m 128,-1,1
 1413 609 1413 609 1413 547 c 128,-1,2
 1413 485 1413 485 1385.5 339.5 c 128,-1,3
 1358 194 1358 194 1358 140.5 c 128,-1,4
 1358 87 1358 87 1400 47 c 1,5,-1
 1390 0 l 1,6,-1
 1159 0 l 1,7,8
 1151 54 1151 54 1151 100 c 128,-1,9
 1151 146 1151 146 1157 180 c 128,-1,10
 1163 214 1163 214 1189.5 324 c 128,-1,11
 1216 434 1216 434 1216 486 c 128,-1,12
 1216 538 1216 538 1189 575 c 0,13,14
 1142 643 1142 643 1009 643 c 2,15,-1
 519 643 l 1,16,-1
 383 0 l 1,17,-1
 190 0 l 1,18,-1
 507 1493 l 1,19,-1
 1196 1493 l 2,20,21
 1410 1493 1410 1493 1493 1410 c 128,-1,22
 1576 1327 1576 1327 1576 1176.5 c 128,-1,23
 1576 1026 1576 1026 1491 900 c 0,24,25
 1459 852 1459 852 1418 819 c 128,-1,26
 1377 786 1377 786 1290 737 c 1,27,0
 1362 690 1362 690 1387.5 649.5 c 128,-1,1
555 811 m 1,28,-1
 1028 811 l 2,29,30
 1219 811 1219 811 1304 921 c 0,31,32
 1379 1016 1379 1016 1379 1142 c 0,33,34
 1379 1222 1379 1222 1343 1260.5 c 128,-1,35
 1307 1299 1307 1299 1262 1312 c 128,-1,36
 1217 1325 1217 1325 1136 1325 c 2,37,-1
 664 1325 l 1,38,-1
 555 811 l 1,28,-1
EndSplineSet
EndChar

StartChar: S
Encoding: 83 83 51
Width: 1366
GlyphClass: 2
Flags: W
HStem: -47 166<484.038 965.968> 1352 166<738.949 1175.05>
VStem: 182 188<226.154 473.113> 364 197<956.795 1189.53> 1173 197<307.845 540.534> 1274 188<1056.93 1263.06>
LayerCount: 2
Fore
SplineSet
182 347 m 0,0,1
 182 403 182 403 200 475 c 1,2,-1
 379 475 l 1,3,4
 370 426 370 426 370 391 c 0,5,6
 370 232 370 232 475 168 c 0,7,8
 554 120 554 120 709 119 c 0,9,10
 952 119 952 119 1076 233 c 0,11,12
 1173 323 1173 323 1173 428 c 0,13,14
 1173 503 1173 503 1119 550.5 c 128,-1,15
 1065 598 1065 598 942 633 c 2,16,-1
 592 731 l 2,17,18
 500 757 500 757 447 813 c 0,19,20
 364 900 364 900 364 1007 c 0,21,22
 364 1040 364 1040 374 1084 c 0,23,24
 420 1283 420 1283 575.5 1400.5 c 128,-1,25
 731 1518 731 1518 999 1518 c 0,26,27
 1296 1518 1296 1518 1408 1346 c 0,28,29
 1462 1263 1462 1263 1462 1170 c 0,30,31
 1462 1129 1462 1129 1446 1055 c 1,32,-1
 1265 1055 l 1,33,34
 1274 1105 1274 1105 1274 1132 c 128,-1,35
 1274 1159 1274 1159 1266 1188 c 0,36,37
 1242 1275 1242 1275 1171 1313.5 c 128,-1,38
 1100 1352 1100 1352 963 1352 c 0,39,40
 762 1352 762 1352 652 1252 c 0,41,42
 561 1170 561 1170 561 1061 c 0,43,44
 561 987 561 987 611 951 c 128,-1,45
 661 915 661 915 768 885 c 2,46,-1
 1120 785 l 2,47,48
 1256 746 1256 746 1321 645 c 0,49,50
 1370 569 1370 569 1370 486 c 128,-1,51
 1370 403 1370 403 1324 304 c 0,52,53
 1235 112 1235 112 1037 23 c 0,54,55
 882 -47 882 -47 653.5 -47 c 128,-1,56
 425 -47 425 -47 303.5 63.5 c 128,-1,57
 182 174 182 174 182 347 c 0,0,1
EndSplineSet
EndChar

StartChar: T
Encoding: 84 84 52
Width: 1251
GlyphClass: 2
Flags: W
HStem: 1325 168<360 817 1010 1497>
VStem: 535 193<0 193>
LayerCount: 2
Fore
SplineSet
1010 1325 m 1,0,-1
 728 0 l 1,1,-1
 535 0 l 1,2,-1
 817 1325 l 1,3,-1
 324 1325 l 1,4,-1
 360 1493 l 1,5,-1
 1532 1493 l 1,6,-1
 1497 1325 l 1,7,-1
 1010 1325 l 1,0,-1
EndSplineSet
EndChar

StartChar: U
Encoding: 85 85 53
Width: 1479
GlyphClass: 2
Flags: W
HStem: -47 166<575.331 1002.3> 1473 20G<487.73 684 1441.75 1638>
VStem: 254 197<226.229 575.156> 492 192<1301 1493> 1446 192<1301 1493>
LayerCount: 2
Fore
SplineSet
1446 1493 m 1,0,-1
 1638 1493 l 1,1,-1
 1416 444 l 2,2,3
 1365 206 1365 206 1163 72 c 0,4,5
 985 -47 985 -47 743 -47 c 0,6,7
 635 -47 635 -47 535 -18 c 0,8,9
 382 26 382 26 310 140 c 0,10,11
 254 230 254 230 254 305 c 128,-1,12
 254 380 254 380 283 514 c 2,13,-1
 492 1493 l 1,14,-1
 684 1493 l 1,15,-1
 461 444 l 2,16,17
 451 398 451 398 451 355 c 0,18,19
 451 249 451 249 541.5 184 c 128,-1,20
 632 119 632 119 793.5 119 c 128,-1,21
 955 119 955 119 1073 205.5 c 128,-1,22
 1191 292 1191 292 1223 444 c 2,23,-1
 1446 1493 l 1,0,-1
EndSplineSet
EndChar

StartChar: V
Encoding: 86 86 54
Width: 1366
GlyphClass: 2
Flags: W
HStem: 1473 20G<379 580.688 1425.12 1639>
VStem: 379 199<1294 1493>
LayerCount: 2
Fore
SplineSet
804 0 m 1,0,-1
 598 0 l 1,1,-1
 379 1493 l 1,2,-1
 578 1493 l 1,3,-1
 748 228 l 1,4,-1
 1436 1493 l 1,5,-1
 1639 1493 l 1,6,-1
 804 0 l 1,0,-1
EndSplineSet
EndChar

StartChar: W
Encoding: 87 87 55
Width: 1933
GlyphClass: 2
Flags: W
HStem: 1473 20G<362 567.512 1177.28 1386.39 1998.12 2220>
VStem: 362 205<1163.71 1493>
LayerCount: 2
Fore
SplineSet
1524 0 m 1,0,-1
 1314 0 l 1,1,-1
 1231 1213 l 1,2,-1
 636 0 l 1,3,-1
 427 0 l 1,4,-1
 362 1493 l 1,5,-1
 567 1493 l 1,6,-1
 598 281 l 1,7,-1
 1187 1493 l 1,8,-1
 1385 1493 l 1,9,-1
 1469 281 l 1,10,-1
 2007 1493 l 1,11,-1
 2220 1493 l 1,12,-1
 1524 0 l 1,0,-1
EndSplineSet
EndChar

StartChar: X
Encoding: 88 88 56
Width: 1366
GlyphClass: 2
Flags: W
HStem: 1473 20G<398 637.733 1375.57 1626>
LayerCount: 2
Fore
SplineSet
965 766 m 1,0,-1
 1331 0 l 1,1,-1
 1095 0 l 1,2,-1
 822 622 l 1,3,-1
 281 0 l 1,4,-1
 45 0 l 1,5,-1
 738 766 l 1,6,-1
 398 1493 l 1,7,-1
 629 1493 l 1,8,-1
 884 909 l 1,9,-1
 1393 1493 l 1,10,-1
 1626 1493 l 1,11,-1
 965 766 l 1,0,-1
EndSplineSet
EndChar

StartChar: Y
Encoding: 89 89 57
Width: 1366
GlyphClass: 2
Flags: W
HStem: 1473 20G<344 580.623 1426.85 1671>
VStem: 600 192<0 192>
LayerCount: 2
Fore
SplineSet
917 585 m 1,0,-1
 792 0 l 1,1,-1
 600 0 l 1,2,-1
 724 585 l 1,3,-1
 344 1493 l 1,4,-1
 573 1493 l 1,5,-1
 852 761 l 1,6,-1
 1443 1493 l 1,7,-1
 1671 1493 l 1,8,-1
 917 585 l 1,0,-1
EndSplineSet
EndChar

StartChar: Z
Encoding: 90 90 58
Width: 1251
GlyphClass: 2
Flags: W
HStem: 0 168<334 1195> 1325 168<434 1230>
LayerCount: 2
Fore
SplineSet
1509 1493 m 1,0,-1
 1472 1321 l 1,1,-1
 334 168 l 1,2,-1
 1231 168 l 1,3,-1
 1195 0 l 1,4,-1
 57 0 l 1,5,-1
 94 172 l 1,6,-1
 1230 1325 l 1,7,-1
 398 1325 l 1,8,-1
 434 1493 l 1,9,-1
 1509 1493 l 1,0,-1
EndSplineSet
EndChar

StartChar: bracketleft
Encoding: 91 91 59
Width: 569
GlyphClass: 2
Flags: W
HStem: -434 147<242 420> 1346 147<590 799>
LayerCount: 2
Fore
SplineSet
830 1493 m 1,0,-1
 799 1346 l 1,1,-1
 590 1346 l 1,2,-1
 242 -287 l 1,3,-1
 451 -287 l 1,4,-1
 420 -434 l 1,5,-1
 39 -434 l 1,6,-1
 449 1493 l 1,7,-1
 830 1493 l 1,0,-1
EndSplineSet
EndChar

StartChar: backslash
Encoding: 92 92 60
Width: 569
GlyphClass: 2
Flags: W
HStem: 1473 20G<301 416.073>
VStem: 301 113<1380 1493> 461 112<-41 71>
LayerCount: 2
Fore
SplineSet
301 1493 m 1,0,-1
 414 1493 l 1,1,-1
 573 -41 l 1,2,-1
 461 -41 l 1,3,-1
 301 1493 l 1,0,-1
EndSplineSet
EndChar

StartChar: bracketright
Encoding: 93 93 61
Width: 569
GlyphClass: 2
Flags: W
HStem: -434 147<-16 195> 1346 147<363 543>
LayerCount: 2
Fore
SplineSet
-47 -434 m 1,0,-1
 -16 -287 l 1,1,-1
 195 -287 l 1,2,-1
 543 1346 l 1,3,-1
 332 1346 l 1,4,-1
 363 1493 l 1,5,-1
 746 1493 l 1,6,-1
 336 -434 l 1,7,-1
 -47 -434 l 1,0,-1
EndSplineSet
EndChar

StartChar: asciicircum
Encoding: 94 94 62
Width: 961
GlyphClass: 2
Flags: W
VStem: 874 142<674 816>
LayerCount: 2
Fore
SplineSet
715 1452 m 1,0,-1
 865 1452 l 1,1,-1
 1016 674 l 1,2,-1
 874 674 l 1,3,-1
 756 1286 l 1,4,-1
 383 674 l 1,5,-1
 236 674 l 1,6,-1
 715 1452 l 1,0,-1
EndSplineSet
EndChar

StartChar: underscore
Encoding: 95 95 63
Width: 1139
GlyphClass: 2
Flags: W
HStem: -360 102<-99 1107>
LayerCount: 2
Fore
SplineSet
1128 -258 m 1,0,-1
 1107 -360 l 1,1,-1
 -121 -360 l 1,2,-1
 -99 -258 l 1,3,-1
 1128 -258 l 1,0,-1
EndSplineSet
EndChar

StartChar: grave
Encoding: 96 96 64
Width: 682
GlyphClass: 2
Flags: W
HStem: 1212 304
VStem: 367 365
LayerCount: 2
Fore
SplineSet
585 1516 m 1,0,-1
 732 1212 l 1,1,-1
 622 1212 l 1,2,-1
 367 1516 l 1,3,-1
 585 1516 l 1,0,-1
EndSplineSet
EndChar

StartChar: a
Encoding: 97 97 65
Width: 1139
GlyphClass: 2
Flags: W
HStem: -47 147<347.752 666.534 958.5 1106.12> 946 158<583.299 929.242>
VStem: 133 180<135.071 359.725> 309 172<756 849.562> 979 184<670.01 896.796>
LayerCount: 2
Fore
SplineSet
924 529 m 1,0,1
 858 506 858 506 817.5 498 c 128,-1,2
 777 490 777 490 629 470 c 128,-1,3
 481 450 481 450 414 408 c 0,4,5
 313 346 313 346 313 235 c 0,6,7
 313 100 313 100 495 100 c 0,8,9
 630 100 630 100 749 171 c 0,10,11
 800 202 800 202 836.5 247 c 128,-1,12
 873 292 873 292 883 336 c 2,13,-1
 924 529 l 1,0,1
1130 105 m 1,14,-1
 1104 -28 l 1,15,16
 1085 -32 1085 -32 1053.5 -39.5 c 128,-1,17
 1022 -47 1022 -47 995 -47 c 0,18,19
 922 -47 922 -47 881 -11.5 c 128,-1,20
 840 24 840 24 840 88 c 2,21,-1
 840 111 l 1,22,23
 775 55 775 55 741.5 33 c 128,-1,24
 708 11 708 11 625 -18 c 128,-1,25
 542 -47 542 -47 448 -47 c 128,-1,26
 354 -47 354 -47 285 -22.5 c 128,-1,27
 216 2 216 2 174.5 65 c 128,-1,28
 133 128 133 128 133 216 c 128,-1,29
 133 304 133 304 177 382 c 128,-1,30
 221 460 221 460 299 509 c 128,-1,31
 377 558 377 558 466.5 579 c 128,-1,32
 556 600 556 600 715.5 614.5 c 128,-1,33
 875 629 875 629 917 654.5 c 128,-1,34
 959 680 959 680 969 740 c 2,35,-1
 975 776 l 2,36,37
 979 802 979 802 979 822 c 128,-1,38
 979 842 979 842 959.5 872 c 128,-1,39
 940 902 940 902 885.5 924 c 128,-1,40
 831 946 831 946 763 946 c 0,41,42
 618 946 618 946 543 871 c 0,43,44
 505 832 505 832 481 756 c 1,45,-1
 309 756 l 1,46,47
 332 889 332 889 419 978 c 0,48,49
 544 1104 544 1104 807 1104 c 0,50,51
 1012 1104 1012 1104 1106 1007 c 0,52,53
 1163 948 1163 948 1163 873 c 0,54,55
 1163 853 1163 853 1151 797 c 2,56,-1
 1020 180 l 2,57,58
 1018 172 1018 172 1018 159 c 0,59,60
 1018 101 1018 101 1095 101 c 0,61,62
 1114 101 1114 101 1130 105 c 1,14,-1
EndSplineSet
EndChar

StartChar: b
Encoding: 98 98 66
Width: 1139
GlyphClass: 2
Flags: W
HStem: -47 158<464.912 774.808> 946 158<638.678 931.471> 1473 20G<423.754 600>
VStem: 111 154<0 154> 428 172<1321 1493> 1025 180<432.584 844.542>
LayerCount: 2
Fore
SplineSet
428 1493 m 1,0,-1
 600 1493 l 1,1,-1
 481 930 l 1,2,3
 563 1015 563 1015 607 1042 c 0,4,5
 706 1104 706 1104 843 1104 c 0,6,7
 922 1104 922 1104 997.5 1068.5 c 128,-1,8
 1073 1033 1073 1033 1123 963 c 0,9,10
 1205 847 1205 847 1205 702 c 0,11,12
 1205 460 1205 460 1070 237 c 0,13,14
 971 71 971 71 820 2 c 0,15,16
 712 -47 712 -47 585 -47 c 128,-1,17
 458 -47 458 -47 375 37 c 0,18,19
 336 77 336 77 299 160 c 1,20,-1
 265 0 l 1,21,-1
 111 0 l 1,22,-1
 428 1493 l 1,0,-1
786 946 m 0,23,24
 709 946 709 946 651 915 c 0,25,26
 516 845 516 845 447.5 691 c 128,-1,27
 379 537 379 537 379 375 c 0,28,29
 379 303 379 303 406 238 c 0,30,31
 458 111 458 111 606 111 c 0,32,33
 684 111 684 111 745 140 c 0,34,35
 882 203 882 203 961 377 c 0,36,37
 1025 516 1025 516 1025 663 c 0,38,39
 1025 750 1025 750 994 819 c 0,40,41
 937 946 937 946 786 946 c 0,23,24
EndSplineSet
EndChar

StartChar: c
Encoding: 99 99 67
Width: 1024
GlyphClass: 2
Flags: W
HStem: -47 158<427.852 730.073> 946 158<583.033 896.587>
VStem: 156 180<204.488 621.397> 959 176<713 885.191>
LayerCount: 2
Fore
SplineSet
1135 804 m 1,0,-1
 1129 713 l 1,1,-1
 957 713 l 1,2,3
 959 741 959 741 959 766 c 128,-1,4
 959 791 959 791 949 823 c 0,5,6
 910 946 910 946 749 946 c 0,7,8
 562 946 562 946 446 763 c 0,9,10
 396 684 396 684 366 576.5 c 128,-1,11
 336 469 336 469 336 376 c 128,-1,12
 336 283 336 283 368 225 c 0,13,14
 431 111 431 111 567 111 c 0,15,16
 794 111 794 111 889 369 c 1,17,-1
 1061 369 l 1,18,19
 1016 209 1016 209 943 124 c 0,20,21
 797 -47 797 -47 540 -47 c 0,22,23
 303 -47 303 -47 205 144 c 0,24,25
 156 240 156 240 156 374 c 128,-1,26
 156 508 156 508 215 678 c 0,27,28
 293 904 293 904 447 1004 c 128,-1,29
 601 1104 601 1104 781 1104 c 0,30,31
 1004 1104 1004 1104 1095 940 c 0,32,33
 1135 870 1135 870 1135 804 c 1,0,-1
EndSplineSet
EndChar

StartChar: d
Encoding: 100 100 68
Width: 1139
GlyphClass: 2
Flags: W
HStem: -47 158<420.77 700.359> 946 158<561.811 873.754> 1473 20G<1155.73 1332>
VStem: 150 180<209.276 634.833> 1160 172<1321 1493>
LayerCount: 2
Fore
SplineSet
1332 1493 m 1,0,-1
 1014 0 l 1,1,-1
 848 0 l 1,2,-1
 881 156 l 1,3,4
 844 80 844 80 764 31 c 0,5,6
 638 -47 638 -47 500 -47 c 0,7,8
 419 -47 419 -47 348 -14 c 0,9,10
 150 77 150 77 150 349 c 0,11,12
 150 522 150 522 210 687 c 0,13,14
 292 913 292 913 461 1021 c 0,15,16
 591 1104 591 1104 744 1104 c 0,17,18
 882 1104 882 1104 958 1033 c 0,19,20
 1000 994 1000 994 1037 917 c 1,21,-1
 1160 1493 l 1,22,-1
 1332 1493 l 1,0,-1
875 318 m 0,23,24
 969 481 969 481 969 667 c 0,25,26
 968 853 968 853 854 914 c 0,27,28
 794 946 794 946 722 946 c 0,29,30
 503 946 503 946 392 680 c 0,31,32
 330 534 330 534 330 390 c 0,33,34
 330 307 330 307 359 238 c 0,35,36
 413 111 413 111 571 111 c 0,37,38
 756 111 756 111 875 318 c 0,23,24
EndSplineSet
EndChar

StartChar: e
Encoding: 101 101 69
Width: 1139
GlyphClass: 2
Flags: W
HStem: -47 158<451.972 772.661> 480 147<399 1006.84> 946 158<604.526 921.21>
VStem: 172 180<211.473 478.48> 1008 180<628.569 854.647>
LayerCount: 2
Fore
SplineSet
797 1104 m 0,0,1
 894 1104 894 1104 983.5 1065 c 128,-1,2
 1073 1026 1073 1026 1130.5 938 c 128,-1,3
 1188 850 1188 850 1188 765.5 c 128,-1,4
 1188 681 1188 681 1153 480 c 1,5,-1
 362 480 l 1,6,7
 352 441 352 441 352 399.5 c 128,-1,8
 352 358 352 358 354 334 c 0,9,10
 363 232 363 232 431 171.5 c 128,-1,11
 499 111 499 111 605 111 c 0,12,13
 813 111 813 111 926 326 c 1,14,-1
 1098 326 l 1,15,16
 1062 202 1062 202 962 104 c 0,17,18
 809 -47 809 -47 578 -47 c 0,19,20
 405 -47 405 -47 299 55 c 0,21,22
 240 112 240 112 206 191.5 c 128,-1,23
 172 271 172 271 172 382 c 128,-1,24
 172 493 172 493 233 666 c 0,25,26
 319 906 319 906 472.5 1005 c 128,-1,27
 626 1104 626 1104 797 1104 c 0,0,1
1001 627 m 1,28,29
 1008 668 1008 668 1008 696 c 128,-1,30
 1008 724 1008 724 1002 755 c 0,31,32
 964 946 964 946 770 946 c 0,33,34
 610 946 610 946 494 806 c 0,35,36
 428 726 428 726 399 627 c 1,37,-1
 1001 627 l 1,28,29
EndSplineSet
EndChar

StartChar: f
Encoding: 102 102 70
Width: 569
GlyphClass: 2
Flags: W
HStem: 936 137<266 381 582 728> 1351 148<649.867 818.464>
VStem: 182 172<0 172>
LayerCount: 2
Fore
SplineSet
757 1073 m 1,0,-1
 728 936 l 1,1,-1
 553 936 l 1,2,-1
 354 0 l 1,3,-1
 182 0 l 1,4,-1
 381 936 l 1,5,-1
 237 936 l 1,6,-1
 266 1073 l 1,7,-1
 410 1073 l 1,8,-1
 449 1255 l 2,9,10
 473 1370 473 1370 554 1434.5 c 128,-1,11
 635 1499 635 1499 754 1499 c 0,12,13
 799 1499 799 1499 846 1489 c 1,14,-1
 816 1348 l 1,15,16
 777 1351 777 1351 756.5 1351 c 0,17,18
 736 1350 736 1350 704 1344 c 0,19,20
 637 1331 637 1331 612 1214 c 2,21,-1
 582 1073 l 1,22,-1
 757 1073 l 1,0,-1
EndSplineSet
EndChar

StartChar: g
Encoding: 103 103 71
Width: 1139
GlyphClass: 2
Flags: W
HStem: -446 147<298.154 653.218> -35 147<421.782 698.837> 946 158<583.253 875.371> 1053 20G<1071.62 1231>
VStem: 66 176<-249.54 -123> 152 180<204.31 619.293> 1076 155<918 1073>
LayerCount: 2
Fore
SplineSet
961 695 m 0,0,1
 962 846 962 846 864 911 c 0,2,3
 812 946 812 946 738.5 946 c 128,-1,4
 665 946 665 946 595 909 c 0,5,6
 466 842 466 842 399 685.5 c 128,-1,7
 332 529 332 529 332 386.5 c 128,-1,8
 332 244 332 244 397 178 c 128,-1,9
 462 112 462 112 555 112 c 128,-1,10
 648 112 648 112 732 166.5 c 128,-1,11
 816 221 816 221 863 306 c 0,12,13
 961 483 961 483 961 695 c 0,0,1
757 1104 m 0,14,15
 955 1104 955 1104 1041 913 c 1,16,-1
 1076 1073 l 1,17,-1
 1231 1073 l 1,18,-1
 1040 174 l 2,19,20
 991 -57 991 -57 933 -167 c 0,21,22
 787 -446 787 -446 428 -446 c 0,23,24
 342 -446 342 -446 252 -421.5 c 128,-1,25
 162 -397 162 -397 114 -326.5 c 128,-1,26
 66 -256 66 -256 66 -186 c 1,27,-1
 70 -123 l 1,28,-1
 242 -123 l 1,29,-1
 242 -152 l 2,30,31
 242 -221 242 -221 300.5 -260 c 128,-1,32
 359 -299 359 -299 463 -299 c 0,33,34
 627 -299 627 -299 716.5 -209 c 128,-1,35
 806 -119 806 -119 850 90 c 1,36,-1
 859 129 l 1,37,38
 701 -35 701 -35 507 -35 c 0,39,40
 422 -35 422 -35 344 2 c 128,-1,41
 266 39 266 39 220 108 c 0,42,43
 152 210 152 210 152 356 c 128,-1,44
 152 502 152 502 215 674 c 0,45,46
 302 910 302 910 464 1015 c 0,47,48
 602 1104 602 1104 757 1104 c 0,14,15
EndSplineSet
EndChar

StartChar: h
Encoding: 104 104 72
Width: 1139
GlyphClass: 2
Flags: W
HStem: 957 147<683.183 941.917> 1473 20G<455.754 632>
VStem: 143 172<0 172> 460 172<1321 1493> 831 172<0 172> 993 182<705.821 905.471>
LayerCount: 2
Fore
SplineSet
460 1493 m 1,0,-1
 632 1493 l 1,1,-1
 515 940 l 1,2,3
 593 1012 593 1012 647 1042 c 0,4,5
 757 1104 757 1104 898.5 1104 c 128,-1,6
 1040 1104 1040 1104 1107.5 1030.5 c 128,-1,7
 1175 957 1175 957 1175 846 c 0,8,9
 1175 808 1175 808 1167 770 c 2,10,-1
 1003 0 l 1,11,-1
 831 0 l 1,12,-1
 980 702 l 2,13,14
 993 758 993 758 993 801 c 128,-1,15
 993 844 993 844 962 889 c 0,16,17
 916 957 916 957 818 957 c 0,18,19
 764 957 764 957 710 939 c 0,20,21
 499 866 499 866 441 592 c 2,22,-1
 315 0 l 1,23,-1
 143 0 l 1,24,-1
 460 1493 l 1,0,-1
EndSplineSet
EndChar

StartChar: i
Encoding: 105 105 73
Width: 455
GlyphClass: 2
Flags: W
HStem: 1053 20G<358.75 535> 1282 211<452 579>
VStem: 135 172<0 172> 363 172<901 1073> 407 172<1282 1454> 452 172<1321 1493>
LayerCount: 2
Fore
SplineSet
535 1073 m 1,0,-1
 307 0 l 1,1,-1
 135 0 l 1,2,-1
 363 1073 l 1,3,-1
 535 1073 l 1,0,-1
624 1493 m 1,4,-1
 579 1282 l 1,5,-1
 407 1282 l 1,6,-1
 452 1493 l 1,7,-1
 624 1493 l 1,4,-1
EndSplineSet
EndChar

StartChar: j
Encoding: 106 106 74
Width: 455
GlyphClass: 2
Flags: W
HStem: -446 147<-104.272 61.8078> 1053 20G<365.753 542> 1282 211<459 585>
VStem: 370 172<901 1073> 413 172<1282 1454> 459 172<1321 1493>
LayerCount: 2
Fore
SplineSet
370 1073 m 1,0,-1
 542 1073 l 1,1,-1
 266 -223 l 2,2,3
 239 -349 239 -349 160.5 -397.5 c 128,-1,4
 82 -446 82 -446 -94 -446 c 0,5,6
 -117 -446 -117 -446 -133 -440 c 1,7,-1
 -102 -295 l 1,8,9
 -65 -299 -65 -299 -47 -299 c 128,-1,10
 -29 -299 -29 -299 2.5 -294 c 128,-1,11
 34 -289 34 -289 51 -278 c 0,12,13
 88 -254 88 -254 109 -156 c 2,14,-1
 370 1073 l 1,0,-1
631 1493 m 1,15,-1
 585 1282 l 1,16,-1
 413 1282 l 1,17,-1
 459 1493 l 1,18,-1
 631 1493 l 1,15,-1
EndSplineSet
EndChar

StartChar: k
Encoding: 107 107 75
Width: 1024
GlyphClass: 2
Flags: W
HStem: 1053 20G<950.291 1196> 1473 20G<431.754 608>
VStem: 119 172<0 172> 436 172<1321 1493>
LayerCount: 2
Fore
SplineSet
608 1493 m 1,0,-1
 424 627 l 1,1,-1
 975 1073 l 1,2,-1
 1196 1073 l 1,3,-1
 742 702 l 1,4,-1
 1028 0 l 1,5,-1
 832 0 l 1,6,-1
 598 596 l 1,7,-1
 379 416 l 1,8,-1
 291 0 l 1,9,-1
 119 0 l 1,10,-1
 436 1493 l 1,11,-1
 608 1493 l 1,0,-1
EndSplineSet
EndChar

StartChar: l
Encoding: 108 108 76
Width: 455
GlyphClass: 2
Flags: W
HStem: 1473 20G<451.754 628>
VStem: 139 172<0 172> 456 172<1321 1493>
LayerCount: 2
Fore
SplineSet
628 1493 m 1,0,-1
 311 0 l 1,1,-1
 139 0 l 1,2,-1
 456 1493 l 1,3,-1
 628 1493 l 1,0,-1
EndSplineSet
EndChar

StartChar: m
Encoding: 109 109 77
Width: 1706
GlyphClass: 2
Flags: W
HStem: 957 147<663.51 896.618 1292.85 1526.07> 1053 20G<368.75 529>
VStem: 145 172<0 172> 772 172<0 172> 1398 172<0 172> 1565 180<615.75 918.753>
LayerCount: 2
Fore
SplineSet
373 1073 m 1,0,-1
 529 1073 l 1,1,-1
 500 940 l 1,2,3
 579 1012 579 1012 630 1042 c 0,4,5
 736 1104 736 1104 866 1104 c 0,6,7
 1066 1104 1066 1104 1114 934 c 1,8,9
 1290 1104 1290 1104 1486 1104 c 0,10,11
 1617 1104 1617 1104 1681 1033 c 128,-1,12
 1745 962 1745 962 1745 892 c 128,-1,13
 1745 822 1745 822 1733 764 c 2,14,-1
 1570 0 l 1,15,-1
 1398 0 l 1,16,-1
 1547 698 l 2,17,18
 1565 767 1565 767 1565 816 c 128,-1,19
 1565 865 1565 865 1528 911 c 128,-1,20
 1491 957 1491 957 1393 957 c 128,-1,21
 1295 957 1295 957 1203.5 874 c 128,-1,22
 1112 791 1112 791 1087 674 c 2,23,-1
 944 0 l 1,24,-1
 772 0 l 1,25,-1
 929 739 l 2,26,27
 937 778 937 778 937 804.5 c 128,-1,28
 937 831 937 831 935 844 c 0,29,30
 927 894 927 894 881 925.5 c 128,-1,31
 835 957 835 957 770 957 c 0,32,33
 666 957 666 957 575.5 873 c 128,-1,34
 485 789 485 789 460 674 c 2,35,-1
 317 0 l 1,36,-1
 145 0 l 1,37,-1
 373 1073 l 1,0,-1
EndSplineSet
EndChar

StartChar: n
Encoding: 110 110 78
Width: 1139
GlyphClass: 2
Flags: W
HStem: 957 147<671.587 939.823> 1053 20G<366.75 527>
VStem: 143 172<0 172> 831 172<0 172> 995 180<705.821 900.758>
LayerCount: 2
Fore
SplineSet
371 1073 m 1,0,-1
 527 1073 l 1,1,-1
 498 940 l 1,2,3
 661 1104 661 1104 897 1104 c 0,4,5
 1013 1104 1013 1104 1082 1049 c 0,6,7
 1175 976 1175 976 1175 847 c 0,8,9
 1175 808 1175 808 1167 770 c 2,10,-1
 1003 0 l 1,11,-1
 831 0 l 1,12,-1
 983 715 l 2,13,14
 995 770 995 770 995 790 c 0,15,16
 995 862 995 862 944 909.5 c 128,-1,17
 893 957 893 957 827.5 957 c 128,-1,18
 762 957 762 957 708 939 c 0,19,20
 499 866 499 866 441 592 c 2,21,-1
 315 0 l 1,22,-1
 143 0 l 1,23,-1
 371 1073 l 1,0,-1
EndSplineSet
EndChar

StartChar: o
Encoding: 111 111 79
Width: 1139
GlyphClass: 2
Flags: W
HStem: -47 158<435.038 749.014> 946 158<595.719 905.99>
VStem: 164 180<206.539 608.739> 1000 180<441.637 852.607>
LayerCount: 2
Fore
SplineSet
787 1104 m 0,0,1
 1014 1104 1014 1104 1114 946 c 0,2,3
 1180 844 1180 844 1180 716 c 128,-1,4
 1180 588 1180 588 1134 437.5 c 128,-1,5
 1088 287 1088 287 1018 190 c 0,6,7
 847 -47 847 -47 551 -47 c 0,8,9
 378 -47 378 -47 271 58 c 128,-1,10
 164 163 164 163 164 336 c 0,11,12
 164 428 164 428 187 529 c 0,13,14
 282 958 282 958 580 1067 c 0,15,16
 680 1104 680 1104 787 1104 c 0,0,1
933 372 m 0,17,18
 1000 530 1000 530 1000 687 c 128,-1,19
 1000 844 1000 844 898 909 c 0,20,21
 840 946 840 946 759.5 946 c 128,-1,22
 679 946 679 946 608 909 c 0,23,24
 476 841 476 841 410 683.5 c 128,-1,25
 344 526 344 526 344 390 c 128,-1,26
 344 254 344 254 406 182.5 c 128,-1,27
 468 111 468 111 567 111 c 0,28,29
 822 112 822 112 933 372 c 0,17,18
EndSplineSet
EndChar

StartChar: p
Encoding: 112 112 80
Width: 1139
GlyphClass: 2
Flags: W
HStem: -47 158<472.093 778.688> 946 158<646.975 924.117> 1053 20G<330.746 501>
VStem: 14 172<-436 -264> 335 166<907 1073> 1020 180<421.653 843.726>
LayerCount: 2
Fore
SplineSet
14 -436 m 1,0,-1
 335 1073 l 1,1,-1
 501 1073 l 1,2,-1
 464 901 l 1,3,4
 498 971 498 971 581 1024 c 0,5,6
 707 1104 707 1104 853 1104 c 128,-1,7
 999 1104 999 1104 1099.5 1003.5 c 128,-1,8
 1200 903 1200 903 1200 718.5 c 128,-1,9
 1200 534 1200 534 1139 370 c 0,10,11
 1054 141 1054 141 886 36 c 0,12,13
 754 -47 754 -47 602 -47 c 0,14,15
 463 -48 463 -48 387 24 c 0,16,17
 345 64 345 64 308 139 c 1,18,-1
 186 -436 l 1,19,-1
 14 -436 l 1,0,-1
777 946 m 0,20,21
 555 946 555 946 440 680 c 0,22,23
 374 530 374 530 374 384.5 c 128,-1,24
 374 239 374 239 446 175 c 128,-1,25
 518 111 518 111 604 111 c 0,26,27
 845 111 845 111 958 377 c 0,28,29
 1020 522 1020 522 1020 636 c 0,30,31
 1020 946 1020 946 777 946 c 0,20,21
EndSplineSet
EndChar

StartChar: q
Encoding: 113 113 81
Width: 1139
GlyphClass: 2
Flags: W
HStem: -47 158<418.771 712.866> 946 158<577.471 881.905> 1053 20G<1084.57 1243>
VStem: 145 180<212.341 622.615> 750 172<-436 -264> 1089 154<919 1073>
LayerCount: 2
Fore
SplineSet
922 -436 m 1,0,-1
 750 -436 l 1,1,-1
 870 127 l 1,2,3
 784 40 784 40 743 14 c 0,4,5
 644 -47 644 -47 507 -47 c 0,6,7
 428 -47 428 -47 352.5 -11.5 c 128,-1,8
 277 24 277 24 227 94 c 0,9,10
 145 210 145 210 145 354 c 0,11,12
 145 597 145 597 280 820 c 0,13,14
 380 986 380 986 530 1055 c 0,15,16
 636 1104 636 1104 730 1104 c 0,17,18
 978 1104 978 1104 1050 897 c 1,19,-1
 1089 1073 l 1,20,-1
 1243 1073 l 1,21,-1
 922 -436 l 1,0,-1
744 946 m 0,22,23
 666 946 666 946 606 917 c 0,24,25
 459 846 459 846 392 688 c 128,-1,26
 325 530 325 530 325 381 c 0,27,28
 325 305 325 305 356 238 c 0,29,30
 414 111 414 111 564 111 c 0,31,32
 639 111 639 111 699 142 c 0,33,34
 832 210 832 210 901 364.5 c 128,-1,35
 970 519 970 519 970 682 c 0,36,37
 970 756 970 756 943 819 c 0,38,39
 889 946 889 946 744 946 c 0,22,23
EndSplineSet
EndChar

StartChar: r
Encoding: 114 114 82
Width: 682
GlyphClass: 2
Flags: W
HStem: 924 180<663.295 856> 1053 20G<364.75 524>
VStem: 141 172<0 172> 369 155<918 1073>
LayerCount: 2
Fore
SplineSet
369 1073 m 1,0,-1
 524 1073 l 1,1,-1
 489 905 l 1,2,3
 586 1015 586 1015 662 1059.5 c 128,-1,4
 738 1104 738 1104 827 1104 c 0,5,6
 855 1104 855 1104 869.5 1101.5 c 128,-1,7
 884 1099 884 1099 893 1098 c 1,8,-1
 856 924 l 1,9,-1
 835 924 l 2,10,11
 509 924 509 924 431 557 c 2,12,-1
 313 0 l 1,13,-1
 141 0 l 1,14,-1
 369 1073 l 1,0,-1
EndSplineSet
EndChar

StartChar: s
Encoding: 115 115 83
Width: 1024
GlyphClass: 2
Flags: W
HStem: -48 158<367.944 728.921> 946 158<521.431 847.557>
VStem: 125 190<161.592 319> 252 180<680.688 859.801> 830 180<201.543 379.896> 883 182<774 909.535>
LayerCount: 2
Fore
SplineSet
1053 774 m 1,0,-1
 881 774 l 1,1,2
 883 800 883 800 883 823 c 128,-1,3
 883 846 883 846 875 864 c 0,4,5
 839 946 839 946 701.5 946 c 128,-1,6
 564 946 564 946 498 883 c 128,-1,7
 432 820 432 820 432 751 c 0,8,9
 432 672 432 672 606 628 c 2,10,-1
 762 590 l 2,11,12
 903 555 903 555 956.5 497.5 c 128,-1,13
 1010 440 1010 440 1010 354 c 0,14,15
 1010 190 1010 190 885.5 71 c 128,-1,16
 761 -48 761 -48 507 -48 c 0,17,18
 236 -48 236 -48 154 98 c 0,19,20
 125 149 125 149 125 203 c 128,-1,21
 125 257 125 257 137 319 c 1,22,-1
 320 319 l 1,23,24
 315 287 315 287 315 267 c 128,-1,25
 315 247 315 247 321 225 c 0,26,27
 353 110 353 110 537 110 c 0,28,29
 744 110 744 110 810 239 c 0,30,31
 830 278 830 278 830 310 c 128,-1,32
 830 342 830 342 804 373 c 128,-1,33
 778 404 778 404 686 428 c 2,34,-1
 535 467 l 2,35,36
 361 511 361 511 306.5 566 c 128,-1,37
 252 621 252 621 252 700 c 128,-1,38
 252 779 252 779 285.5 853.5 c 128,-1,39
 319 928 319 928 375 981 c 0,40,41
 504 1104 504 1104 729 1104 c 0,42,43
 874 1104 874 1104 969.5 1038.5 c 128,-1,44
 1065 973 1065 973 1065 862 c 0,45,46
 1065 829 1065 829 1053 774 c 1,0,-1
EndSplineSet
EndChar

StartChar: t
Encoding: 116 116 84
Width: 569
GlyphClass: 2
Flags: W
HStem: -47 147<377.359 516.544> 936 137<250 367 568 721> 1348 20G<454.729 631>
VStem: 199 176<141.219 348.5> 459 172<1196 1368>
LayerCount: 2
Fore
SplineSet
750 1073 m 1,0,-1
 721 936 l 1,1,-1
 539 936 l 1,2,-1
 379 184 l 2,3,4
 375 164 375 164 375 156 c 128,-1,5
 375 148 375 148 377 141 c 0,6,7
 390 100 390 100 448 100 c 0,8,9
 476 100 476 100 547 117 c 1,10,-1
 515 -33 l 1,11,12
 456 -47 456 -47 402 -47 c 0,13,14
 198 -47 198 -47 199 115 c 0,15,16
 199 146 199 146 206 178 c 2,17,-1
 367 936 l 1,18,-1
 222 936 l 1,19,-1
 250 1073 l 1,20,-1
 396 1073 l 1,21,-1
 459 1368 l 1,22,-1
 631 1368 l 1,23,-1
 568 1073 l 1,24,-1
 750 1073 l 1,0,-1
EndSplineSet
EndChar

StartChar: u
Encoding: 117 117 85
Width: 1139
GlyphClass: 2
Flags: W
HStem: -47 147<410.072 690.042> 1053 20G<357.744 534 1039.76 1216>
VStem: 180 186<144.189 311.142> 362 172<901 1073> 1044 172<901 1073>
LayerCount: 2
Fore
SplineSet
988 0 m 1,0,-1
 833 0 l 1,1,-1
 858 117 l 1,2,3
 769 30 769 30 675.5 -8.5 c 128,-1,4
 582 -47 582 -47 496 -47 c 128,-1,5
 410 -47 410 -47 343.5 -32.5 c 128,-1,6
 277 -18 277 -18 228.5 38.5 c 128,-1,7
 180 95 180 95 180 175 c 0,8,9
 180 216 180 216 186 246 c 2,10,-1
 362 1073 l 1,11,-1
 534 1073 l 1,12,-1
 373 313 l 2,13,14
 366 282 366 282 366 259.5 c 128,-1,15
 366 237 366 237 370 219 c 0,16,17
 397 100 397 100 548 100 c 0,18,19
 602 100 602 100 653 119 c 0,20,21
 755 155 755 155 821.5 246.5 c 128,-1,22
 888 338 888 338 915 465 c 2,23,-1
 1044 1073 l 1,24,-1
 1216 1073 l 1,25,-1
 988 0 l 1,0,-1
EndSplineSet
EndChar

StartChar: v
Encoding: 118 118 86
Width: 1024
GlyphClass: 2
Flags: W
HStem: 1053 20G<250 440.338 1026.45 1225>
VStem: 250 188<885 1073>
LayerCount: 2
Fore
SplineSet
588 0 m 1,0,-1
 402 0 l 1,1,-1
 250 1073 l 1,2,-1
 438 1073 l 1,3,-1
 539 209 l 1,4,-1
 1038 1073 l 1,5,-1
 1225 1073 l 1,6,-1
 588 0 l 1,0,-1
EndSplineSet
EndChar

StartChar: w
Encoding: 119 119 87
Width: 1479
GlyphClass: 2
Flags: W
HStem: 1053 20G<242 428.934 844.731 1069.55 1483.4 1680>
VStem: 242 186<885.408 1073> 920 149<552.541 856> 944 148<238 511.317>
LayerCount: 2
Fore
SplineSet
1139 0 m 1,0,-1
 944 0 l 1,1,-1
 920 856 l 1,2,-1
 521 0 l 1,3,-1
 324 0 l 1,4,-1
 242 1073 l 1,5,-1
 428 1073 l 1,6,-1
 467 238 l 1,7,-1
 854 1073 l 1,8,-1
 1069 1073 l 1,9,-1
 1092 238 l 1,10,-1
 1493 1073 l 1,11,-1
 1680 1073 l 1,12,-1
 1139 0 l 1,0,-1
EndSplineSet
EndChar

StartChar: x
Encoding: 120 120 88
Width: 1024
GlyphClass: 2
Flags: W
HStem: 1053 20G<283 482.16 978.545 1194>
LayerCount: 2
Fore
SplineSet
717 547 m 1,0,-1
 969 0 l 1,1,-1
 776 0 l 1,2,-1
 592 410 l 1,3,-1
 236 0 l 1,4,-1
 35 0 l 1,5,-1
 524 547 l 1,6,-1
 283 1073 l 1,7,-1
 473 1073 l 1,8,-1
 653 680 l 1,9,-1
 996 1073 l 1,10,-1
 1194 1073 l 1,11,-1
 717 547 l 1,0,-1
EndSplineSet
EndChar

StartChar: y
Encoding: 121 121 89
Width: 1024
GlyphClass: 2
Flags: W
HStem: -446 166<44.9155 255.557> 1053 20G<270 456.257 1014.52 1208>
VStem: 270 184<889 1073>
LayerCount: 2
Fore
SplineSet
1026 1073 m 1,0,-1
 1208 1073 l 1,1,-1
 454 -225 l 2,2,3
 388 -339 388 -339 306.5 -392.5 c 128,-1,4
 225 -446 225 -446 117 -446 c 0,5,6
 64 -446 64 -446 16 -426 c 1,7,-1
 49 -272 l 1,8,9
 115 -280 115 -280 155.5 -280 c 128,-1,10
 196 -280 196 -280 228.5 -259 c 128,-1,11
 261 -238 261 -238 303 -174 c 2,12,-1
 409 -8 l 1,13,-1
 270 1073 l 1,14,-1
 454 1073 l 1,15,-1
 548 240 l 1,16,-1
 1026 1073 l 1,0,-1
EndSplineSet
EndChar

StartChar: z
Encoding: 122 122 90
Width: 1024
GlyphClass: 2
Flags: W
HStem: 0 147<301 937> 926 147<337 909>
LayerCount: 2
Fore
SplineSet
1140 1073 m 1,0,-1
 1103 920 l 1,1,-1
 301 147 l 1,2,-1
 968 147 l 1,3,-1
 937 0 l 1,4,-1
 63 0 l 1,5,-1
 100 151 l 1,6,-1
 909 926 l 1,7,-1
 307 926 l 1,8,-1
 337 1073 l 1,9,-1
 1140 1073 l 1,0,-1
EndSplineSet
EndChar

StartChar: braceleft
Encoding: 123 123 91
Width: 684
GlyphClass: 2
Flags: W
HStem: -434 133<377.092 473> 1360 133<712.557 854>
VStem: 200 158<-289.453 -14.2656> 302 156<55.0469 427.694>
LayerCount: 2
Fore
SplineSet
302 313 m 0,0,1
 302 439 302 439 186 459 c 1,2,-1
 217 600 l 1,3,4
 305 615 305 615 354 678.5 c 128,-1,5
 403 742 403 742 434 883 c 2,6,-1
 508 1223 l 2,7,8
 534 1343 534 1343 594 1407 c 0,9,10
 674 1493 674 1493 786 1493 c 2,11,-1
 882 1493 l 1,12,-1
 854 1360 l 1,13,-1
 821 1360 l 2,14,15
 745 1360 745 1360 711.5 1331.5 c 128,-1,16
 678 1303 678 1303 661 1223 c 2,17,-1
 581 852 l 2,18,19
 534 630 534 630 360 531 c 1,20,21
 406 500 406 500 432 462.5 c 128,-1,22
 458 425 458 425 458 343.5 c 128,-1,23
 458 262 458 262 446 207 c 2,24,-1
 366 -164 l 2,25,26
 358 -202 358 -202 358 -229.5 c 128,-1,27
 358 -257 358 -257 376.5 -279 c 128,-1,28
 395 -301 395 -301 469 -301 c 2,29,-1
 501 -301 l 1,30,-1
 473 -434 l 1,31,-1
 376 -434 l 2,32,33
 293 -434 293 -434 246.5 -392 c 128,-1,34
 200 -350 200 -350 200 -286.5 c 128,-1,35
 200 -223 200 -223 213 -164 c 2,36,-1
 284 176 l 2,37,38
 302 260 302 260 302 313 c 0,0,1
EndSplineSet
EndChar

StartChar: bar
Encoding: 124 124 92
Width: 532
GlyphClass: 2
Flags: W
HStem: 1473 20G<518.724 646>
VStem: 111 123<-434 -311> 523 123<1370 1493>
LayerCount: 2
Fore
SplineSet
523 1493 m 1,0,-1
 646 1493 l 1,1,-1
 234 -434 l 1,2,-1
 111 -434 l 1,3,-1
 523 1493 l 1,0,-1
EndSplineSet
EndChar

StartChar: braceright
Encoding: 125 125 93
Width: 684
GlyphClass: 2
Flags: W
HStem: -434 133<-4 136.958> 459 141<576.488 633> 1360 133<377 484.305>
VStem: 391 156<630.861 1003.95> 491 158<1070.61 1350.04>
CounterMasks: 1 e0
LayerCount: 2
Fore
SplineSet
547 736 m 0,0,1
 547 620 547 620 663 600 c 1,2,-1
 633 459 l 1,3,4
 457 430 457 430 416 176 c 1,5,-1
 342 -164 l 2,6,7
 316 -282 316 -282 267 -339.5 c 128,-1,8
 218 -397 218 -397 176 -415.5 c 128,-1,9
 134 -434 134 -434 63 -434 c 2,10,-1
 -33 -434 l 1,11,-1
 -4 -301 l 1,12,-1
 28 -301 l 2,13,14
 105 -301 105 -301 138 -272.5 c 128,-1,15
 171 -244 171 -244 188 -164 c 2,16,-1
 268 207 l 2,17,18
 290 308 290 308 308 352 c 0,19,20
 353 463 353 463 489 529 c 1,21,22
 391 614 391 614 391 742 c 0,23,24
 391 795 391 795 403 852 c 2,25,-1
 483 1223 l 2,26,27
 491 1259 491 1259 491 1290 c 0,28,29
 491 1360 491 1360 381 1360 c 2,30,-1
 348 1360 l 1,31,-1
 377 1493 l 1,32,-1
 473 1493 l 2,33,34
 565 1493 565 1493 607 1439.5 c 128,-1,35
 649 1386 649 1386 649 1333.5 c 128,-1,36
 649 1281 649 1281 637 1223 c 2,37,-1
 565 883 l 2,38,39
 547 797 547 797 547 736 c 0,0,1
EndSplineSet
EndChar

StartChar: asciitilde
Encoding: 126 126 94
Width: 1196
GlyphClass: 2
Flags: W
HStem: 549 139<864.738 1063.85> 762 135<447.391 630.416>
VStem: 1110 107<734.92 842>
LayerCount: 2
Fore
SplineSet
1110 842 m 1,0,-1
 1217 842 l 1,1,2
 1198 729 1198 729 1148 662 c 0,3,4
 1064 549 1064 549 939 549 c 0,5,6
 859 549 859 549 786 603 c 2,7,-1
 614 730 l 2,8,9
 571 762 571 762 543 762 c 128,-1,10
 515 762 515 762 496 754 c 0,11,12
 425 722 425 722 388 600 c 1,13,-1
 281 600 l 1,14,15
 310 707 310 707 351 769 c 0,16,17
 437 897 437 897 564 897 c 0,18,19
 623 897 623 897 668 865 c 2,20,-1
 877 724 l 2,21,22
 930 688 930 688 972 688 c 0,23,24
 1079 688 1079 688 1110 842 c 1,0,-1
EndSplineSet
EndChar

StartChar: exclamdown
Encoding: 161 161 96
Width: 682
GlyphClass: 2
Flags: W
HStem: 862 211<478 604>
VStem: 156 172<-420 -248> 432 172<862 1034> 446 81<684.018 729> 478 172<901 1073>
LayerCount: 2
Fore
SplineSet
156 -420 m 1,0,-1
 308 296 l 1,1,-1
 446 729 l 1,2,-1
 527 729 l 1,3,-1
 480 296 l 1,4,-1
 328 -420 l 1,5,-1
 156 -420 l 1,0,-1
432 862 m 1,6,-1
 478 1073 l 1,7,-1
 650 1073 l 1,8,-1
 604 862 l 1,9,-1
 432 862 l 1,6,-1
EndSplineSet
EndChar

StartChar: cent
Encoding: 162 162 97
Width: 1139
GlyphClass: 2
Flags: W
HStem: -45 160<469.379 541 656 805.272>
VStem: 197 180<210.638 617.159> 498 82<-246 -164> 824 82<1204 1286> 1022 176<713 889.179>
LayerCount: 2
Fore
SplineSet
751 942 m 1,0,1
 641 923 641 923 566 850 c 0,2,3
 465 753 465 753 421 617 c 128,-1,4
 377 481 377 481 377 374 c 128,-1,5
 377 267 377 267 430 197.5 c 128,-1,6
 483 128 483 128 575 115 c 1,7,-1
 751 942 l 1,0,1
1198 804 m 1,8,-1
 1192 713 l 1,9,-1
 1020 713 l 1,10,11
 1022 739 1022 739 1022 777 c 128,-1,12
 1022 815 1022 815 997.5 859 c 128,-1,13
 973 903 973 903 940.5 919.5 c 128,-1,14
 908 936 908 936 834 948 c 1,15,-1
 656 109 l 1,16,17
 864 125 864 125 953 369 c 1,18,-1
 1125 369 l 1,19,20
 1070 172 1070 172 962.5 79 c 128,-1,21
 855 -14 855 -14 700 -38 c 0,22,23
 672 -42 672 -42 623 -47 c 1,24,-1
 580 -246 l 1,25,-1
 498 -246 l 1,26,-1
 541 -45 l 1,27,28
 420 -32 420 -32 340 33 c 0,29,30
 197 148 197 148 197 355 c 128,-1,31
 197 562 197 562 293 762 c 0,32,33
 442 1070 442 1070 785 1102 c 1,34,-1
 824 1286 l 1,35,-1
 906 1286 l 1,36,-1
 867 1102 l 1,37,-1
 880 1102 l 2,38,39
 983 1102 983 1102 1053.5 1052 c 128,-1,40
 1124 1002 1124 1002 1161 935 c 128,-1,41
 1198 868 1198 868 1198 804 c 1,8,-1
EndSplineSet
EndChar

StartChar: sterling
Encoding: 163 163 98
Width: 1139
GlyphClass: 2
Flags: W
HStem: -48 190<652.758 1009.08> 47 157<356.117 592.111> 657 113<219 389 610 891> 1335 158<691.078 1029.56>
VStem: 328 197<825.129 1167.34> 446 170<411.861 654.791> 1106 180<1020.76 1263.24>
LayerCount: 2
Fore
SplineSet
446 555 m 0,0,1
 446 586 446 586 426 657 c 1,2,-1
 194 657 l 1,3,-1
 219 770 l 1,4,-1
 389 770 l 1,5,-1
 371 815 l 2,6,7
 328 919 328 919 328 973 c 128,-1,8
 328 1027 328 1027 338 1069 c 0,9,10
 383 1255 383 1255 547 1374 c 128,-1,11
 711 1493 711 1493 905 1493 c 0,12,13
 989 1493 989 1493 1067 1468 c 0,14,15
 1198 1427 1198 1427 1252 1326 c 0,16,17
 1286 1262 1286 1262 1286 1194.5 c 128,-1,18
 1286 1127 1286 1127 1268 1018 c 1,19,-1
 1087 1018 l 1,20,21
 1106 1086 1106 1086 1106 1149 c 128,-1,22
 1106 1212 1106 1212 1063 1261 c 0,23,24
 998 1335 998 1335 869 1335 c 0,25,26
 814 1335 814 1335 760 1319 c 0,27,28
 647 1284 647 1284 586 1199 c 128,-1,29
 525 1114 525 1114 525 1007 c 0,30,31
 525 953 525 953 550 882 c 128,-1,32
 575 811 575 811 588 770 c 1,33,-1
 915 770 l 1,34,-1
 891 657 l 1,35,-1
 610 657 l 1,36,-1
 616 578 l 2,37,38
 616 556 616 556 610 526 c 0,39,40
 589 425 589 425 537.5 352 c 128,-1,41
 486 279 486 279 346 176 c 0,42,43
 323 159 323 159 278 125 c 1,44,45
 439 204 439 204 552 204 c 0,46,47
 605 204 605 204 696.5 173 c 128,-1,48
 788 142 788 142 852.5 142 c 128,-1,49
 917 142 917 142 956.5 155 c 128,-1,50
 996 168 996 168 1061 206 c 1,51,-1
 1112 63 l 1,52,53
 976 -48 976 -48 822 -48 c 0,54,55
 719 -48 719 -48 536 24 c 0,56,57
 477 47 477 47 388.5 47 c 128,-1,58
 300 47 300 47 166 -29 c 1,59,-1
 90 106 l 1,60,61
 446 340 446 340 446 555 c 0,0,1
EndSplineSet
EndChar

StartChar: yen
Encoding: 165 165 99
Width: 1139
GlyphClass: 2
Flags: W
HStem: 358 104<227 562 765 1095> 621 104<283 597 859 1151>
VStem: 486 180<0 180>
LayerCount: 2
Fore
SplineSet
1173 725 m 1,0,-1
 1151 621 l 1,1,-1
 798 621 l 1,2,-1
 765 462 l 1,3,-1
 1117 462 l 1,4,-1
 1095 358 l 1,5,-1
 742 358 l 1,6,-1
 666 0 l 1,7,-1
 486 0 l 1,8,-1
 562 358 l 1,9,-1
 205 358 l 1,10,-1
 227 462 l 1,11,-1
 584 462 l 1,12,-1
 618 621 l 1,13,-1
 261 621 l 1,14,-1
 283 725 l 1,15,-1
 597 725 l 1,16,-1
 332 1452 l 1,17,-1
 507 1452 l 1,18,-1
 745 793 l 1,19,-1
 1252 1452 l 1,20,-1
 1426 1452 l 1,21,-1
 859 725 l 1,22,-1
 1173 725 l 1,0,-1
EndSplineSet
EndChar

StartChar: section
Encoding: 167 167 100
Width: 1139
GlyphClass: 2
Flags: W
HStem: -436 157<359.769 630.508> 1073 21G<1006 1179.5> 1335 158<726.447 981.739>
VStem: 129 180<-228.787 -30.981> 213 180<513.443 732.104> 453 188<1041.03 1253.53> 717 188<-189.266 44.3792> 965 180<366.447 594.464> 1026 180<1074.13 1290.78>
LayerCount: 2
Fore
SplineSet
1178 1073 m 1,0,-1
 1006 1073 l 1,1,2
 1026 1130 1026 1130 1026 1168.5 c 128,-1,3
 1026 1207 1026 1207 1015 1243.5 c 128,-1,4
 1004 1280 1004 1280 959.5 1307.5 c 128,-1,5
 915 1335 915 1335 847.5 1335 c 128,-1,6
 780 1335 780 1335 710.5 1279 c 128,-1,7
 641 1223 641 1223 641 1132 c 0,8,9
 641 1088 641 1088 662 1064 c 128,-1,10
 683 1040 683 1040 727 1005 c 2,11,-1
 987 799 l 2,12,13
 1072 731 1072 731 1096 699 c 0,14,15
 1145 634 1145 634 1145 556.5 c 128,-1,16
 1145 479 1145 479 1115 400 c 0,17,18
 1043 211 1043 211 844 145 c 1,19,20
 905 60 905 60 905 -32 c 0,21,22
 906 -124 906 -124 854 -208 c 0,23,24
 714 -436 714 -436 461 -436 c 1,25,26
 310 -436 310 -436 219.5 -359 c 128,-1,27
 129 -282 129 -282 129 -153 c 0,28,29
 129 -98 129 -98 152 -29 c 1,30,-1
 326 -29 l 1,31,32
 309 -87 309 -87 309 -131 c 128,-1,33
 309 -175 309 -175 342 -216 c 0,34,35
 393 -279 393 -279 498 -279 c 128,-1,36
 603 -279 603 -279 660 -207 c 128,-1,37
 717 -135 717 -135 717 -80 c 128,-1,38
 717 -25 717 -25 699.5 8 c 128,-1,39
 682 41 682 41 639 78 c 2,40,-1
 342 332 l 2,41,42
 274 390 274 390 243.5 443 c 128,-1,43
 213 496 213 496 213 546.5 c 128,-1,44
 213 597 213 597 225 645 c 0,45,46
 259 776 259 776 358 859 c 0,47,48
 395 889 395 889 506 948 c 1,49,50
 453 1017 453 1017 453 1106 c 0,51,52
 453 1243 453 1243 580 1368 c 128,-1,53
 707 1493 707 1493 877.5 1493 c 128,-1,54
 1048 1493 1048 1493 1136 1399 c 0,55,56
 1206 1325 1206 1325 1206 1217 c 0,57,58
 1206 1169 1206 1169 1193.5 1128.5 c 128,-1,59
 1181 1088 1181 1088 1178 1073 c 1,0,-1
766 221 m 1,60,61
 965 323 965 323 965 473 c 0,62,63
 965 571 965 571 856 659 c 2,64,-1
 588 876 l 1,65,66
 529 843 529 843 493 815 c 0,67,68
 393 739 393 739 393 632 c 0,69,70
 393 570 393 570 419 536 c 128,-1,71
 445 502 445 502 483 469 c 2,72,-1
 766 221 l 1,60,61
EndSplineSet
EndChar

StartChar: dieresis
Encoding: 168 168 101
Width: 682
GlyphClass: 2
Flags: W
HStem: 1253 211<371 539 701 869>
VStem: 326 213<1253 1466> 371 213<1251 1464> 656 213<1253 1466> 701 213<1251 1464>
LayerCount: 2
Fore
SplineSet
584 1464 m 1,0,-1
 539 1253 l 1,1,-1
 326 1253 l 1,2,-1
 371 1464 l 1,3,-1
 584 1464 l 1,0,-1
914 1464 m 1,4,-1
 869 1253 l 1,5,-1
 656 1253 l 1,6,-1
 701 1464 l 1,7,-1
 914 1464 l 1,4,-1
EndSplineSet
EndChar

StartChar: copyright
Encoding: 169 169 102
Width: 1509
GlyphClass: 2
Flags: W
HStem: -45 127<555.63 1012.37> 258 127<733.854 981.908> 1085 127<851.878 1115.37> 1393 127<811.376 1280.78>
VStem: 113 143<378.228 839.189> 511 148<459.645 834.134> 1159 146<895 1026.74> 1569 143<638.355 1099.85>
LayerCount: 2
Fore
SplineSet
853 385 m 0,0,1
 1027 385 1027 385 1121 639 c 1,2,-1
 1267 639 l 1,3,4
 1200 476 1200 476 1131 402 c 0,5,6
 999 258 999 258 821 258 c 0,7,8
 754 258 754 258 696 280 c 0,9,10
 577 324 577 324 532 455 c 0,11,12
 511 518 511 518 511 616 c 128,-1,13
 511 714 511 714 553.5 830.5 c 128,-1,14
 596 947 596 947 670 1035 c 0,15,16
 818 1212 818 1212 1031 1212 c 0,17,18
 1300 1212 1300 1212 1305 895 c 1,19,-1
 1159 895 l 1,20,21
 1155 988 1155 988 1126 1028 c 0,22,23
 1085 1085 1085 1085 1001 1085 c 0,24,25
 850 1085 850 1085 754.5 938.5 c 128,-1,26
 659 792 659 792 659 617 c 0,27,28
 658 470 658 470 758 412 c 0,29,30
 804 386 804 386 853 385 c 0,0,1
113 576 m 0,31,32
 112 880 112 880 330 1145 c 0,33,34
 484 1332 484 1332 687 1426 c 128,-1,35
 890 1520 890 1520 1063.5 1520 c 128,-1,36
 1237 1520 1237 1520 1365 1461 c 0,37,38
 1582 1360 1582 1360 1667 1145 c 0,39,40
 1712 1030 1712 1030 1712 878 c 128,-1,41
 1712 726 1712 726 1633 553 c 0,42,43
 1506 274 1506 274 1253 114.5 c 128,-1,44
 1000 -45 1000 -45 739 -45 c 0,45,46
 591 -45 591 -45 460 15 c 0,47,48
 244 113 244 113 158 331 c 0,49,50
 113 446 113 446 113 576 c 0,31,32
1464 1201 m 0,51,52
 1318 1393 1318 1393 1050 1393 c 1,53,54
 922 1393 922 1393 796 1343 c 0,55,56
 526 1236 526 1236 373 989 c 0,57,58
 256 799 256 799 256 600 c 0,59,60
 256 541 256 541 267 487 c 0,61,62
 306 290 306 290 450 186 c 128,-1,63
 594 82 594 82 788 82 c 128,-1,64
 982 82 982 82 1190 216 c 128,-1,65
 1398 350 1398 350 1503 583 c 0,66,67
 1569 729 1569 729 1569 897 c 128,-1,68
 1569 1065 1569 1065 1464 1201 c 0,51,52
EndSplineSet
EndChar

StartChar: ordfeminine
Encoding: 170 170 103
Width: 758
GlyphClass: 2
Flags: W
HStem: 621 104<242 809> 817 102<419.522 638.624 792 866> 1415 105<537.238 774.649>
VStem: 278 123<932.231 1083.11> 782 121<1282.15 1401.5>
LayerCount: 2
Fore
SplineSet
831 725 m 1,0,-1
 809 621 l 1,1,-1
 219 621 l 1,2,-1
 242 725 l 1,3,-1
 831 725 l 1,0,-1
472 817 m 0,4,5
 278 817 278 817 278 981 c 0,6,7
 278 1099 278 1099 381 1163 c 0,8,9
 425 1191 425 1191 479.5 1204 c 128,-1,10
 534 1217 534 1217 628 1226 c 128,-1,11
 722 1235 722 1235 744 1247 c 0,12,13
 765 1259 765 1259 773.5 1293.5 c 128,-1,14
 782 1328 782 1328 782 1342 c 0,15,16
 782 1414 782 1414 655 1415 c 0,17,18
 576 1415 576 1415 541.5 1382 c 128,-1,19
 507 1349 507 1349 491 1298 c 1,20,-1
 377 1298 l 1,21,22
 395 1365 395 1365 408 1392.5 c 128,-1,23
 421 1420 421 1420 446 1443 c 0,24,25
 526 1520 526 1520 689 1520 c 0,26,27
 815 1520 815 1520 869 1466 c 0,28,29
 903 1432 903 1432 903 1394.5 c 128,-1,30
 903 1357 903 1357 901 1347 c 2,31,-1
 817 958 l 2,32,33
 815 949 815 949 815 944 c 0,34,35
 815 915 815 915 850 915 c 0,36,37
 855 915 855 915 864.5 916.5 c 128,-1,38
 874 918 874 918 885 919 c 1,39,-1
 866 829 l 1,40,41
 852 827 852 827 830 822 c 128,-1,42
 808 817 808 817 792 817 c 0,43,44
 705 817 705 817 696 905 c 1,45,46
 603 817 603 817 472 817 c 0,4,5
743 1159 m 1,47,48
 699 1144 699 1144 599.5 1130.5 c 128,-1,49
 500 1117 500 1117 450.5 1086.5 c 128,-1,50
 401 1056 401 1056 401 994 c 0,51,52
 401 950 401 950 432 934.5 c 128,-1,53
 463 919 463 919 517.5 919 c 128,-1,54
 572 919 572 919 642 959.5 c 128,-1,55
 712 1000 712 1000 723 1054 c 2,56,-1
 743 1159 l 1,47,48
EndSplineSet
EndChar

StartChar: guillemotleft
Encoding: 171 171 104
Width: 1139
GlyphClass: 2
Flags: W
HStem: 217 680
LayerCount: 2
Fore
SplineSet
301 466 m 1,0,-1
 340 648 l 1,1,-1
 702 897 l 1,2,-1
 666 726 l 1,3,-1
 417 554 l 1,4,-1
 594 385 l 1,5,-1
 558 217 l 1,6,-1
 301 466 l 1,0,-1
721 466 m 1,7,-1
 759 648 l 1,8,-1
 1122 897 l 1,9,-1
 1086 726 l 1,10,-1
 837 554 l 1,11,-1
 1014 385 l 1,12,-1
 978 217 l 1,13,-1
 721 466 l 1,7,-1
EndSplineSet
EndChar

StartChar: logicalnot
Encoding: 172 172 105
Width: 1196
GlyphClass: 2
Flags: W
HStem: 625 147<233 1094>
VStem: 999 143<176 319>
LayerCount: 2
Fore
SplineSet
233 772 m 1,0,-1
 1268 772 l 1,1,-1
 1142 176 l 1,2,-1
 999 176 l 1,3,-1
 1094 625 l 1,4,-1
 203 625 l 1,5,-1
 233 772 l 1,0,-1
EndSplineSet
EndChar

StartChar: registered
Encoding: 174 174 106
Width: 1509
GlyphClass: 2
Flags: W
HStem: -45 127<555.63 1012.37> 665 130<727 1074.27> 1068 130<785 1166.3> 1393 127<811.376 1280.78>
VStem: 113 143<378.228 839.189> 475 144<287 431> 1045 154<287 315.672 337.752 604.488> 1083 146<371.58 653.529> 1179 155<847.486 1051.75> 1569 143<638.355 1099.85>
LayerCount: 2
Fore
SplineSet
1083 583 m 0,0,1
 1083 665 1083 665 973 665 c 2,2,-1
 699 665 l 1,3,-1
 619 287 l 1,4,-1
 475 287 l 1,5,-1
 669 1198 l 1,6,-1
 1090 1198 l 2,7,8
 1334 1198 1334 1198 1334 1014 c 0,9,10
 1334 928 1334 928 1299 862 c 128,-1,11
 1264 796 1264 796 1171 737 c 1,12,13
 1205 710 1205 710 1217 686.5 c 128,-1,14
 1229 663 1229 663 1229 628 c 128,-1,15
 1229 593 1229 593 1214 508.5 c 128,-1,16
 1199 424 1199 424 1199 392.5 c 128,-1,17
 1199 361 1199 361 1224 337 c 1,18,-1
 1213 287 l 1,19,-1
 1052 287 l 1,20,21
 1045 318 1045 318 1045 348 c 0,22,23
 1045 401 1045 401 1064 477.5 c 128,-1,24
 1083 554 1083 554 1083 583 c 0,0,1
1179 975 m 0,25,26
 1179 1068 1179 1068 1049 1068 c 2,27,-1
 785 1068 l 1,28,-1
 727 795 l 1,29,-1
 991 795 l 2,30,31
 1094 795 1094 795 1136.5 849 c 128,-1,32
 1179 903 1179 903 1179 975 c 0,25,26
113 576 m 0,33,34
 112 880 112 880 330 1145 c 0,35,36
 484 1332 484 1332 687 1426 c 128,-1,37
 890 1520 890 1520 1063.5 1520 c 128,-1,38
 1237 1520 1237 1520 1365 1461 c 0,39,40
 1582 1360 1582 1360 1667 1145 c 0,41,42
 1712 1030 1712 1030 1712 878 c 128,-1,43
 1712 726 1712 726 1633 553 c 0,44,45
 1506 274 1506 274 1253 114.5 c 128,-1,46
 1000 -45 1000 -45 739 -45 c 0,47,48
 591 -45 591 -45 460 15 c 0,49,50
 244 113 244 113 158 331 c 0,51,52
 113 446 113 446 113 576 c 0,33,34
1464 1201 m 0,53,54
 1318 1393 1318 1393 1050 1393 c 1,55,56
 922 1393 922 1393 796 1343 c 0,57,58
 526 1236 526 1236 373 989 c 0,59,60
 256 799 256 799 256 600 c 0,61,62
 256 541 256 541 267 487 c 0,63,64
 306 290 306 290 450 186 c 128,-1,65
 594 82 594 82 788 82 c 128,-1,66
 982 82 982 82 1190 216 c 128,-1,67
 1398 350 1398 350 1503 583 c 0,68,69
 1569 729 1569 729 1569 897 c 128,-1,70
 1569 1065 1569 1065 1464 1201 c 0,53,54
EndSplineSet
EndChar

StartChar: macron
Encoding: 175 175 107
Width: 682
GlyphClass: 2
Flags: W
HStem: 1285 141<359 891>
VStem: 328 594
LayerCount: 2
Fore
SplineSet
922 1426 m 1,0,-1
 891 1285 l 1,1,-1
 328 1285 l 1,2,-1
 359 1426 l 1,3,-1
 922 1426 l 1,0,-1
EndSplineSet
EndChar

StartChar: degree
Encoding: 176 176 108
Width: 819
GlyphClass: 2
Flags: W
HStem: 784 88<566.482 826.117> 1317 88<564.42 825.013>
VStem: 385 92<958.502 1228.25> 914 92<960.137 1229.79>
LayerCount: 2
Fore
SplineSet
695 1405 m 0,0,1
 758 1405 758 1405 814 1381 c 0,2,3
 908 1342 908 1342 957 1262 c 128,-1,4
 1006 1182 1006 1182 1006 1107.5 c 128,-1,5
 1006 1033 1006 1033 976 960.5 c 128,-1,6
 946 888 946 888 867.5 836 c 128,-1,7
 789 784 789 784 678 784 c 128,-1,8
 567 784 567 784 476 875 c 128,-1,9
 385 966 385 966 385 1096 c 128,-1,10
 385 1226 385 1226 477 1315.5 c 128,-1,11
 569 1405 569 1405 695 1405 c 0,0,1
696 1317 m 0,12,13
 579 1317 579 1317 514 1218 c 0,14,15
 477 1162 477 1162 477 1106 c 128,-1,16
 477 1050 477 1050 498 999 c 128,-1,17
 519 948 519 948 574 910 c 128,-1,18
 629 872 629 872 683.5 872 c 128,-1,19
 738 872 738 872 789.5 894 c 128,-1,20
 841 916 841 916 877.5 971.5 c 128,-1,21
 914 1027 914 1027 914 1107.5 c 128,-1,22
 914 1188 914 1188 849.5 1252.5 c 128,-1,23
 785 1317 785 1317 696 1317 c 0,12,13
EndSplineSet
EndChar

StartChar: plusminus
Encoding: 177 177 109
Width: 1196
GlyphClass: 2
Flags: W
HStem: 0 147<133 1093> 732 147<288 681 856 1249>
VStem: 590 145<305 450> 801 144<1152 1296>
LayerCount: 2
Fore
SplineSet
1280 879 m 1,0,-1
 1249 732 l 1,1,-1
 825 732 l 1,2,-1
 735 305 l 1,3,-1
 590 305 l 1,4,-1
 681 732 l 1,5,-1
 257 732 l 1,6,-1
 288 879 l 1,7,-1
 711 879 l 1,8,-1
 801 1296 l 1,9,-1
 945 1296 l 1,10,-1
 856 879 l 1,11,-1
 1280 879 l 1,0,-1
1124 147 m 1,12,-1
 1093 0 l 1,13,-1
 102 0 l 1,14,-1
 133 147 l 1,15,-1
 1124 147 l 1,12,-1
EndSplineSet
EndChar

StartChar: acute
Encoding: 180 180 110
Width: 682
GlyphClass: 2
Flags: W
HStem: 1212 304
VStem: 446 492
LayerCount: 2
Fore
SplineSet
708 1516 m 1,0,-1
 938 1516 l 1,1,-1
 569 1212 l 1,2,-1
 446 1212 l 1,3,-1
 708 1516 l 1,0,-1
EndSplineSet
EndChar

StartChar: mu
Encoding: 181 181 111
Width: 1139
GlyphClass: 2
Flags: W
HStem: -451 21G<37 213.233> -47 141<424.878 674.731 932.952 1108.77> 1053 20G<356.748 533 1038.76 1215>
VStem: 37 172<-451 -279> 361 172<901 1073> 1043 172<901 1073>
LayerCount: 2
Fore
SplineSet
1022 157 m 0,0,1
 1022 94 1022 94 1100 94 c 0,2,3
 1115 94 1115 94 1135 100 c 1,4,-1
 1106 -29 l 1,5,-1
 1079 -35 l 2,6,7
 1029 -47 1029 -47 971 -47 c 0,8,9
 842 -47 842 -47 842 84 c 0,10,11
 842 97 842 97 848 123 c 1,12,13
 685 -47 685 -47 473 -47 c 0,14,15
 368 -47 368 -47 307 12 c 1,16,-1
 209 -451 l 1,17,-1
 37 -451 l 1,18,-1
 361 1073 l 1,19,-1
 533 1073 l 1,20,-1
 375 328 l 2,21,22
 369 300 369 300 369 265 c 0,23,24
 369 189 369 189 416 145.5 c 128,-1,25
 463 102 463 102 545 102 c 0,26,27
 667 102 667 102 771.5 195 c 128,-1,28
 876 288 876 288 914 465 c 2,29,-1
 1043 1073 l 1,30,-1
 1215 1073 l 1,31,-1
 1024 180 l 2,32,33
 1022 170 1022 170 1022 157 c 0,0,1
EndSplineSet
EndChar

StartChar: paragraph
Encoding: 182 182 112
Width: 1100
GlyphClass: 2
Flags: W
HStem: 1362 131<942 1112 1243 1358>
VStem: 444 131<-365 -234> 745 131<-365 -234>
LayerCount: 2
Fore
SplineSet
1387 1493 m 1,0,-1
 1358 1362 l 1,1,-1
 1243 1362 l 1,2,-1
 876 -365 l 1,3,-1
 745 -365 l 1,4,-1
 1112 1362 l 1,5,-1
 942 1362 l 1,6,-1
 575 -365 l 1,7,-1
 444 -365 l 1,8,-1
 634 530 l 1,9,10
 483 535 483 535 390 627.5 c 128,-1,11
 297 720 297 720 297 892 c 0,12,13
 297 994 297 994 340 1102 c 128,-1,14
 383 1210 383 1210 464.5 1302 c 128,-1,15
 546 1394 546 1394 658.5 1443.5 c 128,-1,16
 771 1493 771 1493 875 1493 c 2,17,-1
 1387 1493 l 1,0,-1
EndSplineSet
EndChar

StartChar: periodcentered
Encoding: 183 183 113
Width: 569
GlyphClass: 2
Flags: W
HStem: 466 213<369 537>
VStem: 324 213<466 679> 369 213<466 679>
LayerCount: 2
Fore
SplineSet
582 679 m 1,0,-1
 537 466 l 1,1,-1
 324 466 l 1,2,-1
 369 679 l 1,3,-1
 582 679 l 1,0,-1
EndSplineSet
EndChar

StartChar: cedilla
Encoding: 184 184 114
Width: 682
GlyphClass: 2
Flags: W
HStem: -438 88<91.5642 349.463>
VStem: 381 160<-321.506 -193.08>
LayerCount: 2
Fore
SplineSet
362 -205.5 m 128,-1,1
 343 -192 343 -192 327 -192 c 128,-1,2
 311 -192 311 -192 262 -201 c 1,3,-1
 235 -188 l 1,4,-1
 338 0 l 1,5,-1
 422 0 l 1,6,-1
 360 -115 l 1,7,8
 391 -111 391 -111 404 -111 c 0,9,10
 461 -111 461 -111 501 -141.5 c 128,-1,11
 541 -172 541 -172 541 -217.5 c 128,-1,12
 541 -263 541 -263 514 -310 c 0,13,14
 440 -438 440 -438 245 -438 c 0,15,16
 140 -438 140 -438 2 -369 c 1,17,-1
 59 -291 l 1,18,19
 173 -350 173 -350 241 -350 c 128,-1,20
 309 -350 309 -350 345 -318.5 c 128,-1,21
 381 -287 381 -287 381 -237 c 0,22,0
 381 -219 381 -219 362 -205.5 c 128,-1,1
EndSplineSet
EndChar

StartChar: ordmasculine
Encoding: 186 186 115
Width: 748
GlyphClass: 2
Flags: W
HStem: 621 104<256 772> 817 106<457.753 683.097> 1414 106<546.24 770.699>
VStem: 305 123<952.369 1274.41> 802 123<1068.84 1384.64>
LayerCount: 2
Fore
SplineSet
794 725 m 1,0,-1
 772 621 l 1,1,-1
 233 621 l 1,2,-1
 256 725 l 1,3,-1
 794 725 l 1,0,-1
527.5 1482 m 128,-1,5
 603 1520 603 1520 677 1520 c 0,6,7
 818 1520 818 1520 871.5 1446 c 128,-1,8
 925 1372 925 1372 925 1289 c 0,9,10
 924 1206 924 1206 896 1114 c 0,11,12
 805 818 805 818 537 817 c 0,13,14
 439 817 439 817 372 876.5 c 128,-1,15
 305 936 305 936 305 1032.5 c 128,-1,16
 305 1129 305 1129 332.5 1224 c 128,-1,17
 360 1319 360 1319 406 1381.5 c 128,-1,4
 452 1444 452 1444 527.5 1482 c 128,-1,5
428 1075 m 0,18,19
 428 923 428 923 566 923 c 0,20,21
 613 923 613 923 651 944 c 0,22,23
 730 987 730 987 766 1079.5 c 128,-1,24
 802 1172 802 1172 802 1265 c 0,25,26
 802 1293 802 1293 794 1322 c 0,27,28
 769 1414 769 1414 668 1414 c 0,29,30
 621 1414 621 1414 579 1391 c 0,31,32
 499 1348 499 1348 463.5 1254 c 128,-1,33
 428 1160 428 1160 428 1075 c 0,18,19
EndSplineSet
EndChar

StartChar: guillemotright
Encoding: 187 187 116
Width: 1139
GlyphClass: 2
Flags: W
HStem: 217 680
LayerCount: 2
Fore
SplineSet
654 648 m 1,0,-1
 615 467 l 1,1,-1
 248 217 l 1,2,-1
 284 388 l 1,3,-1
 537 560 l 1,4,-1
 356 729 l 1,5,-1
 393 897 l 1,6,-1
 654 648 l 1,0,-1
1061 648 m 1,7,-1
 1022 467 l 1,8,-1
 656 217 l 1,9,-1
 692 388 l 1,10,-1
 945 560 l 1,11,-1
 764 729 l 1,12,-1
 800 897 l 1,13,-1
 1061 648 l 1,7,-1
EndSplineSet
EndChar

StartChar: questiondown
Encoding: 191 191 117
Width: 1251
GlyphClass: 2
Flags: W
HStem: -444 158<437.352 757.301> 862 211<791 930>
VStem: 176 195<-222.811 43.6904> 745 185<862 1047> 791 184<889 1073> 913 174<-139 35>
LayerCount: 2
Fore
SplineSet
704 666 m 1,0,-1
 888 666 l 1,1,-1
 864 553 l 2,2,3
 845 462 845 462 798.5 406.5 c 128,-1,4
 752 351 752 351 612.5 241.5 c 128,-1,5
 473 132 473 132 422 53.5 c 128,-1,6
 371 -25 371 -25 371 -107 c 128,-1,7
 371 -189 371 -189 430.5 -237.5 c 128,-1,8
 490 -286 490 -286 608 -286 c 0,9,10
 848 -286 848 -286 913 35 c 1,11,-1
 1087 35 l 1,12,13
 991 -444 991 -444 544 -444 c 0,14,15
 301 -444 301 -444 211 -279 c 0,16,17
 176 -215 176 -215 176 -148 c 0,18,19
 176 2 176 2 280 140 c 0,20,21
 336 213 336 213 462.5 309.5 c 128,-1,22
 589 406 589 406 629 453.5 c 128,-1,23
 669 501 669 501 683 570 c 2,24,-1
 704 666 l 1,0,-1
745 862 m 1,25,-1
 791 1073 l 1,26,-1
 975 1073 l 1,27,-1
 930 862 l 1,28,-1
 745 862 l 1,25,-1
EndSplineSet
EndChar

StartChar: Agrave
Encoding: 192 192 118
Width: 1366
GlyphClass: 2
Flags: W
HStem: 449 160<580 1053> 1473 20G<873.614 1133.77>
VStem: 1129 209<0 209>
LayerCount: 2
Fore
SplineSet
1073 449 m 1,0,-1
 490 449 l 1,1,-1
 238 0 l 1,2,-1
 35 0 l 1,3,-1
 885 1493 l 1,4,-1
 1131 1493 l 1,5,-1
 1338 0 l 1,6,-1
 1129 0 l 1,7,-1
 1073 449 l 1,0,-1
1053 609 m 1,8,-1
 971 1290 l 1,9,-1
 580 609 l 1,10,-1
 1053 609 l 1,8,-1
989 1923 m 1,11,-1
 1136 1620 l 1,12,-1
 1027 1620 l 1,13,-1
 772 1923 l 1,14,-1
 989 1923 l 1,11,-1
EndSplineSet
EndChar

StartChar: Aacute
Encoding: 193 193 119
Width: 1366
GlyphClass: 2
Flags: W
HStem: 449 160<580 1053> 1473 20G<873.614 1133.77>
VStem: 1129 209<0 209>
LayerCount: 2
Fore
SplineSet
1073 449 m 1,0,-1
 490 449 l 1,1,-1
 238 0 l 1,2,-1
 35 0 l 1,3,-1
 885 1493 l 1,4,-1
 1131 1493 l 1,5,-1
 1338 0 l 1,6,-1
 1129 0 l 1,7,-1
 1073 449 l 1,0,-1
1053 609 m 1,8,-1
 971 1290 l 1,9,-1
 580 609 l 1,10,-1
 1053 609 l 1,8,-1
1137 1923 m 1,11,-1
 1366 1923 l 1,12,-1
 998 1620 l 1,13,-1
 875 1620 l 1,14,-1
 1137 1923 l 1,11,-1
EndSplineSet
EndChar

StartChar: Acircumflex
Encoding: 194 194 120
Width: 1366
GlyphClass: 2
Flags: W
HStem: 449 160<580 1053> 1473 20G<873.614 1133.77>
VStem: 1129 209<0 209>
LayerCount: 2
Fore
SplineSet
1073 449 m 1,0,-1
 490 449 l 1,1,-1
 238 0 l 1,2,-1
 35 0 l 1,3,-1
 885 1493 l 1,4,-1
 1131 1493 l 1,5,-1
 1338 0 l 1,6,-1
 1129 0 l 1,7,-1
 1073 449 l 1,0,-1
1053 609 m 1,8,-1
 971 1290 l 1,9,-1
 580 609 l 1,10,-1
 1053 609 l 1,8,-1
996 1925 m 1,11,-1
 1188 1925 l 1,12,-1
 1321 1618 l 1,13,-1
 1190 1618 l 1,14,-1
 1075 1821 l 1,15,-1
 864 1618 l 1,16,-1
 733 1618 l 1,17,-1
 996 1925 l 1,11,-1
EndSplineSet
EndChar

StartChar: Atilde
Encoding: 195 195 121
Width: 1366
GlyphClass: 2
Flags: W
HStem: 449 160<580 1053> 1473 20G<873.614 1133.77> 1663 142<1013.55 1262.88> 1728 142<821.189 1060.2>
VStem: 1129 209<0 209>
LayerCount: 2
Fore
SplineSet
1073 449 m 1,0,-1
 490 449 l 1,1,-1
 238 0 l 1,2,-1
 35 0 l 1,3,-1
 885 1493 l 1,4,-1
 1131 1493 l 1,5,-1
 1338 0 l 1,6,-1
 1129 0 l 1,7,-1
 1073 449 l 1,0,-1
1053 609 m 1,8,-1
 971 1290 l 1,9,-1
 580 609 l 1,10,-1
 1053 609 l 1,8,-1
1393 1880 m 1,11,12
 1361 1782 1361 1782 1300.5 1722.5 c 128,-1,13
 1240 1663 1240 1663 1179.5 1663 c 128,-1,14
 1119 1663 1119 1663 1022 1695.5 c 128,-1,15
 925 1728 925 1728 909 1728 c 128,-1,16
 893 1728 893 1728 868 1722 c 128,-1,17
 843 1716 843 1716 817 1679 c 0,18,19
 813 1673 813 1673 804 1660 c 1,20,-1
 694 1660 l 1,21,22
 727 1755 727 1755 756 1792 c 0,23,24
 817 1870 817 1870 908 1870 c 0,25,26
 954 1870 954 1870 1051.5 1837.5 c 128,-1,27
 1149 1805 1149 1805 1184.5 1805 c 128,-1,28
 1220 1805 1220 1805 1240 1823.5 c 128,-1,29
 1260 1842 1260 1842 1284 1880 c 1,30,-1
 1393 1880 l 1,11,12
EndSplineSet
EndChar

StartChar: Adieresis
Encoding: 196 196 122
Width: 1366
GlyphClass: 2
Flags: W
HStem: 449 160<580 1053> 1473 20G<873.614 1133.77> 1660 211<813 980 1142 1310>
VStem: 768 212<1660 1872> 813 213<1658 1871> 1097 213<1660 1873> 1129 209<0 209> 1142 213<1658 1871>
LayerCount: 2
Fore
SplineSet
1073 449 m 1,0,-1
 490 449 l 1,1,-1
 238 0 l 1,2,-1
 35 0 l 1,3,-1
 885 1493 l 1,4,-1
 1131 1493 l 1,5,-1
 1338 0 l 1,6,-1
 1129 0 l 1,7,-1
 1073 449 l 1,0,-1
1053 609 m 1,8,-1
 971 1290 l 1,9,-1
 580 609 l 1,10,-1
 1053 609 l 1,8,-1
1026 1871 m 1,11,-1
 980 1660 l 1,12,-1
 768 1660 l 1,13,-1
 813 1871 l 1,14,-1
 1026 1871 l 1,11,-1
1355 1871 m 1,15,-1
 1310 1660 l 1,16,-1
 1097 1660 l 1,17,-1
 1142 1871 l 1,18,-1
 1355 1871 l 1,15,-1
EndSplineSet
EndChar

StartChar: Aring
Encoding: 197 197 123
Width: 1366
GlyphClass: 2
Flags: W
HStem: 449 160<580 1053> 1473 20G<873.614 1133.77> 1594 89<970.11 1122.5> 1863 89<989.806 1133.77>
VStem: 871 94<1687.77 1839.01> 1129 209<0 209> 1147 92<1707.24 1850.21>
LayerCount: 2
Fore
SplineSet
1073 449 m 1,0,-1
 490 449 l 1,1,-1
 238 0 l 1,2,-1
 35 0 l 1,3,-1
 885 1493 l 1,4,-1
 1131 1493 l 1,5,-1
 1338 0 l 1,6,-1
 1129 0 l 1,7,-1
 1073 449 l 1,0,-1
1053 609 m 1,8,-1
 971 1290 l 1,9,-1
 580 609 l 1,10,-1
 1053 609 l 1,8,-1
1092 1952 m 0,11,12
 1128 1952 1128 1952 1159 1938 c 0,13,14
 1239 1901 1239 1901 1239 1816.5 c 128,-1,15
 1239 1732 1239 1732 1173 1663 c 128,-1,16
 1107 1594 1107 1594 1015 1594 c 0,17,18
 981 1594 981 1594 951 1608 c 0,19,20
 871 1646 871 1646 871 1730 c 128,-1,21
 871 1814 871 1814 937 1883 c 128,-1,22
 1003 1952 1003 1952 1092 1952 c 0,11,12
1127 1843 m 128,-1,24
 1107 1863 1107 1863 1082 1863 c 128,-1,25
 1057 1863 1057 1863 1032.5 1853.5 c 128,-1,26
 1008 1844 1008 1844 986.5 1814.5 c 128,-1,27
 965 1785 965 1785 965 1765 c 0,28,29
 965 1683 965 1683 1037 1683 c 0,30,31
 1079 1683 1079 1683 1113 1716.5 c 128,-1,32
 1147 1750 1147 1750 1147 1786.5 c 128,-1,23
 1147 1823 1147 1823 1127 1843 c 128,-1,24
EndSplineSet
EndChar

StartChar: AE
Encoding: 198 198 124
Width: 2048
GlyphClass: 3
Flags: W
HStem: 0 168<1187 1946> 438 166<600 1052> 680 168<1331 2014> 1325 168<1036 1240 1433 2191>
LayerCount: 2
Fore
SplineSet
1052 438 m 1,0,-1
 500 438 l 1,1,-1
 233 0 l 1,2,-1
 23 0 l 1,3,-1
 953 1493 l 1,4,-1
 2227 1493 l 1,5,-1
 2191 1325 l 1,6,-1
 1433 1325 l 1,7,-1
 1331 848 l 1,8,-1
 2050 848 l 1,9,-1
 2014 680 l 1,10,-1
 1296 680 l 1,11,-1
 1187 168 l 1,12,-1
 1982 168 l 1,13,-1
 1946 0 l 1,14,-1
 959 0 l 1,15,-1
 1052 438 l 1,0,-1
1087 604 m 1,16,-1
 1240 1325 l 1,17,-1
 1036 1325 l 1,18,-1
 600 604 l 1,19,-1
 1087 604 l 1,16,-1
EndSplineSet
EndChar

StartChar: Ccedilla
Encoding: 199 199 125
Width: 1479
GlyphClass: 2
Flags: W
HStem: -438 88<447.408 713.654> -46 165<754 991.48> 1352 166<847.569 1245.27>
VStem: 229 197<313.494 802.744> 738 161<-325.262 -194.825> 1380 197<1030 1206.43>
LayerCount: 2
Fore
SplineSet
675 -192 m 2,0,-1
 619 -200 l 1,1,-1
 593 -188 l 1,2,-1
 672 -43 l 1,3,4
 569 -27 569 -27 513 -4.5 c 128,-1,5
 457 18 457 18 402 67 c 0,6,7
 229 222 229 222 229 496 c 0,8,9
 229 708 229 708 313 921.5 c 128,-1,10
 397 1135 397 1135 540 1284 c 0,11,12
 765 1518 765 1518 1089 1518 c 0,13,14
 1358 1518 1358 1518 1490 1331 c 0,15,16
 1566 1223 1566 1223 1577 1030 c 1,17,-1
 1380 1030 l 1,18,19
 1370 1172 1370 1172 1307 1254 c 0,20,21
 1232 1352 1232 1352 1055 1352 c 0,22,23
 776 1352 776 1352 593 1079 c 0,24,25
 514 962 514 962 470 817.5 c 128,-1,26
 426 673 426 673 426 533 c 0,27,28
 426 265 426 265 608 164 c 0,29,30
 689 119 689 119 795 119 c 128,-1,31
 901 119 901 119 1010 172 c 128,-1,32
 1119 225 1119 225 1184 317 c 0,33,34
 1234 385 1234 385 1304 545 c 1,35,-1
 1505 545 l 1,36,37
 1378 241 1378 241 1216 109 c 0,38,39
 1027 -45 1027 -45 754 -46 c 1,40,-1
 718 -114 l 1,41,42
 750 -110 750 -110 769.5 -110 c 128,-1,43
 789 -110 789 -110 823 -122 c 0,44,45
 899 -150 899 -150 899 -215 c 0,46,47
 899 -262 899 -262 872 -310 c 0,48,49
 799 -438 799 -438 602 -438 c 0,50,51
 542 -438 542 -438 490 -423 c 128,-1,52
 438 -408 438 -408 359 -368 c 1,53,-1
 416 -291 l 1,54,55
 531 -350 531 -350 609 -350 c 0,56,57
 633 -350 633 -350 654 -344 c 0,58,59
 738 -318 738 -318 738 -237 c 0,60,61
 738 -219 738 -219 719 -205.5 c 128,-1,62
 700 -192 700 -192 675 -192 c 2,0,-1
EndSplineSet
EndChar

StartChar: Egrave
Encoding: 200 200 126
Width: 1366
GlyphClass: 2
Flags: W
HStem: 0 168<412 1255> 680 168<557 1331> 1325 168<658 1503>
LayerCount: 2
Fore
SplineSet
1016 1923 m 1,0,-1
 1161 1620 l 1,1,-1
 1052 1620 l 1,2,-1
 796 1923 l 1,3,-1
 1016 1923 l 1,0,-1
521 680 m 1,4,-1
 412 168 l 1,5,-1
 1290 168 l 1,6,-1
 1255 0 l 1,7,-1
 184 0 l 1,8,-1
 501 1493 l 1,9,-1
 1538 1493 l 1,10,-1
 1503 1325 l 1,11,-1
 658 1325 l 1,12,-1
 557 848 l 1,13,-1
 1368 848 l 1,14,-1
 1331 680 l 1,15,-1
 521 680 l 1,4,-1
EndSplineSet
EndChar

StartChar: Eacute
Encoding: 201 201 127
Width: 1366
GlyphClass: 2
Flags: W
HStem: 0 168<412 1255> 680 168<557 1331> 1325 168<658 1503>
LayerCount: 2
Fore
SplineSet
1192 1923 m 1,0,-1
 1421 1923 l 1,1,-1
 1054 1620 l 1,2,-1
 929 1620 l 1,3,-1
 1192 1923 l 1,0,-1
521 680 m 1,4,-1
 412 168 l 1,5,-1
 1290 168 l 1,6,-1
 1255 0 l 1,7,-1
 184 0 l 1,8,-1
 501 1493 l 1,9,-1
 1538 1493 l 1,10,-1
 1503 1325 l 1,11,-1
 658 1325 l 1,12,-1
 557 848 l 1,13,-1
 1368 848 l 1,14,-1
 1331 680 l 1,15,-1
 521 680 l 1,4,-1
EndSplineSet
EndChar

StartChar: Ecircumflex
Encoding: 202 202 128
Width: 1366
GlyphClass: 2
Flags: W
HStem: 0 168<412 1255> 680 168<557 1331> 1325 168<658 1503>
LayerCount: 2
Fore
SplineSet
1013 1925 m 1,0,-1
 1208 1925 l 1,1,-1
 1339 1618 l 1,2,-1
 1210 1618 l 1,3,-1
 1095 1821 l 1,4,-1
 882 1618 l 1,5,-1
 751 1618 l 1,6,-1
 1013 1925 l 1,0,-1
521 680 m 1,7,-1
 412 168 l 1,8,-1
 1290 168 l 1,9,-1
 1255 0 l 1,10,-1
 184 0 l 1,11,-1
 501 1493 l 1,12,-1
 1538 1493 l 1,13,-1
 1503 1325 l 1,14,-1
 658 1325 l 1,15,-1
 557 848 l 1,16,-1
 1368 848 l 1,17,-1
 1331 680 l 1,18,-1
 521 680 l 1,7,-1
EndSplineSet
EndChar

StartChar: Edieresis
Encoding: 203 203 129
Width: 1366
GlyphClass: 2
Flags: W
HStem: 0 168<412 1255> 680 168<557 1331> 1325 168<658 1503> 1660 211<821 989 1151 1319>
VStem: 776 213<1660 1873> 821 213<1658 1871> 1106 213<1660 1873> 1151 213<1658 1871>
LayerCount: 2
Fore
SplineSet
1034 1871 m 1,0,-1
 989 1660 l 1,1,-1
 776 1660 l 1,2,-1
 821 1871 l 1,3,-1
 1034 1871 l 1,0,-1
1364 1871 m 1,4,-1
 1319 1660 l 1,5,-1
 1106 1660 l 1,6,-1
 1151 1871 l 1,7,-1
 1364 1871 l 1,4,-1
521 680 m 1,8,-1
 412 168 l 1,9,-1
 1290 168 l 1,10,-1
 1255 0 l 1,11,-1
 184 0 l 1,12,-1
 501 1493 l 1,13,-1
 1538 1493 l 1,14,-1
 1503 1325 l 1,15,-1
 658 1325 l 1,16,-1
 557 848 l 1,17,-1
 1368 848 l 1,18,-1
 1331 680 l 1,19,-1
 521 680 l 1,8,-1
EndSplineSet
EndChar

StartChar: Igrave
Encoding: 204 204 130
Width: 569
GlyphClass: 2
Flags: W
HStem: 1473 20G<517.754 715>
VStem: 205 193<0 193> 522 193<1300 1493>
LayerCount: 2
Fore
SplineSet
715 1493 m 1,0,-1
 398 0 l 1,1,-1
 205 0 l 1,2,-1
 522 1493 l 1,3,-1
 715 1493 l 1,0,-1
628 1923 m 1,4,-1
 774 1620 l 1,5,-1
 665 1620 l 1,6,-1
 410 1923 l 1,7,-1
 628 1923 l 1,4,-1
EndSplineSet
EndChar

StartChar: Iacute
Encoding: 205 205 131
Width: 569
GlyphClass: 2
Flags: W
HStem: 1473 20G<517.754 715>
VStem: 205 193<0 193> 522 193<1300 1493>
LayerCount: 2
Fore
SplineSet
715 1493 m 1,0,-1
 398 0 l 1,1,-1
 205 0 l 1,2,-1
 522 1493 l 1,3,-1
 715 1493 l 1,0,-1
752 1923 m 1,4,-1
 981 1923 l 1,5,-1
 613 1620 l 1,6,-1
 490 1620 l 1,7,-1
 752 1923 l 1,4,-1
EndSplineSet
EndChar

StartChar: Icircumflex
Encoding: 206 206 132
Width: 569
GlyphClass: 2
Flags: W
HStem: 1473 20G<517.754 715>
VStem: 205 193<0 193> 522 193<1300 1493>
LayerCount: 2
Fore
SplineSet
715 1493 m 1,0,-1
 398 0 l 1,1,-1
 205 0 l 1,2,-1
 522 1493 l 1,3,-1
 715 1493 l 1,0,-1
604 1925 m 1,4,-1
 799 1925 l 1,5,-1
 930 1618 l 1,6,-1
 801 1618 l 1,7,-1
 686 1821 l 1,8,-1
 473 1618 l 1,9,-1
 342 1618 l 1,10,-1
 604 1925 l 1,4,-1
EndSplineSet
EndChar

StartChar: Idieresis
Encoding: 207 207 133
Width: 569
GlyphClass: 2
Flags: W
HStem: 1473 20G<517.754 715> 1647 211<414 582 744 912>
VStem: 205 193<0 193> 369 213<1647 1860> 414 213<1645 1858> 522 193<1300 1493> 699 213<1647 1860> 744 213<1645 1858>
LayerCount: 2
Fore
SplineSet
715 1493 m 1,0,-1
 398 0 l 1,1,-1
 205 0 l 1,2,-1
 522 1493 l 1,3,-1
 715 1493 l 1,0,-1
627 1858 m 1,4,-1
 582 1647 l 1,5,-1
 369 1647 l 1,6,-1
 414 1858 l 1,7,-1
 627 1858 l 1,4,-1
957 1858 m 1,8,-1
 912 1647 l 1,9,-1
 699 1647 l 1,10,-1
 744 1858 l 1,11,-1
 957 1858 l 1,8,-1
EndSplineSet
EndChar

StartChar: Ntilde
Encoding: 209 209 134
Width: 1479
GlyphClass: 2
Flags: W
HStem: 1473 20G<468.754 693.382 1453.75 1641> 1663 142<1100.32 1349.71> 1728 142<908.189 1146.87>
VStem: 156 182<0 182> 1458 183<1310 1493>
LayerCount: 2
Fore
SplineSet
1641 1493 m 1,0,-1
 1323 0 l 1,1,-1
 1107 0 l 1,2,-1
 596 1211 l 1,3,-1
 338 0 l 1,4,-1
 156 0 l 1,5,-1
 473 1493 l 1,6,-1
 685 1493 l 1,7,-1
 1198 269 l 1,8,-1
 1458 1493 l 1,9,-1
 1641 1493 l 1,0,-1
1480 1880 m 1,10,11
 1448 1782 1448 1782 1387.5 1722.5 c 128,-1,12
 1327 1663 1327 1663 1266 1663 c 128,-1,13
 1205 1663 1205 1663 1108.5 1695.5 c 128,-1,14
 1012 1728 1012 1728 996 1728 c 128,-1,15
 980 1728 980 1728 955 1722 c 128,-1,16
 930 1716 930 1716 904 1679 c 0,17,18
 900 1673 900 1673 891 1660 c 1,19,-1
 781 1660 l 1,20,21
 814 1755 814 1755 843 1792 c 0,22,23
 904 1870 904 1870 995 1870 c 0,24,25
 1041 1870 1041 1870 1138.5 1837.5 c 128,-1,26
 1236 1805 1236 1805 1271.5 1805 c 128,-1,27
 1307 1805 1307 1805 1327 1823.5 c 128,-1,28
 1347 1842 1347 1842 1370 1880 c 1,29,-1
 1480 1880 l 1,10,11
EndSplineSet
EndChar

StartChar: Ograve
Encoding: 210 210 135
Width: 1593
GlyphClass: 2
Flags: W
HStem: -47 166<625.426 1047.44> 1352 166<858.89 1282.68>
VStem: 213 197<334.242 829.101> 1499 197<646.657 1137.42>
LayerCount: 2
Fore
SplineSet
1102 1923 m 1,0,-1
 1249 1620 l 1,1,-1
 1139 1620 l 1,2,-1
 884 1923 l 1,3,-1
 1102 1923 l 1,0,-1
1099 1518 m 0,4,5
 1230 1518 1230 1518 1344 1481 c 0,6,7
 1537 1418 1537 1418 1622 1259 c 0,8,9
 1696 1122 1696 1122 1696 951 c 0,10,11
 1696 658 1696 658 1544 395 c 0,12,13
 1290 -47 1290 -47 801 -47 c 0,14,15
 621 -47 621 -47 478.5 27 c 128,-1,16
 336 101 336 101 274.5 237.5 c 128,-1,17
 213 374 213 374 213 526.5 c 128,-1,18
 213 679 213 679 252 815 c 0,19,20
 350 1160 350 1160 619 1360 c 0,21,22
 830 1518 830 1518 1099 1518 c 0,4,5
1415 1204 m 0,23,24
 1357 1280 1357 1280 1263 1316 c 128,-1,25
 1169 1352 1169 1352 1071.5 1352 c 128,-1,26
 974 1352 974 1352 879 1317 c 0,27,28
 655 1235 655 1235 532.5 1014.5 c 128,-1,29
 410 794 410 794 410 556 c 0,30,31
 410 298 410 298 580 189 c 0,32,33
 691 119 691 119 812 119 c 128,-1,34
 933 119 933 119 1030 154 c 0,35,36
 1253 233 1253 233 1376 455 c 128,-1,37
 1499 677 1499 677 1499 915 c 0,38,39
 1499 1096 1499 1096 1415 1204 c 0,23,24
EndSplineSet
EndChar

StartChar: Oacute
Encoding: 211 211 136
Width: 1593
GlyphClass: 2
Flags: W
HStem: -47 166<625.426 1047.44> 1352 166<858.89 1282.68>
VStem: 213 197<334.242 829.101> 1499 197<646.657 1137.42>
LayerCount: 2
Fore
SplineSet
1272 1923 m 1,0,-1
 1502 1923 l 1,1,-1
 1133 1620 l 1,2,-1
 1010 1620 l 1,3,-1
 1272 1923 l 1,0,-1
1099 1518 m 0,4,5
 1230 1518 1230 1518 1344 1481 c 0,6,7
 1537 1418 1537 1418 1622 1259 c 0,8,9
 1696 1122 1696 1122 1696 951 c 0,10,11
 1696 658 1696 658 1544 395 c 0,12,13
 1290 -47 1290 -47 801 -47 c 0,14,15
 621 -47 621 -47 478.5 27 c 128,-1,16
 336 101 336 101 274.5 237.5 c 128,-1,17
 213 374 213 374 213 526.5 c 128,-1,18
 213 679 213 679 252 815 c 0,19,20
 350 1160 350 1160 619 1360 c 0,21,22
 830 1518 830 1518 1099 1518 c 0,4,5
1415 1204 m 0,23,24
 1357 1280 1357 1280 1263 1316 c 128,-1,25
 1169 1352 1169 1352 1071.5 1352 c 128,-1,26
 974 1352 974 1352 879 1317 c 0,27,28
 655 1235 655 1235 532.5 1014.5 c 128,-1,29
 410 794 410 794 410 556 c 0,30,31
 410 298 410 298 580 189 c 0,32,33
 691 119 691 119 812 119 c 128,-1,34
 933 119 933 119 1030 154 c 0,35,36
 1253 233 1253 233 1376 455 c 128,-1,37
 1499 677 1499 677 1499 915 c 0,38,39
 1499 1096 1499 1096 1415 1204 c 0,23,24
EndSplineSet
EndChar

StartChar: Ocircumflex
Encoding: 212 212 137
Width: 1593
GlyphClass: 2
Flags: W
HStem: -47 166<625.426 1047.44> 1352 166<858.89 1282.68>
VStem: 213 197<334.242 829.101> 1499 197<646.657 1137.42>
LayerCount: 2
Fore
SplineSet
1101 1925 m 1,0,-1
 1294 1925 l 1,1,-1
 1427 1618 l 1,2,-1
 1296 1618 l 1,3,-1
 1181 1821 l 1,4,-1
 970 1618 l 1,5,-1
 839 1618 l 1,6,-1
 1101 1925 l 1,0,-1
1099 1518 m 0,7,8
 1230 1518 1230 1518 1344 1481 c 0,9,10
 1537 1418 1537 1418 1622 1259 c 0,11,12
 1696 1122 1696 1122 1696 951 c 0,13,14
 1696 658 1696 658 1544 395 c 0,15,16
 1290 -47 1290 -47 801 -47 c 0,17,18
 621 -47 621 -47 478.5 27 c 128,-1,19
 336 101 336 101 274.5 237.5 c 128,-1,20
 213 374 213 374 213 526.5 c 128,-1,21
 213 679 213 679 252 815 c 0,22,23
 350 1160 350 1160 619 1360 c 0,24,25
 830 1518 830 1518 1099 1518 c 0,7,8
1415 1204 m 0,26,27
 1357 1280 1357 1280 1263 1316 c 128,-1,28
 1169 1352 1169 1352 1071.5 1352 c 128,-1,29
 974 1352 974 1352 879 1317 c 0,30,31
 655 1235 655 1235 532.5 1014.5 c 128,-1,32
 410 794 410 794 410 556 c 0,33,34
 410 298 410 298 580 189 c 0,35,36
 691 119 691 119 812 119 c 128,-1,37
 933 119 933 119 1030 154 c 0,38,39
 1253 233 1253 233 1376 455 c 128,-1,40
 1499 677 1499 677 1499 915 c 0,41,42
 1499 1096 1499 1096 1415 1204 c 0,26,27
EndSplineSet
EndChar

StartChar: Otilde
Encoding: 213 213 138
Width: 1593
GlyphClass: 2
Flags: W
HStem: -47 166<625.426 1047.44> 1352 166<858.89 1282.68> 1663 142<1149.61 1399> 1728 142<956.171 1196.2>
VStem: 213 197<334.242 829.101> 1499 197<646.657 1137.42>
LayerCount: 2
Fore
SplineSet
1099 1518 m 0,0,1
 1230 1518 1230 1518 1344 1481 c 0,2,3
 1537 1418 1537 1418 1622 1259 c 0,4,5
 1696 1122 1696 1122 1696 951 c 0,6,7
 1696 658 1696 658 1544 395 c 0,8,9
 1290 -47 1290 -47 801 -47 c 0,10,11
 621 -47 621 -47 478.5 27 c 128,-1,12
 336 101 336 101 274.5 237.5 c 128,-1,13
 213 374 213 374 213 526.5 c 128,-1,14
 213 679 213 679 252 815 c 0,15,16
 350 1160 350 1160 619 1360 c 0,17,18
 830 1518 830 1518 1099 1518 c 0,0,1
1415 1204 m 0,19,20
 1357 1280 1357 1280 1263 1316 c 128,-1,21
 1169 1352 1169 1352 1071.5 1352 c 128,-1,22
 974 1352 974 1352 879 1317 c 0,23,24
 655 1235 655 1235 532.5 1014.5 c 128,-1,25
 410 794 410 794 410 556 c 0,26,27
 410 298 410 298 580 189 c 0,28,29
 691 119 691 119 812 119 c 128,-1,30
 933 119 933 119 1030 154 c 0,31,32
 1253 233 1253 233 1376 455 c 128,-1,33
 1499 677 1499 677 1499 915 c 0,34,35
 1499 1096 1499 1096 1415 1204 c 0,19,20
1529 1880 m 1,36,37
 1498 1782 1498 1782 1437 1722.5 c 128,-1,38
 1376 1663 1376 1663 1315.5 1663 c 128,-1,39
 1255 1663 1255 1663 1158 1695.5 c 128,-1,40
 1061 1728 1061 1728 1045 1728 c 128,-1,41
 1029 1728 1029 1728 1004 1722 c 128,-1,42
 979 1716 979 1716 953 1679 c 0,43,44
 949 1673 949 1673 940 1660 c 1,45,-1
 831 1660 l 1,46,47
 864 1756 864 1756 892.5 1792.5 c 128,-1,48
 921 1829 921 1829 962.5 1849.5 c 128,-1,49
 1004 1870 1004 1870 1047 1870 c 128,-1,50
 1090 1870 1090 1870 1187.5 1837.5 c 128,-1,51
 1285 1805 1285 1805 1320.5 1805 c 128,-1,52
 1356 1805 1356 1805 1376 1823.5 c 128,-1,53
 1396 1842 1396 1842 1420 1880 c 1,54,-1
 1529 1880 l 1,36,37
EndSplineSet
EndChar

StartChar: Odieresis
Encoding: 214 214 139
Width: 1593
GlyphClass: 2
Flags: W
HStem: -47 166<625.426 1047.44> 1352 166<858.89 1282.68> 1660 211<914 1080 1244 1410>
VStem: 213 197<334.242 829.101> 869 211<1660 1871> 914 213<1658 1871> 1199 211<1660 1871> 1244 213<1658 1871> 1499 197<646.657 1137.42>
LayerCount: 2
Fore
SplineSet
1127 1871 m 1,0,-1
 1080 1660 l 1,1,-1
 869 1660 l 1,2,-1
 914 1871 l 1,3,-1
 1127 1871 l 1,0,-1
1457 1871 m 1,4,-1
 1410 1660 l 1,5,-1
 1199 1660 l 1,6,-1
 1244 1871 l 1,7,-1
 1457 1871 l 1,4,-1
1099 1518 m 0,8,9
 1230 1518 1230 1518 1344 1481 c 0,10,11
 1537 1418 1537 1418 1622 1259 c 0,12,13
 1696 1122 1696 1122 1696 951 c 0,14,15
 1696 658 1696 658 1544 395 c 0,16,17
 1290 -47 1290 -47 801 -47 c 0,18,19
 621 -47 621 -47 478.5 27 c 128,-1,20
 336 101 336 101 274.5 237.5 c 128,-1,21
 213 374 213 374 213 526.5 c 128,-1,22
 213 679 213 679 252 815 c 0,23,24
 350 1160 350 1160 619 1360 c 0,25,26
 830 1518 830 1518 1099 1518 c 0,8,9
1415 1204 m 0,27,28
 1357 1280 1357 1280 1263 1316 c 128,-1,29
 1169 1352 1169 1352 1071.5 1352 c 128,-1,30
 974 1352 974 1352 879 1317 c 0,31,32
 655 1235 655 1235 532.5 1014.5 c 128,-1,33
 410 794 410 794 410 556 c 0,34,35
 410 298 410 298 580 189 c 0,36,37
 691 119 691 119 812 119 c 128,-1,38
 933 119 933 119 1030 154 c 0,39,40
 1253 233 1253 233 1376 455 c 128,-1,41
 1499 677 1499 677 1499 915 c 0,42,43
 1499 1096 1499 1096 1415 1204 c 0,27,28
EndSplineSet
EndChar

StartChar: Oslash
Encoding: 216 216 140
Width: 1593
GlyphClass: 2
Flags: W
HStem: -47 166<590.298 1022.16> 1352 166<821.73 1248.29>
VStem: 181 197<346.745 834.162> 1466 197<644.701 1116.06>
LayerCount: 2
Fore
SplineSet
775 -47 m 0,0,1
 484 -47 484 -47 324 117 c 1,2,-1
 138 -49 l 1,3,-1
 66 31 l 1,4,-1
 259 205 l 1,5,6
 181 338 181 338 181 549 c 0,7,8
 181 679 181 679 220 815 c 0,9,10
 281 1029 281 1029 420 1201 c 0,11,12
 677 1518 677 1518 1063 1518 c 0,13,14
 1212 1518 1212 1518 1335 1472 c 128,-1,15
 1458 1426 1458 1426 1526 1346 c 1,16,-1
 1704 1505 l 1,17,-1
 1776 1425 l 1,18,-1
 1588 1255 l 1,19,20
 1663 1122 1663 1122 1663 948 c 0,21,22
 1663 656 1663 656 1512 396 c 128,-1,23
 1361 136 1361 136 1127 28 c 0,24,25
 963 -47 963 -47 775 -47 c 0,0,1
414 344 m 1,26,-1
 1377 1212 l 1,27,28
 1321 1278 1321 1278 1233 1315 c 128,-1,29
 1145 1352 1145 1352 1041 1352 c 0,30,31
 874 1352 874 1352 725 1258 c 0,32,33
 544 1145 544 1145 446 903 c 0,34,35
 378 734 378 734 378 541 c 0,36,37
 378 429 378 429 414 344 c 1,26,-1
1434 1118 m 1,38,-1
 472 252 l 1,39,40
 524 190 524 190 611.5 154.5 c 128,-1,41
 699 119 699 119 801 119 c 0,42,43
 967 119 967 119 1118 213 c 0,44,45
 1299 325 1299 325 1397 568 c 0,46,47
 1466 739 1466 739 1466 906 c 0,48,49
 1466 1041 1466 1041 1434 1118 c 1,38,-1
EndSplineSet
EndChar

StartChar: Ugrave
Encoding: 217 217 141
Width: 1479
GlyphClass: 2
Flags: W
HStem: -47 166<574.701 1002.17> 1473 20G<487.73 684 1441.75 1638>
VStem: 254 197<226.873 575.156> 492 192<1301 1493> 1446 192<1301 1493>
LayerCount: 2
Fore
SplineSet
1053 1923 m 1,0,-1
 1199 1620 l 1,1,-1
 1090 1620 l 1,2,-1
 835 1923 l 1,3,-1
 1053 1923 l 1,0,-1
1446 1493 m 1,4,-1
 1638 1493 l 1,5,-1
 1415 444 l 2,6,7
 1365 206 1365 206 1163 72 c 0,8,9
 985 -47 985 -47 741.5 -47 c 128,-1,10
 498 -47 498 -47 367 72 c 0,11,12
 317 116 317 116 285.5 185 c 128,-1,13
 254 254 254 254 254 317 c 128,-1,14
 254 380 254 380 283 514 c 2,15,-1
 492 1493 l 1,16,-1
 684 1493 l 1,17,-1
 461 444 l 2,18,19
 451 399 451 399 451 355 c 0,20,21
 451 249 451 249 541.5 184 c 128,-1,22
 632 119 632 119 793.5 119 c 128,-1,23
 955 119 955 119 1073 205.5 c 128,-1,24
 1191 292 1191 292 1223 444 c 2,25,-1
 1446 1493 l 1,4,-1
EndSplineSet
EndChar

StartChar: Uacute
Encoding: 218 218 142
Width: 1479
GlyphClass: 2
Flags: W
HStem: -47 166<574.701 1002.17> 1473 20G<487.73 684 1441.75 1638>
VStem: 254 197<226.873 575.156> 492 192<1301 1493> 1446 192<1301 1493>
LayerCount: 2
Fore
SplineSet
1211 1923 m 1,0,-1
 1440 1923 l 1,1,-1
 1072 1620 l 1,2,-1
 949 1620 l 1,3,-1
 1211 1923 l 1,0,-1
1446 1493 m 1,4,-1
 1638 1493 l 1,5,-1
 1415 444 l 2,6,7
 1365 206 1365 206 1163 72 c 0,8,9
 985 -47 985 -47 741.5 -47 c 128,-1,10
 498 -47 498 -47 367 72 c 0,11,12
 317 116 317 116 285.5 185 c 128,-1,13
 254 254 254 254 254 317 c 128,-1,14
 254 380 254 380 283 514 c 2,15,-1
 492 1493 l 1,16,-1
 684 1493 l 1,17,-1
 461 444 l 2,18,19
 451 399 451 399 451 355 c 0,20,21
 451 249 451 249 541.5 184 c 128,-1,22
 632 119 632 119 793.5 119 c 128,-1,23
 955 119 955 119 1073 205.5 c 128,-1,24
 1191 292 1191 292 1223 444 c 2,25,-1
 1446 1493 l 1,4,-1
EndSplineSet
EndChar

StartChar: Ucircumflex
Encoding: 219 219 143
Width: 1479
GlyphClass: 2
Flags: W
HStem: -47 166<574.701 1002.17> 1473 20G<487.73 684 1441.75 1638>
VStem: 254 197<226.873 575.156> 492 192<1301 1493> 1446 192<1301 1493>
LayerCount: 2
Fore
SplineSet
1059 1925 m 1,0,-1
 1251 1925 l 1,1,-1
 1384 1618 l 1,2,-1
 1253 1618 l 1,3,-1
 1139 1821 l 1,4,-1
 928 1618 l 1,5,-1
 797 1618 l 1,6,-1
 1059 1925 l 1,0,-1
1446 1493 m 1,7,-1
 1638 1493 l 1,8,-1
 1415 444 l 2,9,10
 1365 206 1365 206 1163 72 c 0,11,12
 985 -47 985 -47 741.5 -47 c 128,-1,13
 498 -47 498 -47 367 72 c 0,14,15
 317 116 317 116 285.5 185 c 128,-1,16
 254 254 254 254 254 317 c 128,-1,17
 254 380 254 380 283 514 c 2,18,-1
 492 1493 l 1,19,-1
 684 1493 l 1,20,-1
 461 444 l 2,21,22
 451 399 451 399 451 355 c 0,23,24
 451 249 451 249 541.5 184 c 128,-1,25
 632 119 632 119 793.5 119 c 128,-1,26
 955 119 955 119 1073 205.5 c 128,-1,27
 1191 292 1191 292 1223 444 c 2,28,-1
 1446 1493 l 1,7,-1
EndSplineSet
EndChar

StartChar: Udieresis
Encoding: 220 220 144
Width: 1479
GlyphClass: 2
Flags: W
HStem: -47 166<574.701 1002.17> 1473 20G<487.73 684 1441.75 1638> 1660 211<876 1042 1206 1372>
VStem: 254 197<226.873 575.156> 492 192<1301 1493> 831 211<1660 1871> 876 213<1658 1871> 1161 211<1660 1871> 1206 213<1658 1871> 1446 192<1301 1493>
LayerCount: 2
Fore
SplineSet
1089 1871 m 1,0,-1
 1042 1660 l 1,1,-1
 831 1660 l 1,2,-1
 876 1871 l 1,3,-1
 1089 1871 l 1,0,-1
1419 1871 m 1,4,-1
 1372 1660 l 1,5,-1
 1161 1660 l 1,6,-1
 1206 1871 l 1,7,-1
 1419 1871 l 1,4,-1
1446 1493 m 1,8,-1
 1638 1493 l 1,9,-1
 1415 444 l 2,10,11
 1365 206 1365 206 1163 72 c 0,12,13
 985 -47 985 -47 741.5 -47 c 128,-1,14
 498 -47 498 -47 367 72 c 0,15,16
 317 116 317 116 285.5 185 c 128,-1,17
 254 254 254 254 254 317 c 128,-1,18
 254 380 254 380 283 514 c 2,19,-1
 492 1493 l 1,20,-1
 684 1493 l 1,21,-1
 461 444 l 2,22,23
 451 399 451 399 451 355 c 0,24,25
 451 249 451 249 541.5 184 c 128,-1,26
 632 119 632 119 793.5 119 c 128,-1,27
 955 119 955 119 1073 205.5 c 128,-1,28
 1191 292 1191 292 1223 444 c 2,29,-1
 1446 1493 l 1,8,-1
EndSplineSet
EndChar

StartChar: Yacute
Encoding: 221 221 145
Width: 1366
GlyphClass: 2
Flags: W
HStem: 1473 20G<344 580.623 1426.85 1671>
VStem: 600 192<0 192>
LayerCount: 2
Fore
SplineSet
1155 1923 m 1,0,-1
 1384 1923 l 1,1,-1
 1016 1620 l 1,2,-1
 893 1620 l 1,3,-1
 1155 1923 l 1,0,-1
917 585 m 1,4,-1
 792 0 l 1,5,-1
 600 0 l 1,6,-1
 724 585 l 1,7,-1
 344 1493 l 1,8,-1
 573 1493 l 1,9,-1
 852 761 l 1,10,-1
 1443 1493 l 1,11,-1
 1671 1493 l 1,12,-1
 917 585 l 1,4,-1
EndSplineSet
EndChar

StartChar: germandbls
Encoding: 223 223 146
Width: 1251
GlyphClass: 3
Flags: W
HStem: -41 168<557 837.903> 716 168<743 970.881> 1333 160<692.268 1056.67>
VStem: 143 170<0 170> 1059 184<337.152 639.738> 1129.5 183.5<1024.6 1264.75>
LayerCount: 2
Fore
SplineSet
707 715 m 1,0,-1
 743 884 l 1,1,2
 994 887 994 887 1090 1029 c 0,3,4
 1130 1087 1130 1087 1129.5 1161 c 128,-1,5
 1129 1235 1129 1235 1063.5 1284 c 128,-1,6
 998 1333 998 1333 876.5 1333 c 128,-1,7
 755 1333 755 1333 662.5 1270.5 c 128,-1,8
 570 1208 570 1208 547 1103 c 2,9,-1
 313 0 l 1,10,-1
 143 0 l 1,11,-1
 377 1103 l 2,12,13
 417 1287 417 1287 554 1380 c 0,14,15
 722 1493 722 1493 937 1493 c 0,16,17
 1029 1493 1029 1493 1111 1466 c 0,18,19
 1241 1424 1241 1424 1290 1315 c 0,20,21
 1313 1263 1313 1263 1313 1200 c 0,22,23
 1313 920 1313 920 983 820 c 1,24,25
 1243 739 1243 739 1243 541 c 0,26,27
 1243 452 1243 452 1204 350 c 128,-1,28
 1165 248 1165 248 1102 173 c 0,29,30
 924 -41 924 -41 619 -41 c 0,31,32
 575 -41 575 -41 523 -33 c 1,33,-1
 557 127 l 1,34,-1
 641 127 l 2,35,36
 851 127 851 127 976 278 c 0,37,38
 1059 379 1059 379 1059 507 c 0,39,40
 1059 634 1059 634 962 681 c 0,41,42
 890 716 890 716 739 716 c 0,43,44
 732 716 732 716 707 715 c 1,0,-1
EndSplineSet
EndChar

StartChar: agrave
Encoding: 224 224 147
Width: 1139
GlyphClass: 2
Flags: W
HStem: -47 147<348.773 667.273 958.5 1106.12> 946 158<583.299 929.616> 1496 20G<584 812.539>
VStem: 133 180<136.579 359.725> 309 172<756 849.562> 979 184<669.684 898.338>
LayerCount: 2
Fore
SplineSet
924 529 m 1,0,1
 858 506 858 506 817.5 498 c 128,-1,2
 777 490 777 490 630 470 c 128,-1,3
 483 450 483 450 414 408 c 0,4,5
 313 346 313 346 313 235 c 0,6,7
 313 185 313 185 342 151 c 0,8,9
 385 100 385 100 507.5 100 c 128,-1,10
 630 100 630 100 749 171 c 0,11,12
 800 202 800 202 836.5 247 c 128,-1,13
 873 292 873 292 882 336 c 2,14,-1
 924 529 l 1,0,1
1130 105 m 1,15,-1
 1104 -28 l 1,16,17
 1085 -32 1085 -32 1053.5 -39.5 c 128,-1,18
 1022 -47 1022 -47 995 -47 c 0,19,20
 922 -47 922 -47 880.5 -11.5 c 128,-1,21
 839 24 839 24 839 88 c 2,22,-1
 839 111 l 1,23,24
 775 55 775 55 741.5 33 c 128,-1,25
 708 11 708 11 625 -18 c 128,-1,26
 542 -47 542 -47 448 -47 c 0,27,28
 246 -47 246 -47 174 66 c 0,29,30
 133 128 133 128 133 216 c 128,-1,31
 133 304 133 304 177 382 c 128,-1,32
 221 460 221 460 298.5 509 c 128,-1,33
 376 558 376 558 466 579 c 128,-1,34
 556 600 556 600 715.5 614.5 c 128,-1,35
 875 629 875 629 916.5 654 c 128,-1,36
 958 679 958 679 968 740 c 2,37,-1
 975 776 l 2,38,39
 979 801 979 801 979 821.5 c 128,-1,40
 979 842 979 842 960 872 c 128,-1,41
 941 902 941 902 886 924 c 128,-1,42
 831 946 831 946 763 946 c 0,43,44
 618 946 618 946 543 871 c 0,45,46
 505 832 505 832 481 756 c 1,47,-1
 309 756 l 1,48,49
 332 889 332 889 419 978 c 0,50,51
 544 1104 544 1104 807 1104 c 0,52,53
 1012 1104 1012 1104 1106 1007 c 0,54,55
 1163 948 1163 948 1163 873 c 0,56,57
 1163 852 1163 852 1151 797 c 2,58,-1
 1020 180 l 2,59,60
 1018 172 1018 172 1018 159 c 0,61,62
 1018 101 1018 101 1095 101 c 0,63,64
 1114 101 1114 101 1130 105 c 1,15,-1
803 1516 m 1,65,-1
 948 1212 l 1,66,-1
 839 1212 l 1,67,-1
 584 1516 l 1,68,-1
 803 1516 l 1,65,-1
EndSplineSet
EndChar

StartChar: aacute
Encoding: 225 225 148
Width: 1139
GlyphClass: 2
Flags: W
HStem: -47 147<348.773 667.273 958.5 1106.12> 946 158<583.299 928.858> 1496 20G<920.763 1167>
VStem: 133 180<136.579 359.725> 309 172<756 849.562> 979 184<669.684 897.801>
LayerCount: 2
Fore
SplineSet
924 529 m 1,0,1
 858 506 858 506 817.5 498 c 128,-1,2
 777 490 777 490 630 470 c 128,-1,3
 483 450 483 450 414 408 c 0,4,5
 313 346 313 346 313 235 c 0,6,7
 313 185 313 185 342 151 c 0,8,9
 385 100 385 100 507.5 100 c 128,-1,10
 630 100 630 100 749 171 c 0,11,12
 800 202 800 202 836.5 247 c 128,-1,13
 873 292 873 292 882 336 c 2,14,-1
 924 529 l 1,0,1
1130 105 m 1,15,-1
 1104 -28 l 1,16,17
 1085 -32 1085 -32 1053.5 -39.5 c 128,-1,18
 1022 -47 1022 -47 995 -47 c 0,19,20
 922 -47 922 -47 880.5 -11.5 c 128,-1,21
 839 24 839 24 839 88 c 2,22,-1
 839 111 l 1,23,24
 775 55 775 55 741.5 33 c 128,-1,25
 708 11 708 11 625 -18 c 128,-1,26
 542 -47 542 -47 448 -47 c 0,27,28
 246 -47 246 -47 174 66 c 0,29,30
 133 128 133 128 133 216 c 128,-1,31
 133 304 133 304 177 382 c 128,-1,32
 221 460 221 460 298.5 509 c 128,-1,33
 376 558 376 558 466 579 c 128,-1,34
 556 600 556 600 715.5 614.5 c 128,-1,35
 875 629 875 629 916.5 654 c 128,-1,36
 958 679 958 679 968 740 c 2,37,-1
 975 776 l 2,38,39
 979 801 979 801 979 821.5 c 128,-1,40
 979 842 979 842 960 872 c 128,-1,41
 941 902 941 902 886 924 c 128,-1,42
 831 946 831 946 763 946 c 0,43,44
 618 946 618 946 543 871 c 0,45,46
 505 832 505 832 481 756 c 1,47,-1
 309 756 l 1,48,49
 332 889 332 889 419 978 c 0,50,51
 544 1104 544 1104 807 1104 c 0,52,53
 977 1104 977 1104 1070 1038 c 128,-1,54
 1163 972 1163 972 1163 873 c 0,55,56
 1163 851 1163 851 1151 797 c 2,57,-1
 1020 180 l 2,58,59
 1018 172 1018 172 1018 159 c 0,60,61
 1018 101 1018 101 1095 101 c 0,62,63
 1114 101 1114 101 1130 105 c 1,15,-1
938 1516 m 1,64,-1
 1167 1516 l 1,65,-1
 799 1212 l 1,66,-1
 676 1212 l 1,67,-1
 938 1516 l 1,64,-1
EndSplineSet
EndChar

StartChar: acircumflex
Encoding: 226 226 149
Width: 1139
GlyphClass: 2
Flags: W
HStem: -47 147<348.773 667.273 958.5 1106.12> 946 158<583.299 929.616> 1498 20G<787.987 1007.51>
VStem: 133 180<136.579 359.725> 309 172<756 849.562> 979 184<669.684 898.338>
LayerCount: 2
Fore
SplineSet
924 529 m 1,0,1
 858 506 858 506 817.5 498 c 128,-1,2
 777 490 777 490 630 470 c 128,-1,3
 483 450 483 450 414 408 c 0,4,5
 313 346 313 346 313 235 c 0,6,7
 313 185 313 185 342 151 c 0,8,9
 385 100 385 100 507.5 100 c 128,-1,10
 630 100 630 100 749 171 c 0,11,12
 800 202 800 202 836.5 247 c 128,-1,13
 873 292 873 292 882 336 c 2,14,-1
 924 529 l 1,0,1
1130 105 m 1,15,-1
 1104 -28 l 1,16,17
 1085 -32 1085 -32 1053.5 -39.5 c 128,-1,18
 1022 -47 1022 -47 995 -47 c 0,19,20
 922 -47 922 -47 880.5 -11.5 c 128,-1,21
 839 24 839 24 839 88 c 2,22,-1
 839 111 l 1,23,24
 775 55 775 55 741.5 33 c 128,-1,25
 708 11 708 11 625 -18 c 128,-1,26
 542 -47 542 -47 448 -47 c 0,27,28
 246 -47 246 -47 174 66 c 0,29,30
 133 128 133 128 133 216 c 128,-1,31
 133 304 133 304 177 382 c 128,-1,32
 221 460 221 460 298.5 509 c 128,-1,33
 376 558 376 558 466 579 c 128,-1,34
 556 600 556 600 715.5 614.5 c 128,-1,35
 875 629 875 629 916.5 654 c 128,-1,36
 958 679 958 679 968 740 c 2,37,-1
 975 776 l 2,38,39
 979 801 979 801 979 821.5 c 128,-1,40
 979 842 979 842 960 872 c 128,-1,41
 941 902 941 902 886 924 c 128,-1,42
 831 946 831 946 763 946 c 0,43,44
 618 946 618 946 543 871 c 0,45,46
 505 832 505 832 481 756 c 1,47,-1
 309 756 l 1,48,49
 332 889 332 889 419 978 c 0,50,51
 544 1104 544 1104 807 1104 c 0,52,53
 1012 1104 1012 1104 1106 1007 c 0,54,55
 1163 948 1163 948 1163 873 c 0,56,57
 1163 852 1163 852 1151 797 c 2,58,-1
 1020 180 l 2,59,60
 1018 172 1018 172 1018 159 c 0,61,62
 1018 101 1018 101 1095 101 c 0,63,64
 1114 101 1114 101 1130 105 c 1,15,-1
805 1518 m 1,65,-1
 999 1518 l 1,66,-1
 1130 1210 l 1,67,-1
 1001 1210 l 1,68,-1
 887 1413 l 1,69,-1
 674 1210 l 1,70,-1
 543 1210 l 1,71,-1
 805 1518 l 1,65,-1
EndSplineSet
EndChar

StartChar: atilde
Encoding: 227 227 150
Width: 1139
GlyphClass: 2
Flags: W
HStem: -47 147<348.848 666.183 958.5 1106.12> 946 158<581.795 928.582> 1255 142<814.822 1064.3> 1320 142<622.12 861.361>
VStem: 133 180<135.329 360.01> 309 172<756 849.238> 979 184<669.098 897.418>
LayerCount: 2
Fore
SplineSet
924 529 m 1,0,1
 858 506 858 506 817 498 c 128,-1,2
 776 490 776 490 629.5 470 c 128,-1,3
 483 450 483 450 414 408 c 0,4,5
 313 347 313 347 313 236 c 0,6,7
 313 100 313 100 495 100 c 0,8,9
 630 100 630 100 749 171 c 0,10,11
 800 202 800 202 836.5 247 c 128,-1,12
 873 292 873 292 882 336 c 2,13,-1
 924 529 l 1,0,1
1130 105 m 1,14,-1
 1104 -28 l 1,15,16
 1085 -32 1085 -32 1053.5 -39.5 c 128,-1,17
 1022 -47 1022 -47 995 -47 c 0,18,19
 922 -47 922 -47 880.5 -11.5 c 128,-1,20
 839 24 839 24 839 88 c 2,21,-1
 839 111 l 1,22,23
 775 55 775 55 741 33 c 128,-1,24
 707 11 707 11 624.5 -18 c 128,-1,25
 542 -47 542 -47 448 -47 c 0,26,27
 246 -47 246 -47 174 66 c 0,28,29
 133 128 133 128 133 216 c 128,-1,30
 133 304 133 304 177 382 c 128,-1,31
 221 460 221 460 298.5 509 c 128,-1,32
 376 558 376 558 466 579 c 128,-1,33
 556 600 556 600 715.5 614.5 c 128,-1,34
 875 629 875 629 916.5 654 c 128,-1,35
 958 679 958 679 968 740 c 2,36,-1
 975 776 l 2,37,38
 979 801 979 801 979 821.5 c 128,-1,39
 979 842 979 842 960 872 c 128,-1,40
 941 902 941 902 886 924 c 128,-1,41
 831 946 831 946 777 946 c 128,-1,42
 723 946 723 946 660 933.5 c 128,-1,43
 597 921 597 921 552.5 880.5 c 128,-1,44
 508 840 508 840 481 756 c 1,45,-1
 309 756 l 1,46,47
 332 889 332 889 419 978 c 0,48,49
 544 1104 544 1104 807 1104 c 0,50,51
 976 1104 976 1104 1069.5 1038 c 128,-1,52
 1163 972 1163 972 1163 872 c 0,53,54
 1163 850 1163 850 1159 834 c 2,55,-1
 1020 180 l 2,56,57
 1018 172 1018 172 1018 159 c 0,58,59
 1018 101 1018 101 1095 101 c 0,60,61
 1114 101 1114 101 1130 105 c 1,14,-1
1194 1472 m 1,62,63
 1163 1375 1163 1375 1102 1315 c 128,-1,64
 1041 1255 1041 1255 980.5 1255 c 128,-1,65
 920 1255 920 1255 823.5 1287.5 c 128,-1,66
 727 1320 727 1320 710.5 1320 c 128,-1,67
 694 1320 694 1320 674 1315 c 128,-1,68
 654 1310 654 1310 643.5 1301 c 128,-1,69
 633 1292 633 1292 605 1252 c 1,70,-1
 496 1252 l 1,71,72
 529 1349 529 1349 558 1385 c 0,73,74
 620 1462 620 1462 709 1462 c 0,75,76
 755 1462 755 1462 852.5 1429.5 c 128,-1,77
 950 1397 950 1397 985.5 1397 c 128,-1,78
 1021 1397 1021 1397 1041.5 1415.5 c 128,-1,79
 1062 1434 1062 1434 1085 1472 c 1,80,-1
 1194 1472 l 1,62,63
EndSplineSet
EndChar

StartChar: adieresis
Encoding: 228 228 151
Width: 1139
GlyphClass: 2
Flags: W
HStem: -47 147<348.773 667.273 958.5 1106.12> 946 158<583.299 929.616> 1253 211<612 780 942 1110>
VStem: 133 180<136.579 359.725> 309 172<756 849.562> 567 213<1253 1466> 612 213<1251 1464> 897 213<1253 1466> 942 213<1251 1464> 979 184<669.684 898.338>
LayerCount: 2
Fore
SplineSet
924 529 m 1,0,1
 858 506 858 506 817.5 498 c 128,-1,2
 777 490 777 490 630 470 c 128,-1,3
 483 450 483 450 414 408 c 0,4,5
 313 346 313 346 313 235 c 0,6,7
 313 185 313 185 342 151 c 0,8,9
 385 100 385 100 507.5 100 c 128,-1,10
 630 100 630 100 749 171 c 0,11,12
 800 202 800 202 836.5 247 c 128,-1,13
 873 292 873 292 882 336 c 2,14,-1
 924 529 l 1,0,1
1130 105 m 1,15,-1
 1104 -28 l 1,16,17
 1085 -32 1085 -32 1053.5 -39.5 c 128,-1,18
 1022 -47 1022 -47 995 -47 c 0,19,20
 922 -47 922 -47 880.5 -11.5 c 128,-1,21
 839 24 839 24 839 88 c 2,22,-1
 839 111 l 1,23,24
 775 55 775 55 741.5 33 c 128,-1,25
 708 11 708 11 625 -18 c 128,-1,26
 542 -47 542 -47 448 -47 c 0,27,28
 246 -47 246 -47 174 66 c 0,29,30
 133 128 133 128 133 216 c 128,-1,31
 133 304 133 304 177 382 c 128,-1,32
 221 460 221 460 298.5 509 c 128,-1,33
 376 558 376 558 466 579 c 128,-1,34
 556 600 556 600 715.5 614.5 c 128,-1,35
 875 629 875 629 916.5 654 c 128,-1,36
 958 679 958 679 968 740 c 2,37,-1
 975 776 l 2,38,39
 979 801 979 801 979 821.5 c 128,-1,40
 979 842 979 842 960 872 c 128,-1,41
 941 902 941 902 886 924 c 128,-1,42
 831 946 831 946 763 946 c 0,43,44
 618 946 618 946 543 871 c 0,45,46
 505 832 505 832 481 756 c 1,47,-1
 309 756 l 1,48,49
 332 889 332 889 419 978 c 0,50,51
 544 1104 544 1104 807 1104 c 0,52,53
 1012 1104 1012 1104 1106 1007 c 0,54,55
 1163 948 1163 948 1163 873 c 0,56,57
 1163 852 1163 852 1151 797 c 2,58,-1
 1020 180 l 2,59,60
 1018 172 1018 172 1018 159 c 0,61,62
 1018 101 1018 101 1095 101 c 0,63,64
 1114 101 1114 101 1130 105 c 1,15,-1
825 1464 m 1,65,-1
 780 1253 l 1,66,-1
 567 1253 l 1,67,-1
 612 1464 l 1,68,-1
 825 1464 l 1,65,-1
1155 1464 m 1,69,-1
 1110 1253 l 1,70,-1
 897 1253 l 1,71,-1
 942 1464 l 1,72,-1
 1155 1464 l 1,69,-1
EndSplineSet
EndChar

StartChar: aring
Encoding: 229 229 152
Width: 1139
GlyphClass: 2
Flags: W
HStem: -47 147<348.773 667.273 958.5 1106.12> 946 158<583.299 928.858> 1186 89<781.479 933.324> 1456 89<801.358 946.276>
VStem: 133 180<136.579 359.725> 309 172<756 849.562> 682 94<1278.85 1432.06> 958.5 92.5<1300.35 1435.37> 979 184<669.684 897.801>
LayerCount: 2
Fore
SplineSet
924 529 m 1,0,1
 858 506 858 506 817.5 498 c 128,-1,2
 777 490 777 490 630 470 c 128,-1,3
 483 450 483 450 414 408 c 0,4,5
 313 346 313 346 313 235 c 0,6,7
 313 185 313 185 342 151 c 0,8,9
 385 100 385 100 507.5 100 c 128,-1,10
 630 100 630 100 749 171 c 0,11,12
 800 202 800 202 836.5 247 c 128,-1,13
 873 292 873 292 882 336 c 2,14,-1
 924 529 l 1,0,1
939 1436 m 128,-1,16
 919 1456 919 1456 893.5 1456 c 128,-1,17
 868 1456 868 1456 844 1446.5 c 128,-1,18
 820 1437 820 1437 798 1407.5 c 128,-1,19
 776 1378 776 1378 776 1358 c 0,20,21
 776 1275 776 1275 848 1275 c 0,22,23
 902 1275 902 1275 938 1325 c 0,24,25
 958 1353 958 1353 958.5 1384.5 c 128,-1,15
 959 1416 959 1416 939 1436 c 128,-1,16
1130 105 m 1,26,-1
 1104 -28 l 1,27,28
 1085 -32 1085 -32 1053.5 -39.5 c 128,-1,29
 1022 -47 1022 -47 995 -47 c 0,30,31
 922 -47 922 -47 880.5 -11.5 c 128,-1,32
 839 24 839 24 839 88 c 2,33,-1
 839 111 l 1,34,35
 775 55 775 55 741.5 33 c 128,-1,36
 708 11 708 11 625 -18 c 128,-1,37
 542 -47 542 -47 448 -47 c 0,38,39
 246 -47 246 -47 174 66 c 0,40,41
 133 128 133 128 133 216 c 128,-1,42
 133 304 133 304 177 382 c 128,-1,43
 221 460 221 460 298.5 509 c 128,-1,44
 376 558 376 558 466 579 c 128,-1,45
 556 600 556 600 715.5 614.5 c 128,-1,46
 875 629 875 629 916.5 654 c 128,-1,47
 958 679 958 679 968 740 c 2,48,-1
 975 776 l 2,49,50
 979 801 979 801 979 821.5 c 128,-1,51
 979 842 979 842 960 872 c 128,-1,52
 941 902 941 902 886 924 c 128,-1,53
 831 946 831 946 763 946 c 0,54,55
 618 946 618 946 543 871 c 0,56,57
 505 832 505 832 481 756 c 1,58,-1
 309 756 l 1,59,60
 332 889 332 889 419 978 c 0,61,62
 544 1104 544 1104 807 1104 c 0,63,64
 977 1104 977 1104 1070 1038 c 128,-1,65
 1163 972 1163 972 1163 873 c 0,66,67
 1163 851 1163 851 1151 797 c 2,68,-1
 1020 180 l 2,69,70
 1018 172 1018 172 1018 159 c 0,71,72
 1018 101 1018 101 1095 101 c 0,73,74
 1114 101 1114 101 1130 105 c 1,26,-1
904 1545 m 0,75,76
 940 1545 940 1545 971 1531 c 0,77,78
 1051 1493 1051 1493 1051 1409 c 128,-1,79
 1051 1325 1051 1325 984.5 1255.5 c 128,-1,80
 918 1186 918 1186 841.5 1186 c 128,-1,81
 765 1186 765 1186 723.5 1227.5 c 128,-1,82
 682 1269 682 1269 682 1330 c 0,83,84
 682 1424 682 1424 757 1484.5 c 128,-1,85
 832 1545 832 1545 904 1545 c 0,75,76
EndSplineSet
EndChar

StartChar: ae
Encoding: 230 230 153
Width: 1821
GlyphClass: 3
Flags: W
HStem: -47 147<335.757 653.021 1149.21 1438.47> 480 147<485.997 893.187 1086 1693.23> 946 158<562.319 927.069 1292.79 1607.53>
VStem: 121 180<135.548 357.509> 1694 180<628.789 855.431>
LayerCount: 2
Fore
SplineSet
903 528 m 1,0,1
 848 508 848 508 809.5 500.5 c 128,-1,2
 771 493 771 493 619.5 471 c 128,-1,3
 468 449 468 449 402 408 c 0,4,5
 301 346 301 346 301 236 c 0,6,7
 301 100 301 100 486 100 c 0,8,9
 611 100 611 100 730 173 c 0,10,11
 782 204 782 204 817.5 248 c 128,-1,12
 853 292 853 292 862 336 c 2,13,-1
 903 528 l 1,0,1
1688 627 m 1,14,15
 1694 665 1694 665 1694 694 c 0,16,17
 1694 787 1694 787 1649 856 c 0,18,19
 1590 946 1590 946 1460 946 c 0,20,21
 1393 946 1393 946 1332 921 c 0,22,23
 1157 850 1157 850 1086 627 c 1,24,-1
 1688 627 l 1,14,15
1295 111 m 0,25,26
 1499 111 1499 111 1612 326 c 1,27,-1
 1784 326 l 1,28,29
 1748 203 1748 203 1664 118 c 0,30,31
 1500 -47 1500 -47 1261.5 -47 c 128,-1,32
 1023 -47 1023 -47 905 162 c 1,33,34
 690 -47 690 -47 412 -47 c 0,35,36
 236 -47 236 -47 162 68 c 0,37,38
 121 131 121 131 121 194 c 0,39,40
 121 457 121 457 382 555 c 0,41,42
 482 593 482 593 744 615 c 0,43,44
 853 624 853 624 894.5 649.5 c 128,-1,45
 936 675 936 675 948 739 c 2,46,-1
 959 791 l 2,47,48
 963 813 963 813 963 830 c 128,-1,49
 963 847 963 847 957 862 c 0,50,51
 922 946 922 946 751 946 c 0,52,53
 629 946 629 946 561 901.5 c 128,-1,54
 493 857 493 857 461 756 c 1,55,-1
 289 756 l 1,56,57
 332 914 332 914 398 979 c 0,58,59
 527 1104 527 1104 794 1104 c 0,60,61
 935 1104 935 1104 1007 1066 c 0,62,63
 1031 1054 1031 1054 1071 1020.5 c 128,-1,64
 1111 987 1111 987 1118 971 c 1,65,66
 1188 1033 1188 1033 1287.5 1068.5 c 128,-1,67
 1387 1104 1387 1104 1483.5 1104 c 128,-1,68
 1580 1104 1580 1104 1670 1063 c 128,-1,69
 1760 1022 1760 1022 1817 939 c 128,-1,70
 1874 856 1874 856 1874 768.5 c 128,-1,71
 1874 681 1874 681 1839 480 c 1,72,-1
 1049 480 l 1,73,74
 1039 431 1039 431 1039 371 c 2,75,-1
 1039 334 l 2,76,77
 1039 290 1039 290 1063 243 c 128,-1,78
 1087 196 1087 196 1137 153.5 c 128,-1,79
 1187 111 1187 111 1295 111 c 0,25,26
EndSplineSet
EndChar

StartChar: ccedilla
Encoding: 231 231 154
Width: 1024
GlyphClass: 2
Flags: W
HStem: -438 88<248.651 507.426> -46 157<555 723.838> 946 158<581.148 896.626>
VStem: 156 180<203.028 625.042> 539 160<-321.241 -194.566> 959 176<713 885.191>
LayerCount: 2
Fore
SplineSet
1135 805 m 1,0,-1
 1129 713 l 1,1,-1
 957 713 l 1,2,3
 959 740 959 740 959 765.5 c 128,-1,4
 959 791 959 791 949 823 c 0,5,6
 910 946 910 946 749 946 c 0,7,8
 527 946 527 946 412 701 c 0,9,10
 336 538 336 538 336 371 c 0,11,12
 336 284 336 284 373 215 c 0,13,14
 430 111 430 111 567 111 c 0,15,16
 794 111 794 111 889 369 c 1,17,-1
 1061 369 l 1,18,19
 948 -36 948 -36 555 -46 c 1,20,-1
 518 -114 l 1,21,22
 551 -110 551 -110 570.5 -110 c 128,-1,23
 590 -110 590 -110 623 -122 c 0,24,25
 699 -151 699 -151 699 -207 c 0,26,27
 699 -320 699 -320 601 -387 c 0,28,29
 525 -438 525 -438 403 -438 c 0,30,31
 357 -438 357 -438 306.5 -427.5 c 128,-1,32
 256 -417 256 -417 160 -368 c 1,33,-1
 217 -291 l 1,34,35
 331 -350 331 -350 398.5 -350 c 128,-1,36
 466 -350 466 -350 502.5 -318.5 c 128,-1,37
 539 -287 539 -287 539 -237 c 0,38,39
 539 -219 539 -219 520 -205.5 c 128,-1,40
 501 -192 501 -192 475 -192 c 2,41,-1
 420 -200 l 1,42,-1
 393 -188 l 1,43,-1
 472 -44 l 1,44,45
 399 -31 399 -31 360.5 -14 c 128,-1,46
 322 3 322 3 273 49 c 128,-1,47
 224 95 224 95 190 177 c 128,-1,48
 156 259 156 259 156 383 c 128,-1,49
 156 507 156 507 215 678 c 0,50,51
 293 904 293 904 447 1004 c 128,-1,52
 601 1104 601 1104 781 1104 c 0,53,54
 1004 1104 1004 1104 1096 940 c 0,55,56
 1135 870 1135 870 1135 805 c 1,0,-1
EndSplineSet
EndChar

StartChar: egrave
Encoding: 232 232 155
Width: 1139
GlyphClass: 2
Flags: W
HStem: -47 158<451.771 773.012> 480 147<399 1006.84> 946 158<604.526 921.21> 1496 20G<569 795.671>
VStem: 172 180<210.915 478.892> 1008 180<628.569 854.647>
LayerCount: 2
Fore
SplineSet
786 1516 m 1,0,-1
 933 1212 l 1,1,-1
 824 1212 l 1,2,-1
 569 1516 l 1,3,-1
 786 1516 l 1,0,-1
797 1104 m 0,4,5
 894 1104 894 1104 983.5 1065 c 128,-1,6
 1073 1026 1073 1026 1130.5 938 c 128,-1,7
 1188 850 1188 850 1188 765.5 c 128,-1,8
 1188 681 1188 681 1153 480 c 1,9,-1
 362 480 l 1,10,11
 352 441 352 441 352 398.5 c 128,-1,12
 352 356 352 356 354 334 c 0,13,14
 364 231 364 231 431.5 171 c 128,-1,15
 499 111 499 111 605 111 c 0,16,17
 814 111 814 111 926 326 c 1,18,-1
 1098 326 l 1,19,20
 1061 201 1061 201 963 104 c 0,21,22
 809 -47 809 -47 578 -47 c 0,23,24
 360 -47 360 -47 250 113 c 0,25,26
 172 225 172 225 172 359 c 128,-1,27
 172 493 172 493 233 666 c 0,28,29
 319 906 319 906 472.5 1005 c 128,-1,30
 626 1104 626 1104 797 1104 c 0,4,5
1001 627 m 1,31,32
 1008 668 1008 668 1008 696 c 128,-1,33
 1008 724 1008 724 1002 755 c 0,34,35
 964 946 964 946 770 946 c 0,36,37
 610 946 610 946 494 806 c 0,38,39
 428 726 428 726 399 627 c 1,40,-1
 1001 627 l 1,31,32
EndSplineSet
EndChar

StartChar: eacute
Encoding: 233 233 156
Width: 1139
GlyphClass: 2
Flags: W
HStem: -47 158<451.771 773.012> 480 147<399 1006.84> 946 158<604.526 921.21> 1496 20G<940.763 1188>
VStem: 172 180<210.915 478.892> 1008 180<628.569 854.647>
LayerCount: 2
Fore
SplineSet
958 1516 m 1,0,-1
 1188 1516 l 1,1,-1
 819 1212 l 1,2,-1
 696 1212 l 1,3,-1
 958 1516 l 1,0,-1
797 1104 m 0,4,5
 894 1104 894 1104 983.5 1065 c 128,-1,6
 1073 1026 1073 1026 1130.5 938 c 128,-1,7
 1188 850 1188 850 1188 765.5 c 128,-1,8
 1188 681 1188 681 1153 480 c 1,9,-1
 362 480 l 1,10,11
 352 441 352 441 352 398.5 c 128,-1,12
 352 356 352 356 354 334 c 0,13,14
 364 231 364 231 431.5 171 c 128,-1,15
 499 111 499 111 605 111 c 0,16,17
 814 111 814 111 926 326 c 1,18,-1
 1098 326 l 1,19,20
 1061 201 1061 201 963 104 c 0,21,22
 809 -47 809 -47 578 -47 c 0,23,24
 360 -47 360 -47 250 113 c 0,25,26
 172 225 172 225 172 359 c 128,-1,27
 172 493 172 493 233 666 c 0,28,29
 319 906 319 906 472.5 1005 c 128,-1,30
 626 1104 626 1104 797 1104 c 0,4,5
1001 627 m 1,31,32
 1008 668 1008 668 1008 696 c 128,-1,33
 1008 724 1008 724 1002 755 c 0,34,35
 964 946 964 946 770 946 c 0,36,37
 610 946 610 946 494 806 c 0,38,39
 428 726 428 726 399 627 c 1,40,-1
 1001 627 l 1,31,32
EndSplineSet
EndChar

StartChar: ecircumflex
Encoding: 234 234 157
Width: 1139
GlyphClass: 2
Flags: W
HStem: -47 158<451.771 773.012> 480 147<399 1006.84> 946 158<604.526 921.21> 1498 20G<779.922 997.636>
VStem: 172 180<210.915 478.892> 1008 180<628.569 854.647>
LayerCount: 2
Fore
SplineSet
797 1518 m 1,0,-1
 989 1518 l 1,1,-1
 1122 1210 l 1,2,-1
 991 1210 l 1,3,-1
 876 1413 l 1,4,-1
 666 1210 l 1,5,-1
 534 1210 l 1,6,-1
 797 1518 l 1,0,-1
797 1104 m 0,7,8
 894 1104 894 1104 983.5 1065 c 128,-1,9
 1073 1026 1073 1026 1130.5 938 c 128,-1,10
 1188 850 1188 850 1188 765.5 c 128,-1,11
 1188 681 1188 681 1153 480 c 1,12,-1
 362 480 l 1,13,14
 352 441 352 441 352 398.5 c 128,-1,15
 352 356 352 356 354 334 c 0,16,17
 364 231 364 231 431.5 171 c 128,-1,18
 499 111 499 111 605 111 c 0,19,20
 814 111 814 111 926 326 c 1,21,-1
 1098 326 l 1,22,23
 1061 201 1061 201 963 104 c 0,24,25
 809 -47 809 -47 578 -47 c 0,26,27
 360 -47 360 -47 250 113 c 0,28,29
 172 225 172 225 172 359 c 128,-1,30
 172 493 172 493 233 666 c 0,31,32
 319 906 319 906 472.5 1005 c 128,-1,33
 626 1104 626 1104 797 1104 c 0,7,8
1001 627 m 1,34,35
 1008 668 1008 668 1008 696 c 128,-1,36
 1008 724 1008 724 1002 755 c 0,37,38
 964 946 964 946 770 946 c 0,39,40
 610 946 610 946 494 806 c 0,41,42
 428 726 428 726 399 627 c 1,43,-1
 1001 627 l 1,34,35
EndSplineSet
EndChar

StartChar: edieresis
Encoding: 235 235 158
Width: 1139
GlyphClass: 2
Flags: W
HStem: -47 158<451.771 773.012> 480 147<399 1006.84> 946 158<604.526 921.21> 1253 211<606 772 936 1102>
VStem: 172 180<210.915 478.892> 561 211<1253 1464> 606 213<1251 1464> 891 211<1253 1464> 936 213<1251 1464> 1008 180<628.569 854.647>
LayerCount: 2
Fore
SplineSet
819 1464 m 1,0,-1
 772 1253 l 1,1,-1
 561 1253 l 1,2,-1
 606 1464 l 1,3,-1
 819 1464 l 1,0,-1
1149 1464 m 1,4,-1
 1102 1253 l 1,5,-1
 891 1253 l 1,6,-1
 936 1464 l 1,7,-1
 1149 1464 l 1,4,-1
797 1104 m 0,8,9
 894 1104 894 1104 983.5 1065 c 128,-1,10
 1073 1026 1073 1026 1130.5 938 c 128,-1,11
 1188 850 1188 850 1188 765.5 c 128,-1,12
 1188 681 1188 681 1153 480 c 1,13,-1
 362 480 l 1,14,15
 352 441 352 441 352 398.5 c 128,-1,16
 352 356 352 356 354 334 c 0,17,18
 364 231 364 231 431.5 171 c 128,-1,19
 499 111 499 111 605 111 c 0,20,21
 814 111 814 111 926 326 c 1,22,-1
 1098 326 l 1,23,24
 1061 201 1061 201 963 104 c 0,25,26
 809 -47 809 -47 578 -47 c 0,27,28
 360 -47 360 -47 250 113 c 0,29,30
 172 225 172 225 172 359 c 128,-1,31
 172 493 172 493 233 666 c 0,32,33
 319 906 319 906 472.5 1005 c 128,-1,34
 626 1104 626 1104 797 1104 c 0,8,9
1001 627 m 1,35,36
 1008 668 1008 668 1008 696 c 128,-1,37
 1008 724 1008 724 1002 755 c 0,38,39
 964 946 964 946 770 946 c 0,40,41
 610 946 610 946 494 806 c 0,42,43
 428 726 428 726 399 627 c 1,44,-1
 1001 627 l 1,35,36
EndSplineSet
EndChar

StartChar: igrave
Encoding: 236 236 159
Width: 569
GlyphClass: 2
Flags: W
HStem: 1059 20G<417.755 594> 1496 20G<312 539.605>
VStem: 193 172<0 172> 422 172<907 1079>
LayerCount: 2
Fore
SplineSet
594 1079 m 1,0,-1
 365 0 l 1,1,-1
 193 0 l 1,2,-1
 422 1079 l 1,3,-1
 594 1079 l 1,0,-1
530 1516 m 1,4,-1
 676 1212 l 1,5,-1
 567 1212 l 1,6,-1
 312 1516 l 1,7,-1
 530 1516 l 1,4,-1
EndSplineSet
EndChar

StartChar: iacute
Encoding: 237 237 160
Width: 569
GlyphClass: 2
Flags: W
HStem: 1059 20G<417.755 594> 1496 20G<636.763 883>
VStem: 193 172<0 172> 422 172<907 1079>
LayerCount: 2
Fore
SplineSet
594 1079 m 1,0,-1
 365 0 l 1,1,-1
 193 0 l 1,2,-1
 422 1079 l 1,3,-1
 594 1079 l 1,0,-1
654 1516 m 1,4,-1
 883 1516 l 1,5,-1
 515 1212 l 1,6,-1
 392 1212 l 1,7,-1
 654 1516 l 1,4,-1
EndSplineSet
EndChar

StartChar: icircumflex
Encoding: 238 238 161
Width: 569
GlyphClass: 2
Flags: W
HStem: 1059 20G<417.755 594> 1498 20G<488.987 709.506>
VStem: 193 172<0 172> 422 172<907 1079>
LayerCount: 2
Fore
SplineSet
594 1079 m 1,0,-1
 365 0 l 1,1,-1
 193 0 l 1,2,-1
 422 1079 l 1,3,-1
 594 1079 l 1,0,-1
506 1518 m 1,4,-1
 701 1518 l 1,5,-1
 832 1210 l 1,6,-1
 703 1210 l 1,7,-1
 588 1413 l 1,8,-1
 375 1210 l 1,9,-1
 244 1210 l 1,10,-1
 506 1518 l 1,4,-1
EndSplineSet
EndChar

StartChar: idieresis
Encoding: 239 239 162
Width: 569
GlyphClass: 2
Flags: W
HStem: 1059 20G<417.755 594> 1239 211<316 484 646 814>
VStem: 193 172<0 172> 271 213<1239 1452> 316 213<1237 1450> 422 172<907 1079> 601 213<1239 1452> 646 213<1237 1450>
LayerCount: 2
Fore
SplineSet
594 1079 m 1,0,-1
 365 0 l 1,1,-1
 193 0 l 1,2,-1
 422 1079 l 1,3,-1
 594 1079 l 1,0,-1
529 1450 m 1,4,-1
 484 1239 l 1,5,-1
 271 1239 l 1,6,-1
 316 1450 l 1,7,-1
 529 1450 l 1,4,-1
859 1450 m 1,8,-1
 814 1239 l 1,9,-1
 601 1239 l 1,10,-1
 646 1450 l 1,11,-1
 859 1450 l 1,8,-1
EndSplineSet
EndChar

StartChar: ntilde
Encoding: 241 241 163
Width: 1139
GlyphClass: 2
Flags: W
HStem: 957 147<671.587 939.823> 1053 20G<366.75 527> 1255 142<825.884 1075.34> 1320 142<632.171 872.361>
VStem: 143 172<0 172> 831 172<0 172> 995 180<705.821 900.758>
LayerCount: 2
Fore
SplineSet
371 1073 m 1,0,-1
 527 1073 l 1,1,-1
 498 940 l 1,2,3
 661 1104 661 1104 897 1104 c 0,4,5
 1013 1104 1013 1104 1082 1049 c 0,6,7
 1175 976 1175 976 1175 847 c 0,8,9
 1175 808 1175 808 1167 770 c 2,10,-1
 1003 0 l 1,11,-1
 831 0 l 1,12,-1
 983 715 l 2,13,14
 995 770 995 770 995 790 c 0,15,16
 995 862 995 862 944 909.5 c 128,-1,17
 893 957 893 957 827.5 957 c 128,-1,18
 762 957 762 957 708 939 c 0,19,20
 499 866 499 866 441 592 c 2,21,-1
 315 0 l 1,22,-1
 143 0 l 1,23,-1
 371 1073 l 1,0,-1
1205 1472 m 1,24,25
 1174 1374 1174 1374 1113 1314.5 c 128,-1,26
 1052 1255 1052 1255 991.5 1255 c 128,-1,27
 931 1255 931 1255 834.5 1287.5 c 128,-1,28
 738 1320 738 1320 721.5 1320 c 128,-1,29
 705 1320 705 1320 680 1314 c 128,-1,30
 655 1308 655 1308 629 1271 c 0,31,32
 625 1265 625 1265 616 1252 c 1,33,-1
 507 1252 l 1,34,35
 540 1349 540 1349 568.5 1385 c 128,-1,36
 597 1421 597 1421 638.5 1441.5 c 128,-1,37
 680 1462 680 1462 723 1462 c 128,-1,38
 766 1462 766 1462 863.5 1429.5 c 128,-1,39
 961 1397 961 1397 996.5 1397 c 128,-1,40
 1032 1397 1032 1397 1052 1415 c 128,-1,41
 1072 1433 1072 1433 1096 1472 c 1,42,-1
 1205 1472 l 1,24,25
EndSplineSet
EndChar

StartChar: ograve
Encoding: 242 242 164
Width: 1139
GlyphClass: 2
Flags: W
HStem: -47 158<435.038 749.014> 946 158<594.823 908.507> 1496 20G<560 787.671>
VStem: 164 180<206.539 608.73> 1000 180<441.637 852.901>
LayerCount: 2
Fore
SplineSet
778 1516 m 1,0,-1
 925 1212 l 1,1,-1
 816 1212 l 1,2,-1
 560 1516 l 1,3,-1
 778 1516 l 1,0,-1
187 529 m 0,4,5
 282 958 282 958 574 1065 c 0,6,7
 680 1104 680 1104 786 1104 c 0,8,9
 1013 1104 1013 1104 1114 946 c 0,10,11
 1180 845 1180 845 1180 716.5 c 128,-1,12
 1180 588 1180 588 1134 437.5 c 128,-1,13
 1088 287 1088 287 1018 190 c 0,14,15
 847 -47 847 -47 551 -47 c 0,16,17
 378 -47 378 -47 271 58 c 128,-1,18
 164 163 164 163 164 336 c 0,19,20
 164 428 164 428 187 529 c 0,4,5
933 372 m 0,21,22
 1000 530 1000 530 1000 687 c 128,-1,23
 1000 844 1000 844 898 909 c 0,24,25
 840 946 840 946 759.5 946 c 128,-1,26
 679 946 679 946 608 909 c 0,27,28
 476 841 476 841 410 683.5 c 128,-1,29
 344 526 344 526 344 390 c 128,-1,30
 344 254 344 254 406 182.5 c 128,-1,31
 468 111 468 111 567 111 c 0,32,33
 822 111 822 111 933 372 c 0,21,22
EndSplineSet
EndChar

StartChar: oacute
Encoding: 243 243 165
Width: 1139
GlyphClass: 2
Flags: W
HStem: -47 158<435.038 749.014> 946 158<594.823 908.507> 1496 20G<932.763 1180>
VStem: 164 180<206.539 608.73> 1000 180<441.637 852.901>
LayerCount: 2
Fore
SplineSet
950 1516 m 1,0,-1
 1180 1516 l 1,1,-1
 811 1212 l 1,2,-1
 688 1212 l 1,3,-1
 950 1516 l 1,0,-1
187 529 m 0,4,5
 282 958 282 958 574 1065 c 0,6,7
 680 1104 680 1104 786 1104 c 0,8,9
 1013 1104 1013 1104 1114 946 c 0,10,11
 1180 845 1180 845 1180 716.5 c 128,-1,12
 1180 588 1180 588 1134 437.5 c 128,-1,13
 1088 287 1088 287 1018 190 c 0,14,15
 847 -47 847 -47 551 -47 c 0,16,17
 378 -47 378 -47 271 58 c 128,-1,18
 164 163 164 163 164 336 c 0,19,20
 164 428 164 428 187 529 c 0,4,5
933 372 m 0,21,22
 1000 530 1000 530 1000 687 c 128,-1,23
 1000 844 1000 844 898 909 c 0,24,25
 840 946 840 946 759.5 946 c 128,-1,26
 679 946 679 946 608 909 c 0,27,28
 476 841 476 841 410 683.5 c 128,-1,29
 344 526 344 526 344 390 c 128,-1,30
 344 254 344 254 406 182.5 c 128,-1,31
 468 111 468 111 567 111 c 0,32,33
 822 111 822 111 933 372 c 0,21,22
EndSplineSet
EndChar

StartChar: ocircumflex
Encoding: 244 244 166
Width: 1139
GlyphClass: 2
Flags: W
HStem: -47 158<435.038 749.014> 946 158<594.823 908.507> 1498 20G<766.987 985.636>
VStem: 164 180<206.539 608.73> 1000 180<441.637 852.901>
LayerCount: 2
Fore
SplineSet
784 1518 m 1,0,-1
 977 1518 l 1,1,-1
 1110 1210 l 1,2,-1
 979 1210 l 1,3,-1
 864 1413 l 1,4,-1
 653 1210 l 1,5,-1
 522 1210 l 1,6,-1
 784 1518 l 1,0,-1
187 529 m 0,7,8
 282 958 282 958 574 1065 c 0,9,10
 680 1104 680 1104 786 1104 c 0,11,12
 1013 1104 1013 1104 1114 946 c 0,13,14
 1180 845 1180 845 1180 716.5 c 128,-1,15
 1180 588 1180 588 1134 437.5 c 128,-1,16
 1088 287 1088 287 1018 190 c 0,17,18
 847 -47 847 -47 551 -47 c 0,19,20
 378 -47 378 -47 271 58 c 128,-1,21
 164 163 164 163 164 336 c 0,22,23
 164 428 164 428 187 529 c 0,7,8
933 372 m 0,24,25
 1000 530 1000 530 1000 687 c 128,-1,26
 1000 844 1000 844 898 909 c 0,27,28
 840 946 840 946 759.5 946 c 128,-1,29
 679 946 679 946 608 909 c 0,30,31
 476 841 476 841 410 683.5 c 128,-1,32
 344 526 344 526 344 390 c 128,-1,33
 344 254 344 254 406 182.5 c 128,-1,34
 468 111 468 111 567 111 c 0,35,36
 822 111 822 111 933 372 c 0,24,25
EndSplineSet
EndChar

StartChar: otilde
Encoding: 245 245 167
Width: 1139
GlyphClass: 2
Flags: W
HStem: -47 158<435.038 749.014> 946 158<594.823 908.343> 1255 142<815.225 1064.75> 1320 142<645.939 861.599>
VStem: 164 180<206.363 608.645> 1000 180<441.364 852.806>
LayerCount: 2
Fore
SplineSet
187 529 m 0,0,1
 282 957 282 957 574 1065 c 0,2,3
 680 1104 680 1104 786 1104 c 0,4,5
 1012 1104 1012 1104 1115 946 c 0,6,7
 1180 845 1180 845 1180 715.5 c 128,-1,8
 1180 586 1180 586 1134.5 437 c 128,-1,9
 1089 288 1089 288 1018 190 c 0,10,11
 847 -47 847 -47 551 -47 c 0,12,13
 378 -47 378 -47 271 58 c 128,-1,14
 164 163 164 163 164 335 c 0,15,16
 164 428 164 428 187 529 c 0,0,1
933 372 m 0,17,18
 1000 530 1000 530 1000 687 c 128,-1,19
 1000 844 1000 844 898 909 c 0,20,21
 840 946 840 946 759.5 946 c 128,-1,22
 679 946 679 946 608 909 c 0,23,24
 476 841 476 841 410 683.5 c 128,-1,25
 344 526 344 526 344 390 c 128,-1,26
 344 254 344 254 406 182.5 c 128,-1,27
 468 111 468 111 567 111 c 0,28,29
 822 111 822 111 933 372 c 0,17,18
1194 1472 m 1,30,31
 1163 1375 1163 1375 1102.5 1315 c 128,-1,32
 1042 1255 1042 1255 981 1255 c 128,-1,33
 920 1255 920 1255 823.5 1287.5 c 128,-1,34
 727 1320 727 1320 710.5 1320 c 128,-1,35
 694 1320 694 1320 669 1314 c 128,-1,36
 644 1308 644 1308 605 1252 c 1,37,-1
 496 1252 l 1,38,39
 531 1351 531 1351 559 1386 c 128,-1,40
 587 1421 587 1421 628.5 1441.5 c 128,-1,41
 670 1462 670 1462 713 1462 c 128,-1,42
 756 1462 756 1462 853 1429.5 c 128,-1,43
 950 1397 950 1397 986 1397 c 128,-1,44
 1022 1397 1022 1397 1041.5 1415 c 128,-1,45
 1061 1433 1061 1433 1085 1472 c 1,46,-1
 1194 1472 l 1,30,31
EndSplineSet
EndChar

StartChar: odieresis
Encoding: 246 246 168
Width: 1139
GlyphClass: 2
Flags: W
HStem: -47 158<435.038 749.014> 946 158<594.823 908.507> 1253 211<596 762 926 1092>
VStem: 164 180<206.539 608.73> 551 211<1253 1464> 596 213<1251 1464> 881 211<1253 1464> 926 213<1251 1464> 1000 180<441.637 852.901>
LayerCount: 2
Fore
SplineSet
809 1464 m 1,0,-1
 762 1253 l 1,1,-1
 551 1253 l 1,2,-1
 596 1464 l 1,3,-1
 809 1464 l 1,0,-1
1139 1464 m 1,4,-1
 1092 1253 l 1,5,-1
 881 1253 l 1,6,-1
 926 1464 l 1,7,-1
 1139 1464 l 1,4,-1
187 529 m 0,8,9
 282 958 282 958 574 1065 c 0,10,11
 680 1104 680 1104 786 1104 c 0,12,13
 1013 1104 1013 1104 1114 946 c 0,14,15
 1180 845 1180 845 1180 716.5 c 128,-1,16
 1180 588 1180 588 1134 437.5 c 128,-1,17
 1088 287 1088 287 1018 190 c 0,18,19
 847 -47 847 -47 551 -47 c 0,20,21
 378 -47 378 -47 271 58 c 128,-1,22
 164 163 164 163 164 336 c 0,23,24
 164 428 164 428 187 529 c 0,8,9
933 372 m 0,25,26
 1000 530 1000 530 1000 687 c 128,-1,27
 1000 844 1000 844 898 909 c 0,28,29
 840 946 840 946 759.5 946 c 128,-1,30
 679 946 679 946 608 909 c 0,31,32
 476 841 476 841 410 683.5 c 128,-1,33
 344 526 344 526 344 390 c 128,-1,34
 344 254 344 254 406 182.5 c 128,-1,35
 468 111 468 111 567 111 c 0,36,37
 822 111 822 111 933 372 c 0,25,26
EndSplineSet
EndChar

StartChar: divide
Encoding: 247 247 169
Width: 1196
GlyphClass: 2
Flags: W
HStem: 0 213<550.487 698.513> 403 147<218 1180> 733 213<701.487 849.513>
VStem: 518 213<32.4873 192.953> 669 213<765.487 925.953>
LayerCount: 2
Fore
SplineSet
1210 550 m 1,0,-1
 1180 403 l 1,1,-1
 188 403 l 1,2,-1
 218 550 l 1,3,-1
 1210 550 l 1,0,-1
549.5 181.5 m 128,-1,5
 581 213 581 213 613.5 213 c 128,-1,6
 646 213 646 213 665 205 c 0,7,8
 731 177 731 177 731 105 c 0,9,10
 731 62 731 62 699.5 31 c 128,-1,11
 668 0 668 0 624.5 0 c 128,-1,12
 581 0 581 0 549.5 31.5 c 128,-1,13
 518 63 518 63 518 106.5 c 128,-1,4
 518 150 518 150 549.5 181.5 c 128,-1,5
700 915 m 128,-1,15
 731 946 731 946 764 946 c 128,-1,16
 797 946 797 946 816 938 c 0,17,18
 882 910 882 910 882 838 c 0,19,20
 882 795 882 795 850.5 764 c 128,-1,21
 819 733 819 733 775.5 733 c 128,-1,22
 732 733 732 733 700.5 764.5 c 128,-1,23
 669 796 669 796 669 840 c 128,-1,14
 669 884 669 884 700 915 c 128,-1,15
EndSplineSet
EndChar

StartChar: oslash
Encoding: 248 248 170
Width: 1251
GlyphClass: 2
Flags: W
HStem: -47 158<438.817 754.583> 946 158<595.492 907.618>
VStem: 166 180<290.579 610.918> 1002 180<441.897 755.955>
LayerCount: 2
Fore
SplineSet
562 -47 m 0,0,1
 348 -47 348 -47 252 84 c 1,2,-1
 92 -62 l 1,3,-1
 39 -4 l 1,4,-1
 209 151 l 1,5,6
 166 246 166 246 166 336.5 c 128,-1,7
 166 427 166 427 189 528 c 0,8,9
 249 803 249 803 398 953.5 c 128,-1,10
 547 1104 547 1104 772.5 1104 c 128,-1,11
 998 1104 998 1104 1100 967 c 1,12,-1
 1256 1108 l 1,13,-1
 1309 1046 l 1,14,-1
 1143 895 l 1,15,16
 1182 809 1182 809 1182 698.5 c 128,-1,17
 1182 588 1182 588 1136.5 438 c 128,-1,18
 1091 288 1091 288 1020 190 c 0,19,20
 849 -47 849 -47 562 -47 c 0,0,1
963 840 m 1,21,22
 902 946 902 946 755 946 c 0,23,24
 678 946 678 946 607 909 c 0,25,26
 479 843 479 843 412.5 685 c 128,-1,27
 346 527 346 527 346 369 c 0,28,29
 346 327 346 327 358 289 c 1,30,-1
 963 840 l 1,21,22
389 209 m 1,31,32
 450 111 450 111 593 111 c 1,33,34
 690 111 690 111 774.5 167.5 c 128,-1,35
 859 224 859 224 904.5 310 c 128,-1,36
 950 396 950 396 976 496.5 c 0,37,38
 1002 596 1002 596 1002 648 c 0,39,40
 1002 708 1002 708 991 758 c 1,41,-1
 389 209 l 1,31,32
EndSplineSet
EndChar

StartChar: ugrave
Encoding: 249 249 171
Width: 1139
GlyphClass: 2
Flags: W
HStem: -47 147<415.948 688.943> 1053 20G<357.744 534 1039.76 1216> 1496 20G<553 780.605>
VStem: 180 187<146.551 311.142> 362 172<901 1073> 1044 172<901 1073>
LayerCount: 2
Fore
SplineSet
771 1516 m 1,0,-1
 917 1212 l 1,1,-1
 808 1212 l 1,2,-1
 553 1516 l 1,3,-1
 771 1516 l 1,0,-1
988 0 m 1,4,-1
 833 0 l 1,5,-1
 858 117 l 1,6,7
 769 30 769 30 675.5 -8.5 c 128,-1,8
 582 -47 582 -47 496 -47 c 128,-1,9
 410 -47 410 -47 343.5 -32.5 c 128,-1,10
 277 -18 277 -18 228.5 38.5 c 128,-1,11
 180 95 180 95 180 175 c 0,12,13
 180 216 180 216 186 246 c 2,14,-1
 362 1073 l 1,15,-1
 534 1073 l 1,16,-1
 373 313 l 2,17,18
 367 286 367 286 367 258 c 0,19,20
 367 185 367 185 415.5 142.5 c 128,-1,21
 464 100 464 100 533 100 c 0,22,23
 715 100 715 100 825 252 c 0,24,25
 888 339 888 339 915 465 c 2,26,-1
 1044 1073 l 1,27,-1
 1216 1073 l 1,28,-1
 988 0 l 1,4,-1
EndSplineSet
EndChar

StartChar: uacute
Encoding: 250 250 172
Width: 1139
GlyphClass: 2
Flags: W
HStem: -47 147<415.948 688.943> 1053 20G<357.744 534 1039.76 1216> 1496 20G<930.763 1177>
VStem: 180 187<146.551 311.142> 362 172<901 1073> 1044 172<901 1073>
LayerCount: 2
Fore
SplineSet
948 1516 m 1,0,-1
 1177 1516 l 1,1,-1
 809 1212 l 1,2,-1
 686 1212 l 1,3,-1
 948 1516 l 1,0,-1
988 0 m 1,4,-1
 833 0 l 1,5,-1
 858 117 l 1,6,7
 769 30 769 30 675.5 -8.5 c 128,-1,8
 582 -47 582 -47 496 -47 c 128,-1,9
 410 -47 410 -47 343.5 -32.5 c 128,-1,10
 277 -18 277 -18 228.5 38.5 c 128,-1,11
 180 95 180 95 180 175 c 0,12,13
 180 216 180 216 186 246 c 2,14,-1
 362 1073 l 1,15,-1
 534 1073 l 1,16,-1
 373 313 l 2,17,18
 367 286 367 286 367 258 c 0,19,20
 367 185 367 185 415.5 142.5 c 128,-1,21
 464 100 464 100 533 100 c 0,22,23
 715 100 715 100 825 252 c 0,24,25
 888 339 888 339 915 465 c 2,26,-1
 1044 1073 l 1,27,-1
 1216 1073 l 1,28,-1
 988 0 l 1,4,-1
EndSplineSet
EndChar

StartChar: ucircumflex
Encoding: 251 251 173
Width: 1139
GlyphClass: 2
Flags: W
HStem: -47 147<415.948 688.943> 1053 20G<357.744 534 1039.76 1216> 1498 20G<760.987 979.636>
VStem: 180 187<146.551 311.142> 362 172<901 1073> 1044 172<901 1073>
LayerCount: 2
Fore
SplineSet
778 1518 m 1,0,-1
 971 1518 l 1,1,-1
 1104 1210 l 1,2,-1
 973 1210 l 1,3,-1
 858 1413 l 1,4,-1
 647 1210 l 1,5,-1
 516 1210 l 1,6,-1
 778 1518 l 1,0,-1
988 0 m 1,7,-1
 833 0 l 1,8,-1
 858 117 l 1,9,10
 769 30 769 30 675.5 -8.5 c 128,-1,11
 582 -47 582 -47 496 -47 c 128,-1,12
 410 -47 410 -47 343.5 -32.5 c 128,-1,13
 277 -18 277 -18 228.5 38.5 c 128,-1,14
 180 95 180 95 180 175 c 0,15,16
 180 216 180 216 186 246 c 2,17,-1
 362 1073 l 1,18,-1
 534 1073 l 1,19,-1
 373 313 l 2,20,21
 367 286 367 286 367 258 c 0,22,23
 367 185 367 185 415.5 142.5 c 128,-1,24
 464 100 464 100 533 100 c 0,25,26
 715 100 715 100 825 252 c 0,27,28
 888 339 888 339 915 465 c 2,29,-1
 1044 1073 l 1,30,-1
 1216 1073 l 1,31,-1
 988 0 l 1,7,-1
EndSplineSet
EndChar

StartChar: udieresis
Encoding: 252 252 174
Width: 1139
GlyphClass: 2
Flags: W
HStem: -47 147<415.948 688.943> 1053 20G<357.744 534 1039.76 1216> 1253 211<594 760 923 1089>
VStem: 180 187<146.551 311.142> 362 172<901 1073> 549 211<1253 1464> 594 213<1251 1464> 878 211<1253 1464> 923 213<1251 1464> 1044 172<901 1073>
LayerCount: 2
Fore
SplineSet
807 1464 m 1,0,-1
 760 1253 l 1,1,-1
 549 1253 l 1,2,-1
 594 1464 l 1,3,-1
 807 1464 l 1,0,-1
1136 1464 m 1,4,-1
 1089 1253 l 1,5,-1
 878 1253 l 1,6,-1
 923 1464 l 1,7,-1
 1136 1464 l 1,4,-1
988 0 m 1,8,-1
 833 0 l 1,9,-1
 858 117 l 1,10,11
 769 30 769 30 675.5 -8.5 c 128,-1,12
 582 -47 582 -47 496 -47 c 128,-1,13
 410 -47 410 -47 343.5 -32.5 c 128,-1,14
 277 -18 277 -18 228.5 38.5 c 128,-1,15
 180 95 180 95 180 175 c 0,16,17
 180 216 180 216 186 246 c 2,18,-1
 362 1073 l 1,19,-1
 534 1073 l 1,20,-1
 373 313 l 2,21,22
 367 286 367 286 367 258 c 0,23,24
 367 185 367 185 415.5 142.5 c 128,-1,25
 464 100 464 100 533 100 c 0,26,27
 715 100 715 100 825 252 c 0,28,29
 888 339 888 339 915 465 c 2,30,-1
 1044 1073 l 1,31,-1
 1216 1073 l 1,32,-1
 988 0 l 1,8,-1
EndSplineSet
EndChar

StartChar: yacute
Encoding: 253 253 175
Width: 1024
GlyphClass: 2
Flags: W
HStem: -446 168<50.0276 256.527> 1053 20G<270 456.257 1014.52 1208> 1496 20G<871.763 1119>
VStem: 270 184<889 1073>
LayerCount: 2
Fore
SplineSet
1026 1073 m 1,0,-1
 1208 1073 l 1,1,-1
 454 -225 l 2,2,3
 388 -340 388 -340 307 -393 c 128,-1,4
 226 -446 226 -446 118 -446 c 0,5,6
 64 -446 64 -446 16 -426 c 1,7,-1
 49 -272 l 1,8,9
 82 -278 82 -278 100 -278 c 2,10,-1
 145 -278 l 2,11,12
 200 -278 200 -278 231 -257.5 c 128,-1,13
 262 -237 262 -237 303 -174 c 2,14,-1
 409 -8 l 1,15,-1
 270 1073 l 1,16,-1
 454 1073 l 1,17,-1
 548 240 l 1,18,-1
 1026 1073 l 1,0,-1
889 1516 m 1,19,-1
 1119 1516 l 1,20,-1
 750 1212 l 1,21,-1
 627 1212 l 1,22,-1
 889 1516 l 1,19,-1
EndSplineSet
EndChar

StartChar: ydieresis
Encoding: 255 255 176
Width: 1024
GlyphClass: 2
Flags: W
HStem: -446 168<50.0276 256.527> 1053 20G<270 456.257 1014.52 1208> 1253 211<548 714 878 1044>
VStem: 270 184<889 1073> 503 211<1253 1464> 548 213<1251 1464> 833 211<1253 1464> 878 213<1251 1464>
LayerCount: 2
Fore
SplineSet
1026 1073 m 1,0,-1
 1208 1073 l 1,1,-1
 454 -225 l 2,2,3
 388 -340 388 -340 307 -393 c 128,-1,4
 226 -446 226 -446 118 -446 c 0,5,6
 64 -446 64 -446 16 -426 c 1,7,-1
 49 -272 l 1,8,9
 82 -278 82 -278 100 -278 c 2,10,-1
 145 -278 l 2,11,12
 200 -278 200 -278 231 -257.5 c 128,-1,13
 262 -237 262 -237 303 -174 c 2,14,-1
 409 -8 l 1,15,-1
 270 1073 l 1,16,-1
 454 1073 l 1,17,-1
 548 240 l 1,18,-1
 1026 1073 l 1,0,-1
761 1464 m 1,19,-1
 714 1253 l 1,20,-1
 503 1253 l 1,21,-1
 548 1464 l 1,22,-1
 761 1464 l 1,19,-1
1091 1464 m 1,23,-1
 1044 1253 l 1,24,-1
 833 1253 l 1,25,-1
 878 1464 l 1,26,-1
 1091 1464 l 1,23,-1
EndSplineSet
EndChar

StartChar: dotlessi
Encoding: 305 305 177
Width: 569
GlyphClass: 2
Flags: W
HStem: 1059 20G<417.755 594>
VStem: 193 172<0 172> 422 172<907 1079>
LayerCount: 2
Fore
SplineSet
594 1079 m 1,0,-1
 365 0 l 1,1,-1
 193 0 l 1,2,-1
 422 1079 l 1,3,-1
 594 1079 l 1,0,-1
EndSplineSet
EndChar

StartChar: OE
Encoding: 338 338 178
Width: 2048
GlyphClass: 3
Flags: W
HStem: -47 166<541.925 903.407> 0 168<1299 1960> 670 168<1442 2075> 1325 168<1545 2235> 1352 166<787.315 1178.22>
VStem: 207 197<267.242 780.589>
LayerCount: 2
Fore
SplineSet
1406 670 m 1,0,-1
 1299 168 l 1,1,-1
 1995 168 l 1,2,-1
 1960 0 l 1,3,-1
 1071 0 l 1,4,-1
 1105 158 l 1,5,6
 1017 51 1017 51 915 2 c 0,7,8
 814 -47 814 -47 692 -47 c 0,9,10
 415 -47 415 -47 293 143 c 0,11,12
 207 279 207 279 207 448 c 0,13,14
 207 688 207 688 305 952 c 0,15,16
 424 1268 424 1268 661 1412 c 0,17,18
 836 1518 836 1518 1015 1518 c 0,19,20
 1144 1518 1144 1518 1225.5 1474.5 c 128,-1,21
 1307 1431 1307 1431 1356 1337 c 1,22,-1
 1389 1493 l 1,23,-1
 2269 1493 l 1,24,-1
 2235 1325 l 1,25,-1
 1545 1325 l 1,26,-1
 1442 838 l 1,27,-1
 2112 838 l 1,28,-1
 2075 670 l 1,29,-1
 1406 670 l 1,0,-1
1306 1104 m 1,30,31
 1285 1197 1285 1197 1217.5 1274.5 c 128,-1,32
 1150 1352 1150 1352 984 1352 c 0,33,34
 710 1352 710 1352 550 1072 c 0,35,36
 491 967 491 967 447.5 785.5 c 128,-1,37
 404 604 404 604 404 483.5 c 128,-1,38
 404 363 404 363 441 281 c 0,39,40
 513 119 513 119 721 119 c 0,41,42
 977 119 977 119 1150 373 c 1,43,-1
 1306 1104 l 1,30,31
EndSplineSet
EndChar

StartChar: oe
Encoding: 339 339 179
Width: 1933
GlyphClass: 3
Flags: W
HStem: -47 158<441.08 748.75 1238.53 1562.49> 480 147<1190 1797.23> 946 158<599.908 904.557 1397.6 1709.82>
VStem: 174 180<201.89 612.467> 1798 180<629.214 854.814>
LayerCount: 2
Fore
SplineSet
1587 1104 m 0,0,1
 1760 1104 1760 1104 1869 1000 c 128,-1,2
 1978 896 1978 896 1978 730 c 0,3,4
 1978 640 1978 640 1943 480 c 1,5,-1
 1153 480 l 1,6,7
 1139 413 1139 413 1139 343 c 128,-1,8
 1139 273 1139 273 1184 209 c 0,9,10
 1254 111 1254 111 1398 111 c 0,11,12
 1603 111 1603 111 1716 326 c 1,13,-1
 1888 326 l 1,14,15
 1853 204 1853 204 1768 118 c 0,16,17
 1604 -46 1604 -46 1366 -47 c 1,18,19
 1260 -47 1260 -47 1194 -15 c 128,-1,20
 1128 17 1128 17 1078 68 c 128,-1,21
 1028 119 1028 119 1005 172 c 1,22,23
 980 138 980 138 952 111 c 0,24,25
 790 -47 790 -47 563 -47 c 0,26,27
 339 -47 339 -47 240 111 c 0,28,29
 174 215 174 215 174 339.5 c 128,-1,30
 174 464 174 464 218.5 612 c 128,-1,31
 263 760 263 760 338.5 874.5 c 128,-1,32
 414 989 414 989 535.5 1046.5 c 128,-1,33
 657 1104 657 1104 790 1104 c 0,34,35
 1053 1104 1053 1104 1143 893 c 1,36,37
 1209 985 1209 985 1334.5 1044.5 c 128,-1,38
 1460 1104 1460 1104 1587 1104 c 0,0,1
736 148 m 0,39,40
 869 216 869 216 933 373 c 128,-1,41
 997 530 997 530 997 686 c 0,42,43
 998 842 998 842 896 908 c 0,44,45
 838 946 838 946 758 946 c 128,-1,46
 678 946 678 946 611 909 c 0,47,48
 481 837 481 837 417.5 680.5 c 128,-1,49
 354 524 354 524 354 387 c 128,-1,50
 354 250 354 250 415 180.5 c 128,-1,51
 476 111 476 111 570 111 c 128,-1,52
 664 111 664 111 736 148 c 0,39,40
1792 627 m 1,53,54
 1798 665 1798 665 1798 692 c 0,55,56
 1798 785 1798 785 1753 855 c 0,57,58
 1694 946 1694 946 1566 946 c 128,-1,59
 1438 946 1438 946 1334 857.5 c 128,-1,60
 1230 769 1230 769 1190 627 c 1,61,-1
 1792 627 l 1,53,54
EndSplineSet
EndChar

StartChar: Ydieresis
Encoding: 376 376 180
Width: 1366
GlyphClass: 2
Flags: W
HStem: 1473 20G<344 580.633 1427.8 1671> 1660 211<818 984 1148 1314>
VStem: 600 193<0 193> 773 211<1660 1871> 818 213<1658 1871> 1103 211<1660 1871> 1148 213<1658 1871>
LayerCount: 2
Fore
SplineSet
917 586 m 1,0,-1
 793 0 l 1,1,-1
 600 0 l 1,2,-1
 725 586 l 1,3,-1
 344 1493 l 1,4,-1
 573 1493 l 1,5,-1
 852 762 l 1,6,-1
 1444 1493 l 1,7,-1
 1671 1493 l 1,8,-1
 917 586 l 1,0,-1
1031 1871 m 1,9,-1
 984 1660 l 1,10,-1
 773 1660 l 1,11,-1
 818 1871 l 1,12,-1
 1031 1871 l 1,9,-1
1361 1871 m 1,13,-1
 1314 1660 l 1,14,-1
 1103 1660 l 1,15,-1
 1148 1871 l 1,16,-1
 1361 1871 l 1,13,-1
EndSplineSet
EndChar

StartChar: florin
Encoding: 402 402 181
Width: 1139
GlyphClass: 2
Flags: W
HStem: -434 158<-9.92883 228.791> 803 147<491 690 929 1130> 1353 158<1120.72 1354.73>
LayerCount: 2
Fore
SplineSet
1161 950 m 1,0,-1
 1130 803 l 1,1,-1
 870 803 l 1,2,-1
 546 -10 l 2,3,4
 466 -211 466 -211 346 -322.5 c 128,-1,5
 226 -434 226 -434 41 -434 c 0,6,7
 -19 -434 -19 -434 -66 -413 c 1,8,-1
 6 -237 l 1,9,10
 52 -276 52 -276 108 -276 c 0,11,12
 259 -276 259 -276 352 -43 c 2,13,-1
 690 803 l 1,14,-1
 460 803 l 1,15,-1
 491 950 l 1,16,-1
 747 950 l 1,17,-1
 835 1161 l 2,18,19
 902 1323 902 1323 1022 1417 c 128,-1,20
 1142 1511 1142 1511 1271 1511 c 0,21,22
 1350 1511 1350 1511 1425 1473 c 1,23,-1
 1331 1312 l 1,24,25
 1278 1353 1278 1353 1231 1353 c 0,26,27
 1086 1353 1086 1353 985 1092 c 2,28,-1
 929 950 l 1,29,-1
 1161 950 l 1,0,-1
EndSplineSet
EndChar

StartChar: circumflex
Encoding: 710 710 182
Width: 682
GlyphClass: 2
Flags: W
HStem: 1210 308
VStem: 299 588
LayerCount: 2
Fore
SplineSet
561 1518 m 1,0,-1
 756 1518 l 1,1,-1
 887 1210 l 1,2,-1
 758 1210 l 1,3,-1
 643 1413 l 1,4,-1
 430 1210 l 1,5,-1
 299 1210 l 1,6,-1
 561 1518 l 1,0,-1
EndSplineSet
EndChar

StartChar: caron
Encoding: 711 711 183
Width: 682
GlyphClass: 2
Flags: W
HStem: 1212 304
VStem: 360 588
LayerCount: 2
Fore
SplineSet
686 1212 m 1,0,-1
 491 1212 l 1,1,-1
 360 1516 l 1,2,-1
 489 1516 l 1,3,-1
 604 1315 l 1,4,-1
 817 1516 l 1,5,-1
 948 1516 l 1,6,-1
 686 1212 l 1,0,-1
EndSplineSet
EndChar

StartChar: breve
Encoding: 728 728 184
Width: 682
GlyphClass: 2
Flags: W
HStem: 1217 147<493.729 788.887> 1473 20G<343 457 842.5 965>
VStem: 338 119<1394.27 1493>
LayerCount: 2
Fore
SplineSet
348 1493 m 1,0,-1
 457 1493 l 1,1,-1
 457 1466 l 2,2,3
 457 1420 457 1420 503 1392 c 128,-1,4
 549 1364 549 1364 632.5 1364 c 128,-1,5
 716 1364 716 1364 775.5 1398 c 128,-1,6
 835 1432 835 1432 850 1493 c 1,7,-1
 965 1493 l 1,8,9
 936 1375 936 1375 878 1323 c 0,10,11
 761 1217 761 1217 599 1217 c 0,12,13
 539 1217 539 1217 483 1235 c 0,14,15
 338 1283 338 1283 338 1419 c 0,16,17
 338 1445 338 1445 348 1493 c 1,0,-1
EndSplineSet
EndChar

StartChar: dotaccent
Encoding: 729 729 185
Width: 682
GlyphClass: 2
Flags: W
HStem: 1253 211<545 713>
VStem: 500 213<1253 1466> 545 213<1251 1464>
LayerCount: 2
Fore
SplineSet
758 1464 m 1,0,-1
 713 1253 l 1,1,-1
 500 1253 l 1,2,-1
 545 1464 l 1,3,-1
 758 1464 l 1,0,-1
EndSplineSet
EndChar

StartChar: ring
Encoding: 730 730 186
Width: 682
GlyphClass: 2
Flags: W
HStem: 1186 89<541.721 694.047> 1456 89<561.851 705.77>
VStem: 442 94<1279.72 1431.01> 719 92<1299.8 1443.21>
LayerCount: 2
Fore
SplineSet
664 1545 m 0,0,1
 700 1545 700 1545 731 1531 c 0,2,3
 811 1494 811 1494 811 1409.5 c 128,-1,4
 811 1325 811 1325 745 1255.5 c 128,-1,5
 679 1186 679 1186 587 1186 c 0,6,7
 553 1186 553 1186 522 1200 c 0,8,9
 442 1238 442 1238 442 1330 c 0,10,11
 442 1421 442 1421 516 1483 c 128,-1,12
 590 1545 590 1545 664 1545 c 0,0,1
699 1436 m 128,-1,14
 679 1456 679 1456 654 1456 c 128,-1,15
 629 1456 629 1456 604.5 1446.5 c 128,-1,16
 580 1437 580 1437 558 1407 c 0,17,18
 536 1378 536 1378 536 1358 c 0,19,20
 536 1276 536 1276 609 1275 c 0,21,22
 651 1275 651 1275 685 1309 c 128,-1,23
 719 1343 719 1343 719 1379.5 c 128,-1,13
 719 1416 719 1416 699 1436 c 128,-1,14
EndSplineSet
EndChar

StartChar: ogonek
Encoding: 731 731 187
Width: 682
GlyphClass: 2
Flags: W
HStem: -419 91<241.031 486.568>
VStem: 72 154<-308.774 -137.525>
LayerCount: 2
Fore
SplineSet
338 0 m 1,0,-1
 480 0 l 1,1,2
 450 -15 450 -15 403 -38 c 0,3,4
 226 -125 226 -125 226 -239 c 0,5,6
 226 -258 226 -258 234 -273 c 0,7,8
 265 -328 265 -328 355.5 -328 c 128,-1,9
 446 -328 446 -328 504 -307 c 1,10,-1
 486 -399 l 1,11,12
 427 -419 427 -419 321 -419 c 128,-1,13
 215 -419 215 -419 143.5 -379 c 128,-1,14
 72 -339 72 -339 72 -265 c 0,15,16
 72 -149 72 -149 193 -69 c 0,17,18
 243 -36 243 -36 338 0 c 1,0,-1
EndSplineSet
EndChar

StartChar: tilde
Encoding: 732 732 188
Width: 682
GlyphClass: 2
Flags: W
HStem: 1255 142<584.894 834.632> 1320 142<415.936 631.372>
LayerCount: 2
Fore
SplineSet
964 1472 m 1,0,1
 932 1373 932 1373 872 1314 c 128,-1,2
 812 1255 812 1255 751 1255 c 128,-1,3
 690 1255 690 1255 593.5 1287.5 c 128,-1,4
 497 1320 497 1320 480.5 1320 c 128,-1,5
 464 1320 464 1320 439 1314 c 128,-1,6
 414 1308 414 1308 375 1252 c 1,7,-1
 266 1252 l 1,8,9
 299 1347 299 1347 328 1384 c 128,-1,10
 357 1421 357 1421 398.5 1441.5 c 128,-1,11
 440 1462 440 1462 482.5 1462 c 128,-1,12
 525 1462 525 1462 622.5 1429.5 c 128,-1,13
 720 1397 720 1397 756 1397 c 128,-1,14
 792 1397 792 1397 811.5 1415 c 128,-1,15
 831 1433 831 1433 855 1472 c 1,16,-1
 964 1472 l 1,0,1
EndSplineSet
EndChar

StartChar: hungarumlaut
Encoding: 733 733 189
Width: 682
GlyphClass: 2
Flags: W
HStem: 1208 308
LayerCount: 2
Fore
SplineSet
448 1516 m 1,0,-1
 678 1516 l 1,1,-1
 309 1208 l 1,2,-1
 186 1208 l 1,3,-1
 448 1516 l 1,0,-1
804 1516 m 1,4,-1
 1034 1516 l 1,5,-1
 665 1208 l 1,6,-1
 542 1208 l 1,7,-1
 804 1516 l 1,4,-1
EndSplineSet
EndChar

StartChar: uni0394
Encoding: 916 916 190
Width: 1374
GlyphClass: 2
Flags: W
HStem: 0 168<288 1155> 1473 20G<886.689 1107.9>
LayerCount: 2
Fore
SplineSet
-20 0 m 1,0,-1
 899 1493 l 1,1,-1
 1104 1493 l 1,2,-1
 1395 0 l 1,3,-1
 -20 0 l 1,0,-1
288 168 m 1,4,-1
 1155 168 l 1,5,-1
 953 1261 l 1,6,-1
 288 168 l 1,4,-1
EndSplineSet
EndChar

StartChar: Pi
Encoding: 928 928 191
Width: 1485
GlyphClass: 2
Flags: W
HStem: 1325 168<642 1406>
VStem: 168 193<0 193> 485 1149<344 1493> 1124 193<0 193>
LayerCount: 2
Fore
SplineSet
642 1325 m 1,0,-1
 361 0 l 1,1,-1
 168 0 l 1,2,-1
 485 1493 l 1,3,-1
 1634 1493 l 1,4,-1
 1317 0 l 1,5,-1
 1124 0 l 1,6,-1
 1406 1325 l 1,7,-1
 642 1325 l 1,0,-1
EndSplineSet
EndChar

StartChar: uni03A9
Encoding: 937 937 192
Width: 1559
GlyphClass: 2
Flags: W
HStem: 0 168<101 495 1134 1484> 1350 169<830.612 1258.35>
VStem: 244 190<418.667 897.122> 1460 191<693.129 1144.58>
LayerCount: 2
Fore
SplineSet
65 0 m 1,0,-1
 101 168 l 1,1,-1
 495 168 l 1,2,3
 244 347 244 347 244 656 c 0,4,5
 244 869 244 869 352 1086.5 c 128,-1,6
 460 1304 460 1304 678 1423 c 0,7,8
 855 1519 855 1519 1051.5 1519 c 128,-1,9
 1248 1519 1248 1519 1399 1427 c 0,10,11
 1516 1356 1516 1356 1583.5 1221.5 c 0,12,13
 1651 1088 1651 1088 1651 926 c 0,14,15
 1651 598 1651 598 1434 372 c 0,16,17
 1310 242 1310 242 1134 168 c 1,18,-1
 1519 168 l 1,19,-1
 1484 0 l 1,20,-1
 894 0 l 1,21,-1
 929 168 l 1,22,23
 1061 237 1061 237 1137 296 c 128,-1,24
 1213 355 1213 355 1277 439 c 0,25,26
 1460 676 1460 676 1460 945 c 0,27,28
 1460 1045 1460 1045 1419 1136.5 c 128,-1,29
 1378 1228 1378 1228 1285.5 1289 c 128,-1,30
 1193 1350 1193 1350 1052 1350 c 0,31,32
 868 1350 868 1350 718.5 1241.5 c 128,-1,33
 569 1133 569 1133 492 935 c 0,34,35
 434 784 434 784 434 629.5 c 128,-1,36
 434 475 434 475 489 371 c 128,-1,37
 544 267 544 267 691 168 c 1,38,-1
 655 0 l 1,39,-1
 65 0 l 1,0,-1
EndSplineSet
EndChar

StartChar: pi
Encoding: 960 960 193
Width: 1372
GlyphClass: 2
Flags: W
HStem: 921 152<343 465 637 1127 1299 1452>
VStem: 269 172<0 172> 931 172<0 172>
LayerCount: 2
Fore
SplineSet
1484 1073 m 1,0,-1
 1452 921 l 1,1,-1
 1299 921 l 1,2,-1
 1103 0 l 1,3,-1
 931 0 l 1,4,-1
 1127 921 l 1,5,-1
 637 921 l 1,6,-1
 441 0 l 1,7,-1
 269 0 l 1,8,-1
 465 921 l 1,9,-1
 311 921 l 1,10,-1
 343 1073 l 1,11,-1
 1484 1073 l 1,0,-1
EndSplineSet
EndChar

StartChar: endash
Encoding: 8211 8211 194
Width: 1139
GlyphClass: 2
Flags: W
HStem: 492 147<125 1255>
LayerCount: 2
Fore
SplineSet
1286 639 m 1,0,-1
 1255 492 l 1,1,-1
 94 492 l 1,2,-1
 125 639 l 1,3,-1
 1286 639 l 1,0,-1
EndSplineSet
EndChar

StartChar: emdash
Encoding: 8212 8212 195
Width: 2048
GlyphClass: 2
Flags: W
HStem: 492 147<117 2156>
LayerCount: 2
Fore
SplineSet
2187 639 m 1,0,-1
 2156 492 l 1,1,-1
 86 492 l 1,2,-1
 117 639 l 1,3,-1
 2187 639 l 1,0,-1
EndSplineSet
EndChar

StartChar: quoteleft
Encoding: 8216 8216 196
Width: 455
GlyphClass: 2
Flags: W
HStem: 1373 79<535.902 614>
VStem: 334 190<977 1167>
LayerCount: 2
Fore
SplineSet
524 977 m 1,0,-1
 334 977 l 1,1,-1
 378 1181 l 2,2,3
 433 1438 433 1438 631 1452 c 1,4,-1
 614 1373 l 1,5,6
 554 1363 554 1363 523 1323 c 128,-1,7
 492 1283 492 1283 472 1188 c 1,8,-1
 570 1188 l 1,9,-1
 524 977 l 1,0,-1
EndSplineSet
EndChar

StartChar: quoteright
Encoding: 8217 8217 197
Width: 455
GlyphClass: 2
Flags: W
HStem: 977 78<357 430.912>
VStem: 440 193<1257 1450>
LayerCount: 2
Fore
SplineSet
440 1450 m 1,0,-1
 633 1450 l 1,1,-1
 589 1246 l 2,2,3
 563 1123 563 1123 498.5 1053.5 c 128,-1,4
 434 984 434 984 340 977 c 1,5,-1
 357 1055 l 1,6,7
 463 1068 463 1068 495 1239 c 1,8,-1
 395 1239 l 1,9,-1
 440 1450 l 1,0,-1
EndSplineSet
EndChar

StartChar: quotesinglbase
Encoding: 8218 8218 198
Width: 455
GlyphClass: 2
Flags: W
HStem: -262 78<93 166.912>
VStem: 176 193<18 211>
LayerCount: 2
Fore
SplineSet
176 211 m 1,0,-1
 369 211 l 1,1,-1
 325 7 l 2,2,3
 299 -116 299 -116 234.5 -185.5 c 128,-1,4
 170 -255 170 -255 76 -262 c 1,5,-1
 93 -184 l 1,6,7
 199 -171 199 -171 231 0 c 1,8,-1
 131 0 l 1,9,-1
 176 211 l 1,0,-1
EndSplineSet
EndChar

StartChar: quotedblleft
Encoding: 8220 8220 199
Width: 682
GlyphClass: 2
Flags: W
HStem: 977 211<437 489 766 819> 1373 79<500.735 574 829.735 903>
VStem: 299 190<977 1167> 628 191<977 1168>
LayerCount: 2
Fore
SplineSet
489 977 m 1,0,-1
 299 977 l 1,1,-1
 343 1181 l 2,2,3
 369 1305 369 1305 433 1374.5 c 128,-1,4
 497 1444 497 1444 590 1452 c 1,5,-1
 574 1373 l 1,6,7
 469 1359 469 1359 437 1188 c 1,8,-1
 535 1188 l 1,9,-1
 489 977 l 1,0,-1
819 977 m 1,10,-1
 628 977 l 1,11,-1
 672 1181 l 2,12,13
 698 1305 698 1305 762 1374.5 c 128,-1,14
 826 1444 826 1444 920 1452 c 1,15,-1
 903 1373 l 1,16,17
 798 1359 798 1359 766 1188 c 1,18,-1
 864 1188 l 1,19,-1
 819 977 l 1,10,-1
EndSplineSet
EndChar

StartChar: quotedblright
Encoding: 8221 8221 200
Width: 682
GlyphClass: 2
Flags: W
HStem: 977 78<324 397.912 649 723.395> 1239 211<407 462 733 787>
VStem: 407 193<1257 1450> 733 192<1258 1450>
LayerCount: 2
Fore
SplineSet
407 1450 m 1,0,-1
 600 1450 l 1,1,-1
 556 1246 l 2,2,3
 530 1123 530 1123 465.5 1053.5 c 128,-1,4
 401 984 401 984 307 977 c 1,5,-1
 324 1055 l 1,6,7
 430 1068 430 1068 462 1239 c 1,8,-1
 362 1239 l 1,9,-1
 407 1450 l 1,0,-1
733 1450 m 1,10,-1
 925 1450 l 1,11,-1
 882 1246 l 2,12,13
 855 1123 855 1123 791 1053.5 c 128,-1,14
 727 984 727 984 633 977 c 1,15,-1
 649 1055 l 1,16,17
 756 1068 756 1068 787 1239 c 1,18,-1
 688 1239 l 1,19,-1
 733 1450 l 1,10,-1
EndSplineSet
EndChar

StartChar: quotedblbase
Encoding: 8222 8222 201
Width: 682
GlyphClass: 2
Flags: W
HStem: -262 78<58 131.912 383 457.395> 0 211<141 196 467 521>
VStem: 141 193<18 211> 467 192<19 211>
LayerCount: 2
Fore
SplineSet
141 211 m 1,0,-1
 334 211 l 1,1,-1
 290 7 l 2,2,3
 264 -116 264 -116 199.5 -185.5 c 128,-1,4
 135 -255 135 -255 41 -262 c 1,5,-1
 58 -184 l 1,6,7
 164 -171 164 -171 196 0 c 1,8,-1
 96 0 l 1,9,-1
 141 211 l 1,0,-1
467 211 m 1,10,-1
 659 211 l 1,11,-1
 616 7 l 2,12,13
 589 -116 589 -116 525 -185.5 c 128,-1,14
 461 -255 461 -255 367 -262 c 1,15,-1
 383 -184 l 1,16,17
 490 -171 490 -171 521 0 c 1,18,-1
 422 0 l 1,19,-1
 467 211 l 1,10,-1
EndSplineSet
EndChar

StartChar: dagger
Encoding: 8224 8224 202
Width: 1139
GlyphClass: 2
Flags: W
HStem: 860 166<295 656 872 1234>
VStem: 396 180<-362 -182> 782 180<1272 1452>
LayerCount: 2
Fore
SplineSet
1270 1026 m 1,0,-1
 1234 860 l 1,1,-1
 836 860 l 1,2,-1
 576 -362 l 1,3,-1
 396 -362 l 1,4,-1
 656 860 l 1,5,-1
 260 860 l 1,6,-1
 295 1026 l 1,7,-1
 691 1026 l 1,8,-1
 782 1452 l 1,9,-1
 962 1452 l 1,10,-1
 872 1026 l 1,11,-1
 1270 1026 l 1,0,-1
EndSplineSet
EndChar

StartChar: daggerdbl
Encoding: 8225 8225 203
Width: 1139
GlyphClass: 2
Flags: W
HStem: 63 166<139 493 709 1065> 860 166<309 663 878 1234>
VStem: 403 180<-362 -182> 788 181<1271 1452>
LayerCount: 2
Fore
SplineSet
1269 1026 m 1,0,-1
 1234 860 l 1,1,-1
 843 860 l 1,2,-1
 709 229 l 1,3,-1
 1100 229 l 1,4,-1
 1065 63 l 1,5,-1
 673 63 l 1,6,-1
 583 -362 l 1,7,-1
 403 -362 l 1,8,-1
 493 63 l 1,9,-1
 104 63 l 1,10,-1
 139 229 l 1,11,-1
 528 229 l 1,12,-1
 663 860 l 1,13,-1
 273 860 l 1,14,-1
 309 1026 l 1,15,-1
 698 1026 l 1,16,-1
 788 1452 l 1,17,-1
 969 1452 l 1,18,-1
 878 1026 l 1,19,-1
 1269 1026 l 1,0,-1
EndSplineSet
EndChar

StartChar: bullet
Encoding: 8226 8226 204
Width: 717
GlyphClass: 2
Flags: W
HStem: 451 511.5<409.692 609.662>
VStem: 246 524<610.676 802.369>
LayerCount: 2
Fore
SplineSet
740 872 m 0,0,1
 770 822 770 822 770 763 c 0,2,3
 770 645 770 645 675.5 548 c 128,-1,4
 581 451 581 451 451 451 c 0,5,6
 334 451 334 451 276 544 c 0,7,8
 246 592 246 592 246 635 c 0,9,10
 246 790 246 790 365 887 c 0,11,12
 458 963 458 963 571 962.5 c 128,-1,13
 684 962 684 962 740 872 c 0,0,1
EndSplineSet
EndChar

StartChar: ellipsis
Encoding: 8230 8230 205
Width: 2048
GlyphClass: 2
Flags: W
HStem: 0 211<281 449 963 1131 1645 1813>
VStem: 236 213<0 213> 281 213<-2 211> 918 213<0 213> 963 213<-2 211> 1600 213<0 213> 1645 213<-2 211>
LayerCount: 2
Fore
SplineSet
494 211 m 1,0,-1
 449 0 l 1,1,-1
 236 0 l 1,2,-1
 281 211 l 1,3,-1
 494 211 l 1,0,-1
1176 211 m 1,4,-1
 1131 0 l 1,5,-1
 918 0 l 1,6,-1
 963 211 l 1,7,-1
 1176 211 l 1,4,-1
1858 211 m 1,8,-1
 1813 0 l 1,9,-1
 1600 0 l 1,10,-1
 1645 211 l 1,11,-1
 1858 211 l 1,8,-1
EndSplineSet
EndChar

StartChar: perthousand
Encoding: 8240 8240 206
Width: 2048
GlyphClass: 2
Flags: W
HStem: -39 113<897.056 1137.58 1636.42 1875.59> 452 112.5<952.069 1189.65 1691.64 1929.65> 881 113<428.421 670.347> 1372 112.5<483.638 721.654> 1491 20G<1314.32 1464>
VStem: 262 123<1032.91 1271.32> 731 123<113.483 351.321> 766 123.5<1094.27 1329.71> 1234 123.5<174.271 409.713> 1470 123<113.179 351.393> 1974 123.5<174.271 409.197>
LayerCount: 2
Fore
SplineSet
1329 1511 m 1,0,-1
 1464 1511 l 1,1,-1
 325 -41 l 1,2,-1
 190 -41 l 1,3,-1
 1329 1511 l 1,0,-1
854 1378 m 0,4,5
 890 1322 890 1322 889.5 1246 c 128,-1,6
 889 1170 889 1170 844.5 1083.5 c 128,-1,7
 800 997 800 997 706 939 c 128,-1,8
 612 881 612 881 497 881 c 128,-1,9
 382 881 382 881 313 969 c 0,10,11
 262 1034 262 1034 262 1113 c 128,-1,12
 262 1192 262 1192 301.5 1268.5 c 128,-1,13
 341 1345 341 1345 405 1397 c 0,14,15
 515 1485 515 1485 650.5 1484.5 c 128,-1,16
 786 1484 786 1484 854 1378 c 0,4,5
723 1331 m 128,-1,18
 680 1372 680 1372 628 1372 c 0,19,20
 507 1372 507 1372 437 1282 c 0,21,22
 385 1217 385 1217 385 1138 c 0,23,24
 385 1067 385 1067 432 1030.5 c 128,-1,25
 479 994 479 994 526.5 994 c 128,-1,26
 574 994 574 994 627.5 1014.5 c 128,-1,27
 681 1035 681 1035 723.5 1096 c 128,-1,28
 766 1157 766 1157 766 1223.5 c 128,-1,17
 766 1290 766 1290 723 1331 c 128,-1,18
1322 458 m 0,29,30
 1358 402 1358 402 1357.5 326 c 128,-1,31
 1357 250 1357 250 1312.5 163.5 c 128,-1,32
 1268 77 1268 77 1174 19 c 128,-1,33
 1080 -39 1080 -39 965.5 -39 c 128,-1,34
 851 -39 851 -39 782 49 c 0,35,36
 731 115 731 115 731 193.5 c 128,-1,37
 731 272 731 272 770.5 348.5 c 128,-1,38
 810 425 810 425 874 477 c 0,39,40
 983 565 983 565 1118.5 564.5 c 128,-1,41
 1254 564 1254 564 1322 458 c 0,29,30
1191 411 m 128,-1,43
 1148 452 1148 452 1096 452 c 0,44,45
 976 452 976 452 906 362 c 0,46,47
 854 297 854 297 854 218 c 0,48,49
 854 148 854 148 900.5 111 c 128,-1,50
 947 74 947 74 995 74 c 0,51,52
 1122 74 1122 74 1192 176 c 0,53,54
 1234 237 1234 237 1234 303.5 c 128,-1,42
 1234 370 1234 370 1191 411 c 128,-1,43
2062 458 m 0,55,56
 2098 402 2098 402 2097.5 326 c 128,-1,57
 2097 250 2097 250 2052.5 163.5 c 128,-1,58
 2008 77 2008 77 1914 19 c 128,-1,59
 1820 -39 1820 -39 1705 -39 c 128,-1,60
 1590 -39 1590 -39 1521 49 c 0,61,62
 1470 114 1470 114 1470 193 c 128,-1,63
 1470 272 1470 272 1509.5 348.5 c 128,-1,64
 1549 425 1549 425 1613 477 c 0,65,66
 1723 565 1723 565 1858.5 564.5 c 128,-1,67
 1994 564 1994 564 2062 458 c 0,55,56
1931 410.5 m 128,-1,69
 1888 452 1888 452 1836 452 c 0,70,71
 1715 452 1715 452 1645 362 c 0,72,73
 1593 298 1593 298 1593 218 c 0,74,75
 1593 148 1593 148 1640 111 c 128,-1,76
 1687 74 1687 74 1735 74 c 0,77,78
 1860 74 1860 74 1932 176 c 0,79,80
 1974 237 1974 237 1974 303 c 128,-1,68
 1974 369 1974 369 1931 410.5 c 128,-1,69
EndSplineSet
EndChar

StartChar: guilsinglleft
Encoding: 8249 8249 207
Width: 682
GlyphClass: 2
Flags: W
HStem: 217 680
VStem: 287 401
LayerCount: 2
Fore
SplineSet
287 466 m 1,0,-1
 326 648 l 1,1,-1
 688 897 l 1,2,-1
 652 726 l 1,3,-1
 403 554 l 1,4,-1
 580 385 l 1,5,-1
 544 217 l 1,6,-1
 287 466 l 1,0,-1
EndSplineSet
EndChar

StartChar: guilsinglright
Encoding: 8250 8250 208
Width: 682
GlyphClass: 2
Flags: W
HStem: 217 680
VStem: 223 406
LayerCount: 2
Fore
SplineSet
629 648 m 1,0,-1
 590 467 l 1,1,-1
 223 217 l 1,2,-1
 259 388 l 1,3,-1
 512 560 l 1,4,-1
 331 729 l 1,5,-1
 368 897 l 1,6,-1
 629 648 l 1,0,-1
EndSplineSet
EndChar

StartChar: fraction
Encoding: 8260 8260 209
Width: 569
GlyphClass: 2
Flags: W
LayerCount: 2
Fore
SplineSet
992 1452 m 1,0,-1
 1111 1452 l 1,1,-1
 -132 -41 l 1,2,-1
 -251 -41 l 1,3,-1
 992 1452 l 1,0,-1
EndSplineSet
EndChar

StartChar: Euro
Encoding: 8364 8364 210
Width: 1139
GlyphClass: 2
Flags: W
HStem: -47 160<495.666 841.027> 519 121<97 197 392 821> 776 121<152 241 466 975> 1295 157<727.162 1065.71>
VStem: 197 185<459.384 519 640 773.598>
LayerCount: 2
Fore
SplineSet
210 640 m 1,0,1
 219 699 219 699 241 776 c 1,2,-1
 80 776 l 1,3,-1
 152 897 l 1,4,-1
 281 897 l 1,5,6
 356 1096 356 1096 490 1245 c 0,7,8
 675 1452 675 1452 938 1452 c 0,9,10
 1054 1452 1054 1452 1139.5 1416.5 c 128,-1,11
 1225 1381 1225 1381 1303 1315 c 1,12,-1
 1202 1152 l 1,13,14
 1108 1232 1108 1232 1040 1263.5 c 128,-1,15
 972 1295 972 1295 893 1295 c 0,16,17
 759 1295 759 1295 658 1201 c 128,-1,18
 557 1107 557 1107 466 897 c 1,19,-1
 1049 897 l 1,20,-1
 975 776 l 1,21,-1
 422 776 l 1,22,23
 401 709 401 709 392 640 c 1,24,-1
 895 640 l 1,25,-1
 821 519 l 1,26,-1
 382 519 l 1,27,-1
 382 490 l 2,28,29
 382 386 382 386 406.5 301.5 c 128,-1,30
 431 217 431 217 472 177 c 0,31,32
 537 113 537 113 627 113 c 128,-1,33
 717 113 717 113 791.5 138.5 c 128,-1,34
 866 164 866 164 1009 239 c 1,35,-1
 968 48 l 1,36,37
 793 -47 793 -47 603 -47 c 0,38,39
 474 -47 474 -47 377 12 c 0,40,41
 195 123 195 123 195 459 c 0,42,43
 195 471 195 471 197 519 c 1,44,-1
 25 519 l 1,45,-1
 97 640 l 1,46,-1
 210 640 l 1,0,1
EndSplineSet
EndChar

StartChar: trademark
Encoding: 8482 8482 211
Width: 2048
GlyphClass: 2
Flags: W
HStem: 1380 113<450 742 881 1193>
VStem: 576 139<598 737> 1137 137<598 735> 1917 137<598 735>
LayerCount: 2
Fore
SplineSet
881 1380 m 1,0,-1
 715 598 l 1,1,-1
 576 598 l 1,2,-1
 742 1380 l 1,3,-1
 426 1380 l 1,4,-1
 450 1493 l 1,5,-1
 1217 1493 l 1,6,-1
 1193 1380 l 1,7,-1
 881 1380 l 1,0,-1
1666 598 m 1,8,-1
 1522 598 l 1,9,-1
 1423 1297 l 1,10,-1
 1274 598 l 1,11,-1
 1137 598 l 1,12,-1
 1327 1493 l 1,13,-1
 1520 1493 l 1,14,-1
 1632 751 l 1,15,-1
 2059 1493 l 1,16,-1
 2245 1493 l 1,17,-1
 2054 598 l 1,18,-1
 1917 598 l 1,19,-1
 2066 1297 l 1,20,-1
 1666 598 l 1,8,-1
EndSplineSet
EndChar

StartChar: partialdiff
Encoding: 8706 8706 212
Width: 975
GlyphClass: 2
Flags: W
HStem: -31 66<315.389 515.021> 748 88<395.796 623.009> 1373 21G<193.34 249> 1440 96<257.879 593.398>
VStem: 45 180<180.14 538.214> 776 162<707.219 1131.43>
LayerCount: 2
Fore
SplineSet
126 1479 m 1,0,1
 254 1536 254 1536 370 1536 c 0,2,3
 697 1536 697 1536 851 1233 c 0,4,5
 938 1063 938 1063 938 829 c 0,6,7
 938 669 938 669 899.5 492 c 128,-1,8
 861 315 861 315 803 211 c 0,9,10
 669 -31 669 -31 435 -31 c 0,11,12
 365 -31 365 -31 301 -7 c 0,13,14
 177 38 177 38 111 141.5 c 128,-1,15
 45 245 45 245 45 376 c 128,-1,16
 45 507 45 507 121 634 c 0,17,18
 241 836 241 836 446 836 c 0,19,20
 528 836 528 836 588.5 810 c 128,-1,21
 649 784 649 784 754 703 c 1,22,23
 776 858 776 858 776 952 c 128,-1,24
 776 1046 776 1046 745.5 1154 c 128,-1,25
 715 1262 715 1262 663 1334 c 0,26,27
 587 1440 587 1440 439 1440 c 0,28,29
 383 1440 383 1440 350 1430 c 0,30,31
 289 1412 289 1412 209 1373 c 1,32,-1
 126 1479 l 1,0,1
740 623 m 1,33,34
 658 748 658 748 528 748 c 128,-1,35
 398 748 398 748 311.5 615.5 c 128,-1,36
 225 483 225 483 225 316 c 0,37,38
 225 153 225 153 283.5 94 c 128,-1,39
 342 35 342 35 416.5 35 c 128,-1,40
 491 35 491 35 558 100 c 128,-1,41
 625 165 625 165 664.5 280.5 c 128,-1,42
 704 396 704 396 740 623 c 1,33,34
EndSplineSet
EndChar

StartChar: product
Encoding: 8719 8719 213
Width: 2039
GlyphClass: 2
Flags: W
HStem: -494 175<343 500 700 854 1301 1442 1642 1793> 1300 175<287 500 700 1442 1642 1849>
VStem: 500 200<-319 1300> 1442 200<-319 1300>
LayerCount: 2
Fore
SplineSet
500 -319 m 1,0,-1
 500 1300 l 1,1,-1
 287 1300 l 1,2,-1
 287 1475 l 1,3,-1
 1849 1475 l 1,4,-1
 1849 1300 l 1,5,-1
 1642 1300 l 1,6,-1
 1642 -319 l 1,7,-1
 1793 -319 l 1,8,-1
 1793 -494 l 1,9,-1
 1301 -494 l 1,10,-1
 1300 -319 l 1,11,-1
 1442 -319 l 1,12,-1
 1442 1300 l 1,13,-1
 700 1300 l 1,14,-1
 700 -319 l 1,15,-1
 854 -319 l 1,16,-1
 855 -494 l 1,17,-1
 343 -494 l 1,18,-1
 343 -319 l 1,19,-1
 500 -319 l 1,0,-1
EndSplineSet
EndChar

StartChar: summation
Encoding: 8721 8721 214
Width: 2039
GlyphClass: 2
Flags: W
HStem: -275 148<647 1333> 1087 21G<1326.38 1472> 1378 150<648 1318>
VStem: 1327 145<1087 1378> 1333 154<-127 165>
LayerCount: 2
Fore
SplineSet
1472 1528 m 1,0,-1
 1472 1087 l 1,1,-1
 1327 1087 l 1,2,-1
 1318 1378 l 1,3,-1
 648 1378 l 1,4,-1
 1065 663 l 1,5,-1
 647 -127 l 1,6,-1
 1333 -127 l 1,7,-1
 1339 165 l 1,8,-1
 1487 165 l 1,9,-1
 1487 -275 l 1,10,-1
 465 -275 l 1,11,-1
 465 -128 l 1,12,-1
 885 661 l 1,13,-1
 465 1384 l 1,14,-1
 465 1528 l 1,15,-1
 1472 1528 l 1,0,-1
EndSplineSet
EndChar

StartChar: uni2219
Encoding: 8729 8729 215
Width: 569
GlyphClass: 2
Flags: W
HStem: 466 213<369 537>
VStem: 324 213<466 679> 369 213<466 679>
LayerCount: 2
Fore
SplineSet
582 679 m 1,0,-1
 537 466 l 1,1,-1
 324 466 l 1,2,-1
 369 679 l 1,3,-1
 582 679 l 1,0,-1
EndSplineSet
EndChar

StartChar: radical
Encoding: 8730 8730 216
Width: 928
GlyphClass: 2
Flags: W
LayerCount: 2
Fore
SplineSet
1282 1870 m 1,0,-1
 1353 1860 l 1,1,-1
 631 -74 l 1,2,-1
 354 945 l 1,3,-1
 141 849 l 1,4,-1
 118 918 l 1,5,-1
 453 1067 l 1,6,-1
 677 257 l 1,7,-1
 1282 1870 l 1,0,-1
EndSplineSet
EndChar

StartChar: infinity
Encoding: 8734 8734 217
Width: 1460
GlyphClass: 2
Flags: W
HStem: 254 104<306.046 564.706 1067.19 1325.46> 723 104<365.538 625.844 1123.45 1382.49>
VStem: 160 108<397.154 628.606> 1422 108<458.795 683.943>
LayerCount: 2
Fore
SplineSet
859 608 m 1,0,1
 986 703 986 703 1035 735 c 0,2,3
 1176 827 1176 827 1304 827 c 0,4,5
 1373 827 1373 827 1432 790 c 0,6,7
 1530 728 1530 728 1530 606 c 128,-1,8
 1530 484 1530 484 1446 385 c 0,9,10
 1393 324 1393 324 1321 289 c 128,-1,11
 1249 254 1249 254 1182.5 254 c 128,-1,12
 1116 254 1116 254 1062.5 277 c 128,-1,13
 1009 300 1009 300 962 339.5 c 128,-1,14
 915 379 915 379 830 473 c 1,15,16
 674 351 674 351 576 302.5 c 128,-1,17
 478 254 478 254 398 254 c 128,-1,18
 318 254 318 254 258 291 c 0,19,20
 160 352 160 352 160 474.5 c 128,-1,21
 160 597 160 597 244 696 c 0,22,23
 296 757 296 757 368 792 c 128,-1,24
 440 827 440 827 512 827 c 0,25,26
 634 827 634 827 738 735 c 0,27,28
 783 695 783 695 859 608 c 1,0,1
918 541 m 1,29,30
 964 484 964 484 1022 437 c 128,-1,31
 1080 390 1080 390 1115 374 c 128,-1,32
 1150 358 1150 358 1196 358 c 0,33,34
 1300 358 1300 358 1370 448 c 0,35,36
 1422 515 1422 515 1422 581 c 0,37,38
 1422 605 1422 605 1410 635 c 0,39,40
 1373 723 1373 723 1274 723 c 0,41,42
 1143 723 1143 723 918 541 c 1,29,30
772 541 m 1,43,44
 625 723 625 723 498 723 c 0,45,46
 416 723 416 723 342 660 c 128,-1,47
 268 597 268 597 268 502 c 0,48,49
 268 475 268 475 279 448 c 0,50,51
 315 358 315 358 418 358 c 0,52,53
 463 358 463 358 507 375 c 128,-1,54
 551 392 551 392 630 440.5 c 128,-1,55
 709 489 709 489 772 541 c 1,43,44
EndSplineSet
EndChar

StartChar: integral
Encoding: 8747 8747 218
Width: 561
GlyphClass: 2
Flags: W
HStem: -215 157<126.5 273.104> 1713 157<348.443 512.141>
VStem: 236 107<1219 1699.09> 277 109<-37.6741 433.33>
LayerCount: 2
Fore
SplineSet
386 1071 m 2,0,-1
 386 603 l 2,1,2
 386 336 386 336 377 201 c 128,-1,3
 368 66 368 66 343 -32 c 0,4,5
 298 -215 298 -215 161 -215 c 0,6,7
 92 -215 92 -215 54 -167 c 0,8,9
 31 -138 31 -138 31 -109 c 128,-1,10
 31 -80 31 -80 41 -59 c 0,11,12
 68 -2 68 -2 130 -2 c 0,13,14
 170 -2 170 -2 198 -30 c 128,-1,15
 226 -58 226 -58 240 -58 c 0,16,17
 277 -58 277 -58 277 -12 c 128,-1,18
 277 34 277 34 256.5 247.5 c 128,-1,19
 236 461 236 461 236 585 c 2,20,-1
 236 1053 l 2,21,22
 236 1323 236 1323 245 1456.5 c 128,-1,23
 254 1590 254 1590 278 1688 c 0,24,25
 324 1870 324 1870 461 1870 c 0,26,27
 514 1870 514 1870 551.5 1837.5 c 128,-1,28
 589 1805 589 1805 589 1760.5 c 128,-1,29
 589 1716 589 1716 560.5 1686.5 c 128,-1,30
 532 1657 532 1657 499 1657 c 0,31,32
 450 1657 450 1657 422.5 1685 c 128,-1,33
 395 1713 395 1713 379 1713 c 0,34,35
 343 1713 343 1713 343 1666.5 c 128,-1,36
 343 1620 343 1620 364.5 1409 c 128,-1,37
 386 1198 386 1198 386 1071 c 2,0,-1
EndSplineSet
EndChar

StartChar: approxequal
Encoding: 8776 8776 219
Width: 1124
GlyphClass: 2
Flags: W
HStem: 166 139<710.193 965.826> 303 139<302.022 553.561> 510 139<771.545 1020.43> 647 139<362.862 613.285>
LayerCount: 2
Fore
SplineSet
474 647 m 0,0,1
 372 647 372 647 258 498 c 1,2,-1
 185 554 l 1,3,4
 233 625 233 625 287 680 c 0,5,6
 390 786 390 786 512 786 c 0,7,8
 590 786 590 786 700 729.5 c 128,-1,9
 810 673 810 673 843 661 c 128,-1,10
 876 649 876 649 924 649 c 128,-1,11
 972 649 972 649 1019.5 680 c 128,-1,12
 1067 711 1067 711 1131 791 c 1,13,-1
 1207 739 l 1,14,15
 1046 510 1046 510 866 510 c 0,16,17
 823 510 823 510 774.5 528 c 128,-1,18
 726 546 726 546 626 596.5 c 128,-1,19
 526 647 526 647 474 647 c 0,0,1
412 303 m 0,20,21
 311 303 311 303 197 154 c 1,22,-1
 124 209 l 1,23,24
 171 279 171 279 227 336 c 0,25,26
 329 442 329 442 452 442 c 0,27,28
 530 442 530 442 639 385.5 c 128,-1,29
 748 329 748 329 782 317 c 128,-1,30
 816 305 816 305 864 305 c 128,-1,31
 912 305 912 305 959.5 336 c 128,-1,32
 1007 367 1007 367 1070 447 c 1,33,-1
 1146 395 l 1,34,35
 1071 288 1071 288 989.5 227 c 128,-1,36
 908 166 908 166 805 166 c 0,37,38
 758 166 758 166 707 186.5 c 128,-1,39
 656 207 656 207 560.5 255 c 128,-1,40
 465 303 465 303 412 303 c 0,20,21
EndSplineSet
EndChar

StartChar: notequal
Encoding: 8800 8800 220
Width: 1124
GlyphClass: 2
Flags: W
HStem: 227 147<147 367 665 1106> 580 147<221 638 935 1181>
LayerCount: 2
Fore
SplineSet
367 227 m 1,0,-1
 116 227 l 1,1,-1
 147 374 l 1,2,-1
 477 374 l 1,3,-1
 638 580 l 1,4,-1
 191 580 l 1,5,-1
 221 727 l 1,6,-1
 748 727 l 1,7,-1
 944 983 l 1,8,-1
 1071 904 l 1,9,-1
 935 727 l 1,10,-1
 1212 727 l 1,11,-1
 1181 580 l 1,12,-1
 825 580 l 1,13,-1
 665 374 l 1,14,-1
 1137 374 l 1,15,-1
 1106 227 l 1,16,-1
 555 227 l 1,17,-1
 384 4 l 1,18,-1
 257 83 l 1,19,-1
 367 227 l 1,0,-1
EndSplineSet
EndChar

StartChar: lessequal
Encoding: 8804 8804 221
Width: 1124
GlyphClass: 2
Flags: W
HStem: 0 147<86 1058>
LayerCount: 2
Fore
SplineSet
1089 147 m 1,0,-1
 1058 0 l 1,1,-1
 56 0 l 1,2,-1
 86 147 l 1,3,-1
 1089 147 l 1,0,-1
191 631 m 1,4,-1
 221 772 l 1,5,-1
 1313 1196 l 1,6,-1
 1279 1034 l 1,7,-1
 414 699 l 1,8,-1
 1137 364 l 1,9,-1
 1103 207 l 1,10,-1
 191 631 l 1,4,-1
EndSplineSet
EndChar

StartChar: greaterequal
Encoding: 8805 8805 222
Width: 1124
GlyphClass: 2
Flags: W
HStem: 0 147<109 1081>
LayerCount: 2
Fore
SplineSet
109 147 m 1,0,-1
 1112 147 l 1,1,-1
 1081 0 l 1,2,-1
 79 0 l 1,3,-1
 109 147 l 1,0,-1
1246 771 m 1,4,-1
 1216 631 l 1,5,-1
 124 207 l 1,6,-1
 159 369 l 1,7,-1
 1023 704 l 1,8,-1
 300 1039 l 1,9,-1
 334 1196 l 1,10,-1
 1246 771 l 1,4,-1
EndSplineSet
EndChar

StartChar: uni25C6
Encoding: 9670 9670 223
Width: 2039
GlyphClass: 2
Flags: W
LayerCount: 2
Fore
SplineSet
494 678 m 1,0,-1
 1024 1277 l 1,1,-1
 1572 674 l 1,2,-1
 1037 80 l 1,3,-1
 494 678 l 1,0,-1
EndSplineSet
EndChar
